<?xml version="1.0" standalone="no"?>
<!DOCTYPE svg PUBLIC "-//W3C//DTD SVG 1.1//EN" "http://www.w3.org/Graphics/SVG/1.1/DTD/svg11.dtd" >
<svg xmlns="http://www.w3.org/2000/svg" xmlns:xlink="http://www.w3.org/1999/xlink" version="1.1">
<metadata>
Created by FontForge 20170731 at Fri May 27 22:46:01 2022
 By Aleksey,,,
Copyright 2008-2010, 2013-2016, 2019-2022 Dalton Maag Ltd. Modification of this file requires prior written permission from Dalton Maag Ltd.
</metadata>
<defs>
<font id="EffraTrial-SemiBold" horiz-adv-x="0" >
  <font-face 
    font-family="Effra Trial SemiBold"
    font-weight="600"
    font-stretch="normal"
    units-per-em="1000"
    panose-1="2 11 7 3 2 2 3 2 2 4"
    ascent="800"
    descent="-200"
    x-height="467"
    cap-height="667"
    bbox="-292 -481 1412 967"
    underline-thickness="77"
    underline-position="-224"
    unicode-range="U+000D-FEFF"
  />
<missing-glyph horiz-adv-x="500" 
d="M50 750h400v-750h-400v750zM400 700h-300v-650h300v650z" />
    <glyph glyph-name="uniFEF5" unicode="&#xfedf;&#xfe82;" horiz-adv-x="462" arabic-form="isolated" 
d="M307 634l106 19q0 -97 -26.5 -183t-65.5 -154q47 -56 74.5 -105t27.5 -93q0 -66 -56 -96t-145 -30q-43 0 -91.5 8t-76.5 19l-18 96q48 41 93.5 89t79.5 96q-55 55 -111 103.5t-116 90.5l72 89q48 -40 95.5 -86t109.5 -113q24 53 36 116t12 134zM332 136q0 12 -16 39
t-47 62q-24 -34 -52.5 -67t-61.5 -64q20 -3 39.5 -4t35.5 -1q47 0 74.5 9.5t27.5 25.5zM91 653q-20 0 -55 13q-38 15 -54 15q-24 0 -50 -36l-32 18q26 79 85 79q11 0 24 -3.5t31 -9.5q38 -15 54 -15q26 0 50 36l32 -18q-26 -79 -85 -79z" />
    <glyph glyph-name="uniFEF6" unicode="&#xfee0;&#xfe82;" horiz-adv-x="528" arabic-form="final" 
d="M322 171l-4 463l104 19l-4 -482q14 -27 39 -37.5t71 -10.5l16 -10v-103l-16 -10q-104 0 -151 54q-34 -32 -84.5 -47t-119.5 -15q-31 0 -58.5 2t-56.5 7l-26 122q28 -6 63 -8.5t77 -2.5h5q-27 93 -61.5 189t-70.5 179l93 53q34 -83 66 -190t59 -222q24 6 41.5 18t17.5 32z
M129 598q-20 0 -55 13q-38 15 -54 15q-24 0 -50 -36l-32 18q26 79 85 79q11 0 24 -3.5t31 -9.5q38 -15 54 -15q26 0 50 36l32 -18q-26 -79 -85 -79z" />
    <glyph glyph-name="uniFEF7" unicode="&#xfedf;&#xfe84;" horiz-adv-x="462" arabic-form="isolated" 
d="M307 634l106 19q0 -97 -26.5 -183t-65.5 -154q47 -56 74.5 -105t27.5 -93q0 -66 -56 -96t-145 -30q-43 0 -91.5 8t-76.5 19l-18 96q48 41 93.5 89t79.5 96q-55 55 -111 103.5t-116 90.5l72 89q48 -40 95.5 -86t109.5 -113q24 53 36 116t12 134zM332 136q0 12 -16 39
t-47 62q-24 -34 -52.5 -67t-61.5 -64q20 -3 39.5 -4t35.5 -1q47 0 74.5 9.5t27.5 25.5zM-35 757q0 34 23 57.5t57 23.5q39 0 61 -32l-22 -32q-8 5 -16.5 7.5t-17.5 2.5q-16 0 -27 -8t-11 -20q0 -14 15.5 -23t40.5 -12q34 7 64 8l-8 -57q-42 -3 -81 -10t-79 -20l-17 44
q22 9 48 17q-30 21 -30 54z" />
    <glyph glyph-name="uniFEF8" unicode="&#xfee0;&#xfe84;" horiz-adv-x="528" arabic-form="final" 
d="M322 171l-4 463l104 19l-4 -482q14 -27 39 -37.5t71 -10.5l16 -10v-103l-16 -10q-104 0 -151 54q-34 -32 -84.5 -47t-119.5 -15q-31 0 -58.5 2t-56.5 7l-26 122q28 -6 63 -8.5t77 -2.5h5q-27 93 -61.5 189t-70.5 179l93 53q34 -83 66 -190t59 -222q24 6 41.5 18t17.5 32z
M3 702q0 34 23 57.5t57 23.5q39 0 61 -32l-22 -32q-8 5 -16.5 7.5t-17.5 2.5q-16 0 -27 -8t-11 -20q0 -14 15.5 -23t40.5 -12q34 7 64 8l-8 -57q-42 -3 -81 -10t-79 -20l-17 44q22 9 48 17q-30 21 -30 54z" />
    <glyph glyph-name="uniFEF9" unicode="&#xfedf;&#xfe88;" horiz-adv-x="462" arabic-form="isolated" 
d="M307 634l106 19q0 -97 -26.5 -183t-65.5 -154q47 -56 74.5 -105t27.5 -93q0 -66 -56 -96t-145 -30q-43 0 -91.5 8t-76.5 19l-18 96q48 41 93.5 89t79.5 96q-55 55 -111 103.5t-116 90.5l72 89q48 -40 95.5 -86t109.5 -113q24 53 36 116t12 134zM332 136q0 12 -16 39
t-47 62q-24 -34 -52.5 -67t-61.5 -64q20 -3 39.5 -4t35.5 -1q47 0 74.5 9.5t27.5 25.5zM10 -148q0 34 23 57.5t57 23.5q39 0 61 -32l-22 -32q-8 5 -16.5 7.5t-17.5 2.5q-16 0 -27 -8t-11 -21t14.5 -22t39.5 -12q35 6 66 8l-8 -57q-42 -3 -81 -10t-79 -20l-17 44q22 9 47 17
q-29 21 -29 54z" />
    <glyph glyph-name="uniFEFA" unicode="&#xfee0;&#xfe88;" horiz-adv-x="528" arabic-form="final" 
d="M322 171l-4 463l104 19l-4 -482q14 -27 39 -37.5t71 -10.5l16 -10v-103l-16 -10q-104 0 -151 54q-34 -32 -84.5 -47t-119.5 -15q-31 0 -58.5 2t-56.5 7l-26 122q28 -6 63 -8.5t77 -2.5h5q-27 93 -61.5 189t-70.5 179l93 53q34 -83 66 -190t59 -222q24 6 41.5 18t17.5 32z
M164 -148q0 34 23 57.5t57 23.5q39 0 61 -32l-22 -32q-8 5 -16.5 7.5t-17.5 2.5q-16 0 -27 -8t-11 -21t14.5 -22t39.5 -12q35 6 66 8l-8 -57q-42 -3 -81 -10t-79 -20l-17 44q22 9 47 17q-29 21 -29 54z" />
    <glyph glyph-name="uniFEFB" unicode="&#xfedf;&#xfe8e;" horiz-adv-x="462" arabic-form="isolated" 
d="M307 634l106 19q0 -97 -26.5 -183t-65.5 -154q47 -56 74.5 -105t27.5 -93q0 -66 -56 -96t-145 -30q-43 0 -91.5 8t-76.5 19l-18 96q48 41 93.5 89t79.5 96q-55 55 -111 103.5t-116 90.5l72 89q48 -40 95.5 -86t109.5 -113q24 53 36 116t12 134zM332 136q0 12 -16 39
t-47 62q-24 -34 -52.5 -67t-61.5 -64q20 -3 39.5 -4t35.5 -1q47 0 74.5 9.5t27.5 25.5z" />
    <glyph glyph-name="uniFEFC" unicode="&#xfee0;&#xfe8e;" horiz-adv-x="528" arabic-form="final" 
d="M322 171l-4 463l104 19l-4 -482q14 -27 39 -37.5t71 -10.5l16 -10v-103l-16 -10q-104 0 -151 54q-34 -32 -84.5 -47t-119.5 -15q-31 0 -58.5 2t-56.5 7l-26 122q28 -6 63 -8.5t77 -2.5h5q-27 93 -61.5 189t-70.5 179l93 53q34 -83 66 -190t59 -222q24 6 41.5 18t17.5 32z
" />
    <glyph glyph-name="f_i" unicode="fi" horiz-adv-x="580" 
d="M401 371h-187v-371h-122v371h-79v96h79v12q0 98 62.5 150.5t174.5 52.5q101 0 177 -47l-41 -87q-29 18 -61.5 27t-71.5 9q-60 0 -89 -24t-29 -78v-15h309v-467h-122v371z" />
    <glyph glyph-name="f_l" unicode="fl" horiz-adv-x="580" 
d="M13 467h79v4q0 105 61 158t178 53q55 0 105.5 -11.5t86.5 -31.5v-639h-122v571q-32 13 -78 13q-58 0 -83.5 -25t-25.5 -83v-9h121v-96h-121v-371h-122v371h-79v96z" />
    <glyph glyph-name="f_f_i" unicode="ffi" horiz-adv-x="901" 
d="M13 467h79v24q0 90 47 140.5t128 50.5q73 0 132 -47l-49 -80q-34 29 -67 29q-69 0 -69 -92v-25h199v12q0 98 62.5 150.5t174.5 52.5q102 0 176 -47l-40 -87q-29 17 -62 26.5t-71 9.5q-60 0 -89 -24.5t-29 -78.5v-14h309v-467h-122v371h-187v-371h-122v371h-199v-371h-122
v371h-79v96z" />
    <glyph glyph-name="f_f_l" unicode="ffl" horiz-adv-x="901" 
d="M13 468h79v23q0 90 47 140.5t128 50.5q73 0 132 -47l-49 -80q-34 29 -67 29q-69 0 -69 -92v-24h199v3q0 105 60.5 158t178.5 53q55 0 105.5 -11.5t86.5 -31.5v-639h-122v570q-35 14 -78 14q-58 0 -83.5 -25.5t-25.5 -82.5v-8h121v-97h-121v-371h-122v371h-199v-371h-122
v371h-79v97z" />
    <glyph glyph-name="f_f" unicode="ff" horiz-adv-x="667" 
d="M13 467h79v24q0 90 47 140.5t128 50.5q73 0 132 -47l-49 -80q-34 29 -67 29q-69 0 -69 -92v-25h199v24q0 90 49 140.5t134 50.5q77 0 136 -47l-49 -80q-32 29 -72 29q-76 0 -76 -92v-25h121v-96h-121v-371h-122v371h-199v-371h-122v371h-79v96z" />
    <glyph glyph-name="lam_uni0671.fina" unicode="&#xfee0;&#xfb51;" horiz-adv-x="528" 
d="M322 171l-4 463l104 19l-4 -482q14 -27 39 -37.5t71 -10.5l16 -10v-103l-16 -10q-104 0 -151 54q-34 -32 -84.5 -47t-119.5 -15q-31 0 -58.5 2t-56.5 7l-26 122q28 -6 63 -8.5t77 -2.5h5q-27 93 -61.5 189t-70.5 179l93 53q34 -83 66 -190t59 -222q24 6 41.5 18t17.5 32z
M191 681q0 -83 -122 -83q-30 0 -52.5 1t-42.5 3l-13 57q14 -2 27.5 -3.5t27.5 -2.5q48 110 108 110q29 0 48 -23.5t19 -58.5zM150 682q0 12 -8 19.5t-20 7.5q-31 0 -60 -57h12q76 0 76 30z" />
    <glyph glyph-name="lam_uni0671" unicode="&#xfedf;&#xfb51;" horiz-adv-x="462" 
d="M307 634l106 19q0 -97 -26.5 -183t-65.5 -154q47 -56 74.5 -105t27.5 -93q0 -66 -56 -96t-145 -30q-43 0 -91.5 8t-76.5 19l-18 96q48 41 93.5 89t79.5 96q-55 55 -111 103.5t-116 90.5l72 89q48 -40 95.5 -86t109.5 -113q24 53 36 116t12 134zM332 136q0 12 -16 39
t-47 62q-24 -34 -52.5 -67t-61.5 -64q20 -3 39.5 -4t35.5 -1q47 0 74.5 9.5t27.5 25.5zM153 736q0 -83 -122 -83q-30 0 -52.5 1t-42.5 3l-13 57q14 -2 27.5 -3.5t27.5 -2.5q48 110 108 110q29 0 48 -23.5t19 -58.5zM112 737q0 12 -8 19.5t-20 7.5q-31 0 -60 -57h12
q76 0 76 30z" />
    <glyph glyph-name="uni0621" unicode="&#x621;" horiz-adv-x="468" arabic-form="isolated" 
d="M75 227q0 48 22.5 87t60 62.5t82.5 23.5q39 0 73.5 -17.5t60.5 -52.5l-47 -60q-37 20 -80 20q-37 0 -61.5 -18.5t-24.5 -47.5q0 -61 138 -75q62 10 124 14l-17 -118q-84 -6 -167 -21t-164 -40l-40 88q49 21 100 37q-60 46 -60 118z" />
    <glyph glyph-name="uni0622" unicode="&#x622;" horiz-adv-x="231" arabic-form="isolated" 
d="M63 634l105 19l-7 -653h-91zM168 728q-20 0 -55 13q-38 15 -54 15q-24 0 -50 -36l-32 18q26 79 85 79q11 0 24 -3.5t31 -9.5q38 -15 54 -15q26 0 50 36l32 -18q-26 -79 -85 -79z" />
    <glyph glyph-name="uni0623" unicode="&#x623;" horiz-adv-x="231" arabic-form="isolated" 
d="M63 634l105 19l-7 -653h-91zM42 832q0 34 23 57.5t57 23.5q39 0 61 -32l-22 -32q-8 5 -16.5 7.5t-17.5 2.5q-16 0 -27 -8t-11 -20q0 -14 15.5 -23t40.5 -12q34 7 64 8l-8 -57q-42 -3 -81 -10t-79 -20l-17 44q22 9 48 17q-30 21 -30 54z" />
    <glyph glyph-name="uni0624" unicode="&#x624;" horiz-adv-x="439" arabic-form="isolated" 
d="M52 188q0 60 22 107t60 73.5t86 26.5q53 0 92.5 -34.5t61 -97t21.5 -148.5q0 -136 -80 -217t-223 -104l-46 107q114 17 178.5 51t80.5 99q-45 -37 -104 -37q-67 0 -108 48.5t-41 125.5zM135 192q0 -35 22 -55.5t61 -20.5q54 0 91 26q-6 70 -30.5 106t-62.5 36
q-36 0 -58.5 -26t-22.5 -66zM148 572q0 34 23 57.5t57 23.5q39 0 61 -32l-22 -32q-8 5 -16.5 7.5t-17.5 2.5q-16 0 -27 -8t-11 -20q0 -14 15.5 -23t40.5 -12q34 7 64 8l-8 -57q-42 -3 -81 -10t-79 -20l-17 44q22 9 48 17q-30 21 -30 54z" />
    <glyph glyph-name="uni0625" unicode="&#x625;" horiz-adv-x="231" arabic-form="isolated" 
d="M63 634l105 19l-7 -653h-91zM42 -148q0 34 23 57.5t57 23.5q39 0 61 -32l-22 -32q-8 5 -16.5 7.5t-17.5 2.5q-16 0 -27 -8t-11 -21t14.5 -22t39.5 -12q35 6 66 8l-8 -57q-42 -3 -81 -10t-79 -20l-17 44q22 9 47 17q-29 21 -29 54z" />
    <glyph glyph-name="uni0626" unicode="&#x626;" horiz-adv-x="682" arabic-form="isolated" 
d="M395 242q0 -22 15.5 -34t61.5 -26l64 -20q53 -16 78.5 -42.5t25.5 -70.5q0 -73 -45 -130t-122 -89.5t-173 -32.5q-77 0 -136 28.5t-91.5 82t-32.5 126.5q0 56 21.5 116.5t59.5 109.5l69 -43q-49 -82 -49 -154q0 -65 46.5 -103.5t128.5 -38.5q62 0 111.5 15.5t78.5 39.5
t29 52q0 11 -10.5 18t-42.5 17l-67 21q-54 17 -81 49.5t-27 90.5q0 52 25 96.5t65.5 72.5t87.5 28q48 0 86 -29.5t60 -80.5l-61 -47q-35 48 -89 48q-35 0 -60.5 -21.5t-25.5 -48.5zM86 437q0 34 23 58t57 24q20 0 35.5 -9t25.5 -24l-22 -32q-8 5 -16.5 7.5t-17.5 2.5
q-16 0 -27 -7.5t-11 -20.5q0 -14 15 -23t40 -12q34 7 65 9l-8 -58q-84 -6 -160 -29l-17 43q22 9 48 17q-30 21 -30 54z" />
    <glyph glyph-name="uni0627" unicode="&#x627;" horiz-adv-x="231" arabic-form="isolated" 
d="M63 634l105 19l-7 -653h-91z" />
    <glyph glyph-name="uni0628" unicode="&#x628;" horiz-adv-x="784" arabic-form="isolated" 
d="M741 179q0 -98 -83 -143t-268 -45q-182 0 -266.5 47.5t-84.5 149.5q0 45 17.5 98t45.5 100l74 -36q-32 -69 -32 -122q0 -61 57 -86.5t189 -25.5q114 0 184 16.5t70 41.5q0 22 -8.5 54.5t-22.5 69t-33 69.5l98 54q19 -33 33 -75.5t22 -86t8 -80.5zM390 -217l-72 73l72 72
l72 -72z" />
    <glyph glyph-name="uni0629" unicode="&#x629;" horiz-adv-x="450" arabic-form="isolated" 
d="M359.5 39q-48.5 -47 -134.5 -47q-88 0 -136 45.5t-48 132.5q0 69 25 126.5t67 92.5t92 35q51 0 92.5 -34.5t66 -93t24.5 -131.5q0 -79 -48.5 -126zM293 265.5q-27 40.5 -68 40.5q-26 0 -48 -16.5t-35 -43.5t-13 -59q0 -80 96 -80q39 0 67 16.5t28 38.5q0 63 -27 103.5z
M153 635l71 -72l-71 -71l-70 71zM297 635l70 -72l-70 -71l-71 71z" />
    <glyph glyph-name="uni062A" unicode="&#x62a;" horiz-adv-x="784" arabic-form="isolated" 
d="M741 179q0 -98 -83 -143t-268 -45q-182 0 -266.5 47.5t-84.5 149.5q0 45 17.5 98t45.5 100l74 -36q-32 -69 -32 -122q0 -61 57 -86.5t189 -25.5q114 0 184 16.5t70 41.5q0 22 -8.5 54.5t-22.5 69t-33 69.5l98 54q19 -33 33 -75.5t22 -86t8 -80.5zM310 573l71 -72l-71 -71
l-70 71zM454 573l70 -72l-70 -71l-71 71z" />
    <glyph glyph-name="uni062B" unicode="&#x62b;" horiz-adv-x="784" arabic-form="isolated" 
d="M741 179q0 -98 -83 -143t-268 -45q-182 0 -266.5 47.5t-84.5 149.5q0 45 17.5 98t45.5 100l74 -36q-32 -69 -32 -122q0 -61 57 -86.5t189 -25.5q114 0 184 16.5t70 41.5q0 22 -8.5 54.5t-22.5 69t-33 69.5l98 54q19 -33 33 -75.5t22 -86t8 -80.5zM241 500l69 70l71 -70
l-71 -70zM454 570l69 -70l-69 -70l-71 70zM382 705l69 -69l-69 -69l-69 69z" />
    <glyph glyph-name="uni062C" unicode="&#x62c;" horiz-adv-x="609" arabic-form="isolated" 
d="M555 224q-192 -44 -292 -112t-100 -150q0 -64 55.5 -102.5t152.5 -38.5q53 0 107.5 11t90.5 30l35 -73q-47 -43 -114.5 -67.5t-141.5 -24.5q-85 0 -149.5 30t-100.5 84t-36 125q0 101 77 184.5t222 133.5q-24 5 -43 10q-49 14 -81 20t-50 6q-24 0 -41.5 -9t-38.5 -32
l-61 48q29 53 66 79.5t87 26.5q32 0 73 -8.5t108 -28.5q50 -14 87.5 -21.5t65.5 -7.5h22v-113zM386 -74l-71 72l71 72l71 -72z" />
    <glyph glyph-name="uni062D" unicode="&#x62d;" horiz-adv-x="609" arabic-form="isolated" 
d="M555 224q-192 -44 -292 -112t-100 -150q0 -64 55.5 -102.5t152.5 -38.5q53 0 107.5 11t90.5 30l35 -73q-47 -43 -114.5 -67.5t-141.5 -24.5q-85 0 -149.5 30t-100.5 84t-36 125q0 101 77 184.5t222 133.5q-24 5 -43 10q-49 14 -81 20t-50 6q-24 0 -41.5 -9t-38.5 -32
l-61 48q29 53 66 79.5t87 26.5q32 0 73 -8.5t108 -28.5q50 -14 87.5 -21.5t65.5 -7.5h22v-113z" />
    <glyph glyph-name="uni062E" unicode="&#x62e;" horiz-adv-x="609" arabic-form="isolated" 
d="M555 224q-192 -44 -292 -112t-100 -150q0 -64 55.5 -102.5t152.5 -38.5q53 0 107.5 11t90.5 30l35 -73q-47 -43 -114.5 -67.5t-141.5 -24.5q-85 0 -149.5 30t-100.5 84t-36 125q0 101 77 184.5t222 133.5q-24 5 -43 10q-49 14 -81 20t-50 6q-24 0 -41.5 -9t-38.5 -32
l-61 48q29 53 66 79.5t87 26.5q32 0 73 -8.5t108 -28.5q50 -14 87.5 -21.5t65.5 -7.5h22v-113zM306 471l-72 73l72 73l72 -73z" />
    <glyph glyph-name="uni062F" unicode="&#x62f;" horiz-adv-x="428" arabic-form="isolated" 
d="M293 145q0 27 -21 65.5t-56.5 81.5t-78.5 80l82 78q81 -73 125.5 -156t44.5 -151q0 -79 -54 -115t-174 -36q-24 0 -55.5 2.5t-55.5 6.5l-26 125q29 -4 63 -7.5t64 -3.5q59 0 100.5 9.5t41.5 20.5z" />
    <glyph glyph-name="uni0630" unicode="&#x630;" horiz-adv-x="428" arabic-form="isolated" 
d="M293 145q0 27 -21 65.5t-56.5 81.5t-78.5 80l82 78q81 -73 125.5 -156t44.5 -151q0 -79 -54 -115t-174 -36q-24 0 -55.5 2.5t-55.5 6.5l-26 125q29 -4 63 -7.5t64 -3.5q59 0 100.5 9.5t41.5 20.5zM166 517l-72 73l72 73l72 -73z" />
    <glyph glyph-name="uni0631" unicode="&#x631;" horiz-adv-x="373" arabic-form="isolated" 
d="M238 105q0 21 -13.5 57t-35.5 79t-50 84l95 55q29 -36 51 -82.5t34.5 -94t12.5 -89.5q0 -101 -76 -187t-214 -133l-62 107q73 26 131.5 61.5t92.5 73t34 69.5z" />
    <glyph glyph-name="uni0632" unicode="&#x632;" horiz-adv-x="373" arabic-form="isolated" 
d="M238 105q0 21 -13.5 57t-35.5 79t-50 84l95 55q29 -36 51 -82.5t34.5 -94t12.5 -89.5q0 -101 -76 -187t-214 -133l-62 107q73 26 131.5 61.5t92.5 73t34 69.5zM184 448l-72 73l72 73l72 -73z" />
    <glyph glyph-name="uni0633" unicode="&#x633;" horiz-adv-x="1130" arabic-form="isolated" 
d="M40 34q0 56 21.5 116.5t59.5 109.5l69 -43q-49 -82 -49 -154q0 -65 44.5 -103.5t123.5 -38.5q49 0 87.5 14t61.5 37t23 50q0 37 -17.5 95.5t-51.5 131.5l97 54q15 -32 28 -71t23 -77q26 -37 80 -37q36 0 58.5 15t29.5 52q3 13 6.5 35t7 45t5.5 38l92 -12
q-6 -46 -10 -77.5t-4 -39.5q0 -26 21 -41t56 -15q37 0 63 15.5t26 37.5q0 35 -17.5 90t-45.5 106l96 54q19 -34 33 -76.5t22 -83.5t8 -71q0 -88 -46.5 -139t-144.5 -51q-84 0 -128 49q-48 -49 -130 -49q-34 0 -62 10q-6 -64 -41.5 -111.5t-93.5 -74.5t-132 -27
q-124 0 -196.5 64t-72.5 173z" />
    <glyph glyph-name="uni0634" unicode="&#x634;" horiz-adv-x="1130" arabic-form="isolated" 
d="M40 34q0 56 21.5 116.5t59.5 109.5l69 -43q-49 -82 -49 -154q0 -65 44.5 -103.5t123.5 -38.5q49 0 87.5 14t61.5 37t23 50q0 37 -17.5 95.5t-51.5 131.5l97 54q15 -32 28 -71t23 -77q26 -37 80 -37q36 0 58.5 15t29.5 52q3 13 6.5 35t7 45t5.5 38l92 -12
q-6 -46 -10 -77.5t-4 -39.5q0 -26 21 -41t56 -15q37 0 63 15.5t26 37.5q0 35 -17.5 90t-45.5 106l96 54q19 -34 33 -76.5t22 -83.5t8 -71q0 -88 -46.5 -139t-144.5 -51q-84 0 -128 49q-48 -49 -130 -49q-34 0 -62 10q-6 -64 -41.5 -111.5t-93.5 -74.5t-132 -27
q-124 0 -196.5 64t-72.5 173zM619 487l69 70l71 -70l-71 -70zM832 557l69 -70l-69 -70l-71 70zM760 692l69 -69l-69 -69l-69 69z" />
    <glyph glyph-name="uni0635" unicode="&#x635;" horiz-adv-x="1129" arabic-form="isolated" 
d="M577 34q0 -70 -34.5 -123.5t-94.5 -83.5t-139 -30q-124 0 -196.5 64t-72.5 173q0 56 21.5 116.5t59.5 109.5l69 -43q-49 -82 -49 -154q0 -65 44.5 -103.5t123.5 -38.5q48 0 87 14t62 37t23 50q0 37 -17.5 95.5t-51.5 131.5l97 54l14 -31q45 -103 112 -136q66 142 137 213
t144 71q50 0 90.5 -28.5t64.5 -77t24 -109.5q0 -103 -83 -158.5t-238 -55.5q-123 0 -197 54v-11zM1004 207q0 38 -26.5 66t-63.5 28q-48 0 -98 -48.5t-97 -138.5q29 -3 69 -3q105 0 160.5 25t55.5 71z" />
    <glyph glyph-name="uni0636" unicode="&#x636;" horiz-adv-x="1129" arabic-form="isolated" 
d="M577 34q0 -70 -34.5 -123.5t-94.5 -83.5t-139 -30q-124 0 -196.5 64t-72.5 173q0 56 21.5 116.5t59.5 109.5l69 -43q-49 -82 -49 -154q0 -65 44.5 -103.5t123.5 -38.5q48 0 87 14t62 37t23 50q0 37 -17.5 95.5t-51.5 131.5l97 54l14 -31q45 -103 112 -136q66 142 137 213
t144 71q50 0 90.5 -28.5t64.5 -77t24 -109.5q0 -103 -83 -158.5t-238 -55.5q-123 0 -197 54v-11zM1004 207q0 38 -26.5 66t-63.5 28q-48 0 -98 -48.5t-97 -138.5q29 -3 69 -3q105 0 160.5 25t55.5 71zM893 497l-72 73l72 73l72 -73z" />
    <glyph glyph-name="uni0637" unicode="&#x637;" horiz-adv-x="673" arabic-form="isolated" 
d="M639 205q0 -102 -82.5 -158t-240.5 -56q-74 0 -143 2.5t-128 7.5l-25 121q41 -4 76.5 -6t73.5 -3l-8 522l105 18l-9 -407q47 86 99.5 130t102.5 44t90.5 -28.5t64.5 -77t24 -109.5zM548 207q0 38 -26.5 66t-62.5 28q-98 0 -197 -190h63q113 0 168 25t55 71z" />
    <glyph glyph-name="uni0638" unicode="&#x638;" horiz-adv-x="673" arabic-form="isolated" 
d="M639 205q0 -102 -82.5 -158t-240.5 -56q-74 0 -143 2.5t-128 7.5l-25 121q41 -4 76.5 -6t73.5 -3l-8 522l105 18l-9 -407q47 86 99.5 130t102.5 44t90.5 -28.5t64.5 -77t24 -109.5zM548 207q0 38 -26.5 66t-62.5 28q-98 0 -197 -190h63q113 0 168 25t55 71zM448 497
l-72 73l72 73l72 -73z" />
    <glyph glyph-name="uni0639" unicode="&#x639;" horiz-adv-x="521" arabic-form="isolated" 
d="M120 -67q0 -52 48.5 -82t135.5 -30q53 0 107 11t90 30l34 -73q-46 -43 -113 -67.5t-140 -24.5q-79 0 -139 27.5t-93 77t-33 116.5q0 82 45.5 138t113.5 92q-37 28 -54.5 63.5t-17.5 79.5q0 54 25 97t67 68.5t91 25.5q87 0 145 -75l-48 -61q-21 11 -43 17.5t-46 6.5
q-42 0 -72 -22t-30 -58q0 -32 30 -57t100 -34q36 8 71.5 12.5t68.5 6.5l-17 -116q-160 -9 -243 -53.5t-83 -115.5z" />
    <glyph glyph-name="uni063A" unicode="&#x63a;" horiz-adv-x="521" arabic-form="isolated" 
d="M120 -67q0 -52 48.5 -82t135.5 -30q53 0 107 11t90 30l34 -73q-46 -43 -113 -67.5t-140 -24.5q-79 0 -139 27.5t-93 77t-33 116.5q0 82 45.5 138t113.5 92q-37 28 -54.5 63.5t-17.5 79.5q0 54 25 97t67 68.5t91 25.5q87 0 145 -75l-48 -61q-21 11 -43 17.5t-46 6.5
q-42 0 -72 -22t-30 -58q0 -32 30 -57t100 -34q36 8 71.5 12.5t68.5 6.5l-17 -116q-160 -9 -243 -53.5t-83 -115.5zM287 549l-72 73l72 73l72 -73z" />
    <glyph glyph-name="uni0641" unicode="&#x641;" horiz-adv-x="789" arabic-form="isolated" 
d="M401 341q0 58 22 103t58.5 71.5t79.5 26.5q86 0 128.5 -86.5t42.5 -247.5q0 -81 -19 -121t-66 -60q-40 -18 -105.5 -27t-151.5 -9q-182 0 -266.5 47.5t-84.5 149.5q0 45 17.5 98t45.5 100l74 -36q-32 -69 -32 -122q0 -61 57 -86.5t189 -25.5q134 0 195 11.5t61 37.5v49v2
q-43 -30 -97 -30q-70 0 -109 41.5t-39 113.5zM480 347q0 -32 20 -49t57 -17q50 0 85 23q-8 71 -29 99.5t-54 28.5q-34 0 -56.5 -24.5t-22.5 -60.5zM561 609l-72 73l72 73l72 -73z" />
    <glyph glyph-name="uni0642" unicode="&#x642;" horiz-adv-x="657" arabic-form="isolated" 
d="M276 193q0 58 22.5 103.5t59.5 72t81 26.5q178 0 178 -375q0 -104 -73.5 -163.5t-215.5 -59.5q-90 0 -154.5 29.5t-99 83t-34.5 124.5q0 57 21.5 117t59.5 109l69 -43q-49 -80 -49 -156q0 -66 51.5 -106t142.5 -40q56 0 100 9.5t70 26.5t26 38v54v13q-46 -31 -101 -31
q-71 0 -112.5 46t-41.5 122zM356 197q0 -33 21.5 -52.5t59.5 -19.5q26 0 48 6.5t40 17.5q-10 74 -33.5 106t-56.5 32q-35 0 -57 -26t-22 -64zM365 605l71 -72l-71 -71l-70 71zM509 605l70 -72l-70 -71l-71 71z" />
    <glyph glyph-name="uni0643" unicode="&#x643;" horiz-adv-x="700" arabic-form="isolated" 
d="M39 188q0 45 17.5 98t45.5 100l74 -36q-32 -69 -32 -122q0 -58 49.5 -85t147.5 -27q58 0 105 7.5t75 21.5t28 31l-5 459l105 18l-5 -477q-1 -89 -78 -137t-225 -48q-149 0 -225.5 48.5t-76.5 148.5zM335 490.5q37 23.5 95 26.5l-4 -57q-29 -2 -45.5 -8.5t-16.5 -13.5
q0 -5 21 -16l15 -7q39 -18 39 -43q0 -33 -43 -56.5t-112 -28.5l-12 56q42 5 69.5 11.5t27.5 13.5q0 2 -4 4t-18 8l-12 6q-20 8 -28.5 19.5t-8.5 29.5q0 32 37 55.5z" />
    <glyph glyph-name="uni0644" unicode="&#x644;" horiz-adv-x="623" arabic-form="isolated" 
d="M523.5 -90.5q-31.5 -53.5 -88.5 -83t-136 -29.5q-121 0 -190 63t-69 174q0 56 21.5 116.5t59.5 109.5l69 -43q-49 -82 -49 -154q0 -66 41 -104t118 -38q48 0 84.5 13.5t58 36.5t20.5 51l-6 613l104 18l-6 -619q0 -71 -31.5 -124.5z" />
    <glyph glyph-name="uni0645" unicode="&#x645;" horiz-adv-x="562" arabic-form="isolated" 
d="M167 162q0 68 23.5 120.5t64.5 82.5t91 30q49 0 88.5 -29.5t63 -80t23.5 -115.5q0 -85 -43.5 -131.5t-123.5 -46.5q-40 0 -101 11q-20 4 -38.5 6.5t-34.5 2.5q-22 0 -32 -13t-10 -43l-2 -327l-93 -9l-5 340q-1 79 34.5 122.5t97.5 44.5q-3 21 -3 35zM408.5 251.5
q-26.5 30.5 -63.5 30.5q-44 0 -70 -34.5t-26 -96.5q0 -12 2 -34h3l52.5 -7.5t45.5 -3.5q40 0 61.5 18.5t21.5 52.5q0 44 -26.5 74.5z" />
    <glyph glyph-name="uni0646" unicode="&#x646;" horiz-adv-x="617" arabic-form="isolated" 
d="M577 34q0 -70 -34.5 -123.5t-94.5 -83.5t-139 -30q-124 0 -196.5 64t-72.5 173q0 56 21.5 116.5t59.5 109.5l69 -43q-49 -82 -49 -154q0 -65 44.5 -103.5t123.5 -38.5q49 0 87.5 14t61.5 37t23 50q0 37 -17.5 95.5t-51.5 131.5l97 54q19 -40 34.5 -89.5t24.5 -96.5t9 -83
zM301 324l-72 73l72 73l72 -73z" />
    <glyph glyph-name="uni0647" unicode="&#x647;" horiz-adv-x="450" arabic-form="isolated" 
d="M359.5 39q-48.5 -47 -134.5 -47q-88 0 -136 45.5t-48 132.5q0 69 25 126.5t67 92.5t92 35q51 0 92.5 -34.5t66 -93t24.5 -131.5q0 -79 -48.5 -126zM293 265.5q-27 40.5 -68 40.5q-26 0 -48 -16.5t-35 -43.5t-13 -59q0 -80 96 -80q39 0 67 16.5t28 38.5q0 63 -27 103.5z
" />
    <glyph glyph-name="uni0648" unicode="&#x648;" horiz-adv-x="439" arabic-form="isolated" 
d="M52 188q0 60 22 107t60 73.5t86 26.5q53 0 92.5 -34.5t61 -97t21.5 -148.5q0 -136 -80 -217t-223 -104l-46 107q114 17 178.5 51t80.5 99q-45 -37 -104 -37q-67 0 -108 48.5t-41 125.5zM135 192q0 -35 22 -55.5t61 -20.5q54 0 91 26q-6 70 -30.5 106t-62.5 36
q-36 0 -58.5 -26t-22.5 -66z" />
    <glyph glyph-name="uni0649" unicode="&#x649;" horiz-adv-x="682" arabic-form="isolated" 
d="M395 242q0 -22 15.5 -34t61.5 -26l64 -20q53 -16 78.5 -42.5t25.5 -70.5q0 -73 -45 -130t-122 -89.5t-173 -32.5q-77 0 -136 28.5t-91.5 82t-32.5 126.5q0 56 21.5 116.5t59.5 109.5l69 -43q-49 -82 -49 -154q0 -65 46.5 -103.5t128.5 -38.5q62 0 111.5 15.5t78.5 39.5
t29 52q0 11 -10.5 18t-42.5 17l-67 21q-54 17 -81 49.5t-27 90.5q0 52 25 96.5t65.5 72.5t87.5 28q48 0 86 -29.5t60 -80.5l-61 -47q-35 48 -89 48q-35 0 -60.5 -21.5t-25.5 -48.5z" />
    <glyph glyph-name="uni064A" unicode="&#x64a;" horiz-adv-x="682" arabic-form="isolated" 
d="M395 242q0 -22 15.5 -34t61.5 -26l64 -20q53 -16 78.5 -42.5t25.5 -70.5q0 -73 -45 -130t-122 -89.5t-173 -32.5q-77 0 -136 28.5t-91.5 82t-32.5 126.5q0 56 21.5 116.5t59.5 109.5l69 -43q-49 -82 -49 -154q0 -65 46.5 -103.5t128.5 -38.5q62 0 111.5 15.5t78.5 39.5
t29 52q0 11 -10.5 18t-42.5 17l-67 21q-54 17 -81 49.5t-27 90.5q0 52 25 96.5t65.5 72.5t87.5 28q48 0 86 -29.5t60 -80.5l-61 -47q-35 48 -89 48q-35 0 -60.5 -21.5t-25.5 -48.5zM156 -346l70 71l71 -71l-71 -71zM370 -275l70 -71l-70 -71l-71 71z" />
    <glyph glyph-name="uni066E.init" unicode="&#x66e;" horiz-adv-x="284" 
d="M-16 113l16 10q64 0 104.5 15.5t40.5 37.5t-8.5 54t-23 68.5t-33.5 68.5l99 54q18 -32 32 -74.5t21.5 -84t7.5 -72.5q0 -100 -59.5 -145t-180.5 -45l-16 10v103z" />
    <glyph glyph-name="uni066E.medi" unicode="&#x66e;" horiz-adv-x="336" 
d="M-16 113l16 10q62 0 90.5 13.5t34.5 44.5q5 22 11 59t10 65l92 -12q-5 -40 -9 -74.5t-4 -42.5q0 -27 26.5 -40t84.5 -13l16 -10v-103l-16 -10q-61 0 -99 16.5t-60 52.5q-50 -69 -177 -69l-16 10v103z" />
    <glyph glyph-name="uni066E.fina" unicode="&#x66e;" horiz-adv-x="860" 
d="M39 188q0 45 17.5 98t45.5 100l74 -36q-32 -69 -32 -122q0 -61 57 -86.5t189 -25.5q95 0 150.5 6.5t81.5 24t32 49.5q4 18 9.5 51t8.5 58l92 -12q-5 -40 -9 -74.5t-4 -42.5q0 -27 26 -40t83 -13l16 -10v-103l-16 -10q-57 0 -97 16t-64 57q-38 -49 -119 -65.5t-190 -16.5
q-182 0 -266.5 47.5t-84.5 149.5z" />
    <glyph glyph-name="uni0671" unicode="&#x671;" horiz-adv-x="231" arabic-form="isolated" 
d="M63 634l105 19l-7 -653h-91zM230 811q0 -83 -122 -83q-30 0 -52.5 1t-42.5 3l-13 57q14 -2 27.5 -3.5t27.5 -2.5q48 110 108 110q29 0 48 -23.5t19 -58.5zM189 812q0 12 -8 19.5t-20 7.5q-31 0 -60 -57h12q76 0 76 30z" />
    <glyph glyph-name="uni0679" unicode="&#x679;" horiz-adv-x="784" arabic-form="isolated" 
d="M741 179q0 -98 -83 -143t-268 -45q-182 0 -266.5 47.5t-84.5 149.5q0 45 17.5 98t45.5 100l74 -36q-32 -69 -32 -122q0 -61 57 -86.5t189 -25.5q114 0 184 16.5t70 41.5q0 22 -8.5 54.5t-22.5 69t-33 69.5l98 54q19 -33 33 -75.5t22 -86t8 -80.5zM497 514q0 -83 -122 -83
q-28 0 -51.5 1t-43.5 3l-13 57q29 -4 56 -6l-5 184l50 9l-3 -135q30 52 65 52q29 0 48 -23.5t19 -58.5zM456 515q0 12 -8 19.5t-20 7.5q-31 0 -60 -57h12q76 0 76 30z" />
    <glyph glyph-name="uni067E" unicode="&#x67e;" horiz-adv-x="784" arabic-form="isolated" 
d="M741 179q0 -98 -83 -143t-268 -45q-182 0 -266.5 47.5t-84.5 149.5q0 45 17.5 98t45.5 100l74 -36q-32 -69 -32 -122q0 -61 57 -86.5t189 -25.5q114 0 184 16.5t70 41.5q0 22 -8.5 54.5t-22.5 69t-33 69.5l98 54q19 -33 33 -75.5t22 -86t8 -80.5zM249 -142l69 70l71 -70
l-71 -70zM462 -72l69 -70l-69 -70l-71 70zM390 -347l-69 69l69 69l69 -69z" />
    <glyph glyph-name="uni0686" unicode="&#x686;" horiz-adv-x="609" arabic-form="isolated" 
d="M555 224q-192 -44 -292 -112t-100 -150q0 -64 55.5 -102.5t152.5 -38.5q53 0 107.5 11t90.5 30l35 -73q-47 -43 -114.5 -67.5t-141.5 -24.5q-85 0 -149.5 30t-100.5 84t-36 125q0 101 77 184.5t222 133.5q-24 5 -43 10q-49 14 -81 20t-50 6q-24 0 -41.5 -9t-38.5 -32
l-61 48q29 53 66 79.5t87 26.5q32 0 73 -8.5t108 -28.5q50 -14 87.5 -21.5t65.5 -7.5h22v-113zM386 41l49 51l52 -52l-52 -51l-49 50l-49 -50l-52 51l52 52zM335 -60l51 52l51 -52l-51 -51z" />
    <glyph glyph-name="uni0688" unicode="&#x688;" horiz-adv-x="428" arabic-form="isolated" 
d="M293 145q0 27 -21 65.5t-56.5 81.5t-78.5 80l82 78q81 -73 125.5 -156t44.5 -151q0 -79 -54 -115t-174 -36q-24 0 -55.5 2.5t-55.5 6.5l-26 125q29 -4 63 -7.5t64 -3.5q59 0 100.5 9.5t41.5 20.5zM281 601q0 -83 -122 -83q-28 0 -51.5 1t-43.5 3l-13 57q29 -4 56 -6
l-5 184l50 9l-3 -135q30 52 65 52q29 0 48 -23.5t19 -58.5zM240 602q0 12 -8 19.5t-20 7.5q-31 0 -60 -57h12q76 0 76 30z" />
    <glyph glyph-name="uni0691" unicode="&#x691;" horiz-adv-x="373" arabic-form="isolated" 
d="M238 105q0 21 -13.5 57t-35.5 79t-50 84l95 55q29 -36 51 -82.5t34.5 -94t12.5 -89.5q0 -101 -76 -187t-214 -133l-62 107q73 26 131.5 61.5t92.5 73t34 69.5zM299 532q0 -83 -122 -83q-28 0 -51.5 1t-43.5 3l-13 57q29 -4 56 -6l-5 184l50 9l-3 -135q30 52 65 52
q29 0 48 -23.5t19 -58.5zM258 533q0 12 -8 19.5t-20 7.5q-31 0 -60 -57h12q76 0 76 30z" />
    <glyph glyph-name="uni0698" unicode="&#x698;" horiz-adv-x="373" arabic-form="isolated" 
d="M238 105q0 21 -13.5 57t-35.5 79t-50 84l95 55q29 -36 51 -82.5t34.5 -94t12.5 -89.5q0 -101 -76 -187t-214 -133l-62 107q73 26 131.5 61.5t92.5 73t34 69.5zM43 518l69 70l71 -70l-71 -70zM256 588l69 -70l-69 -70l-71 70zM184 723l69 -69l-69 -69l-69 69z" />
    <glyph glyph-name="uni06A1.init" unicode="&#x6a1;" horiz-adv-x="425" 
d="M36 341q0 58 22.5 103t59 71.5t79.5 26.5q86 0 128.5 -86.5t42.5 -247.5q0 -76 -17 -117.5t-64 -61.5q-40 -17 -98.5 -23t-160.5 -6h-28l-16 10v103l16 10h28q137 0 195.5 9.5t58.5 32.5v44v6q-44 -29 -97 -29q-70 0 -109.5 41.5t-39.5 113.5zM117 347q0 -66 76 -66
q50 0 85 22q-8 73 -29 101t-54 28q-34 0 -56 -24.5t-22 -60.5z" />
    <glyph glyph-name="uni06A1.medi" unicode="&#x6a1;" horiz-adv-x="436" 
d="M-16 113l16 10q22 0 43.5 0.5t42.5 1.5q-17 22 -26.5 48t-9.5 59q0 54 23 97.5t61.5 69t83.5 25.5t83 -25.5t61 -69t23 -97.5q0 -34 -10 -60.5t-26 -46.5q25 -1 48.5 -1.5t38.5 -0.5l16 -10v-103l-16 -10q-53 0 -109 8.5t-109 29.5q-55 -22 -111.5 -30t-106.5 -8l-16 10
v103zM135 230q0 -57 82 -87q34 10 58.5 31t24.5 56q0 36 -23.5 60t-58.5 24t-59 -24t-24 -60z" />
    <glyph glyph-name="uni06A1.fina" unicode="&#x6a1;" horiz-adv-x="828" 
d="M39 188q0 45 17.5 98t45.5 100l71 -35q-32 -69 -32 -123q0 -59 56.5 -85.5t192.5 -26.5q25 0 48 1t44 3q-40 47 -40 112q0 54 23 97.5t61.5 69t83.5 25.5t83 -25.5t61 -69t23 -97.5q0 -33 -10 -59.5t-27 -47.5q22 -1 44 -1.5t44 -0.5l16 -10v-103l-16 -10q-50 0 -106 7.5
t-110 28.5q-50 -21 -108.5 -33t-115.5 -12q-181 0 -265 48.5t-84 148.5zM527 230q0 -28 20 -51t63 -37q82 29 82 88q0 36 -23.5 60t-58.5 24t-59 -24t-24 -60z" />
    <glyph glyph-name="uni06A4" unicode="&#x6a4;" horiz-adv-x="789" arabic-form="isolated" 
d="M401 341q0 58 22 103t58.5 71.5t79.5 26.5q86 0 128.5 -86.5t42.5 -247.5q0 -81 -19 -121t-66 -60q-40 -18 -105.5 -27t-151.5 -9q-182 0 -266.5 47.5t-84.5 149.5q0 45 17.5 98t45.5 100l74 -36q-32 -69 -32 -122q0 -61 57 -86.5t189 -25.5q134 0 195 11.5t61 37.5v49v2
q-43 -30 -97 -30q-70 0 -109 41.5t-39 113.5zM480 347q0 -32 20 -49t57 -17q50 0 85 23q-8 71 -29 99.5t-54 28.5q-34 0 -56.5 -24.5t-22.5 -60.5zM420 679l69 70l71 -70l-71 -70zM633 749l69 -70l-69 -70l-71 70zM561 884l69 -69l-69 -69l-69 69z" />
    <glyph glyph-name="uni06A5.init" unicode="&#x6a5;" horiz-adv-x="425" 
d="M36 341q0 58 22.5 103t59 71.5t79.5 26.5q86 0 128.5 -86.5t42.5 -247.5q0 -76 -17 -117.5t-64 -61.5q-40 -17 -98.5 -23t-160.5 -6h-28l-16 10v103l16 10h28q137 0 195.5 9.5t58.5 32.5v44v6q-44 -29 -97 -29q-70 0 -109.5 41.5t-39.5 113.5zM117 347q0 -66 76 -66
q50 0 85 22q-8 73 -29 101t-54 28q-34 0 -56 -24.5t-22 -60.5zM42 -142l69 70l71 -70l-71 -70zM255 -72l69 -70l-69 -70l-71 70zM183 -347l-69 69l69 69l69 -69z" />
    <glyph glyph-name="uni06A5.medi" unicode="&#x6a5;" horiz-adv-x="436" 
d="M-16 113l16 10q22 0 43.5 0.5t42.5 1.5q-17 22 -26.5 48t-9.5 59q0 54 23 97.5t61.5 69t83.5 25.5t83 -25.5t61 -69t23 -97.5q0 -34 -10 -60.5t-26 -46.5q25 -1 48.5 -1.5t38.5 -0.5l16 -10v-103l-16 -10q-53 0 -109 8.5t-109 29.5q-55 -22 -111.5 -30t-106.5 -8l-16 10
v103zM135 230q0 -57 82 -87q34 10 58.5 31t24.5 56q0 36 -23.5 60t-58.5 24t-59 -24t-24 -60zM73 -156l69 70l71 -70l-71 -70zM286 -86l69 -70l-69 -70l-71 70zM214 -361l-69 69l69 69l69 -69z" />
    <glyph glyph-name="uni06A5.fina" unicode="&#x6a5;" horiz-adv-x="828" 
d="M39 188q0 45 17.5 98t45.5 100l71 -35q-32 -69 -32 -123q0 -59 56.5 -85.5t192.5 -26.5q25 0 48 1t44 3q-40 47 -40 112q0 54 23 97.5t61.5 69t83.5 25.5t83 -25.5t61 -69t23 -97.5q0 -33 -10 -59.5t-27 -47.5q22 -1 44 -1.5t44 -0.5l16 -10v-103l-16 -10q-50 0 -106 7.5
t-110 28.5q-50 -21 -108.5 -33t-115.5 -12q-181 0 -265 48.5t-84 148.5zM527 230q0 -28 20 -51t63 -37q82 29 82 88q0 36 -23.5 60t-58.5 24t-59 -24t-24 -60zM244 -156l69 70l71 -70l-71 -70zM457 -86l69 -70l-69 -70l-71 70zM385 -361l-69 69l69 69l69 -69z" />
    <glyph glyph-name="uni06A8.init" unicode="&#x6a8;" horiz-adv-x="425" 
d="M36 341q0 58 22.5 103t59 71.5t79.5 26.5q86 0 128.5 -86.5t42.5 -247.5q0 -76 -17 -117.5t-64 -61.5q-40 -17 -98.5 -23t-160.5 -6h-28l-16 10v103l16 10h28q137 0 195.5 9.5t58.5 32.5v44v6q-44 -29 -97 -29q-70 0 -109.5 41.5t-39.5 113.5zM117 347q0 -66 76 -66
q50 0 85 22q-8 73 -29 101t-54 28q-34 0 -56 -24.5t-22 -60.5zM55 679l69 70l71 -70l-71 -70zM268 749l69 -70l-69 -70l-71 70zM196 884l69 -69l-69 -69l-69 69z" />
    <glyph glyph-name="uni06A8.medi" unicode="&#x6a8;" horiz-adv-x="436" 
d="M-16 113l16 10q22 0 43.5 0.5t42.5 1.5q-17 22 -26.5 48t-9.5 59q0 54 23 97.5t61.5 69t83.5 25.5t83 -25.5t61 -69t23 -97.5q0 -34 -10 -60.5t-26 -46.5q25 -1 48.5 -1.5t38.5 -0.5l16 -10v-103l-16 -10q-53 0 -109 8.5t-109 29.5q-55 -22 -111.5 -30t-106.5 -8l-16 10
v103zM135 230q0 -57 82 -87q34 10 58.5 31t24.5 56q0 36 -23.5 60t-58.5 24t-59 -24t-24 -60zM77 560l69 70l71 -70l-71 -70zM290 630l69 -70l-69 -70l-71 70zM218 765l69 -69l-69 -69l-69 69z" />
    <glyph glyph-name="uni06A8.fina" unicode="&#x6a8;" horiz-adv-x="657" 
d="M40 34q0 57 21.5 117t59.5 109l69 -43q-49 -80 -49 -156q0 -67 51.5 -106.5t142.5 -39.5q56 0 100 9.5t70 26.5t26 38v22h-45q-100 0 -155 47t-55 135q0 58 22.5 103.5t59.5 72t81 26.5q152 0 174 -272h44l16 -10v-103l-16 -10h-41q-6 -96 -79.5 -149.5t-208.5 -53.5
q-90 0 -154.5 29.5t-99 83t-34.5 124.5zM356 197q0 -78 132 -78h40q-7 90 -31.5 129t-61.5 39q-35 0 -57 -26t-22 -64zM296 532l69 70l71 -70l-71 -70zM509 602l69 -70l-69 -70l-71 70zM437 737l69 -69l-69 -69l-69 69z" />
    <glyph glyph-name="uni06A9" unicode="&#x6a9;" horiz-adv-x="757" arabic-form="isolated" 
d="M644 160q0 -78 -79.5 -123.5t-222.5 -45.5q-303 0 -303 197q0 45 17.5 98t45.5 100l74 -36q-32 -69 -32 -122q0 -58 50 -85t148 -27q57 0 104 7.5t74.5 19.5t27.5 27q0 26 -23.5 63t-67 79t-104.5 82l17 101q89 47 179 87.5t172 74.5l21 -107q-67 -25 -130 -51t-140 -62
q82 -70 127 -141.5t45 -135.5z" />
    <glyph glyph-name="uni06AF" unicode="&#x6af;" horiz-adv-x="757" arabic-form="isolated" 
d="M644 160q0 -78 -79.5 -123.5t-222.5 -45.5q-303 0 -303 197q0 45 17.5 98t45.5 100l74 -36q-32 -69 -32 -122q0 -58 50 -85t148 -27q57 0 104 7.5t74.5 19.5t27.5 27q0 26 -23.5 63t-67 79t-104.5 82l17 101q89 47 179 87.5t172 74.5l21 -107q-67 -25 -130 -51t-140 -62
q82 -70 127 -141.5t45 -135.5zM653 696q-70 -34 -139.5 -64.5t-135.5 -54.5v58q68 25 134.5 54t140.5 65v-58z" />
    <glyph glyph-name="uni06BA" unicode="&#x6ba;" horiz-adv-x="617" arabic-form="isolated" 
d="M577 34q0 -70 -34.5 -123.5t-94.5 -83.5t-139 -30q-124 0 -196.5 64t-72.5 173q0 56 21.5 116.5t59.5 109.5l69 -43q-49 -82 -49 -154q0 -65 44.5 -103.5t123.5 -38.5q49 0 87.5 14t61.5 37t23 50q0 37 -17.5 95.5t-51.5 131.5l97 54q19 -40 34.5 -89.5t24.5 -96.5t9 -83
z" />
    <glyph glyph-name="uni06BE" unicode="&#x6be;" horiz-adv-x="720" arabic-form="isolated" 
d="M193 222q0 50 20.5 90.5t55 64.5t76.5 24t76 -23.5t54.5 -63.5t20.5 -91q0 -31 -8.5 -56t-23.5 -44q12 -1 22 -1q52 0 81 14.5t29 36.5q0 56 -28 115t-84.5 108.5t-141.5 77.5l45 100q98 -34 163.5 -96t98.5 -139t33 -158q0 -90 -51.5 -135.5t-140.5 -45.5q-38 0 -77 11
t-73 27q-99 -38 -192 -38q-22 0 -50.5 2t-48.5 6l-26 125q26 -4 60 -7t65 -3q46 0 78 2q-17 23 -25 47.5t-8 49.5zM271 226q0 -51 73 -82q39 14 57 35t18 47q0 32 -21 53t-53 21q-30 0 -52 -21t-22 -53z" />
    <glyph glyph-name="uni06C0" unicode="&#x6c0;" horiz-adv-x="450" arabic-form="isolated" 
d="M359.5 39q-48.5 -47 -134.5 -47q-88 0 -136 45.5t-48 132.5q0 69 25 126.5t67 92.5t92 35q51 0 92.5 -34.5t66 -93t24.5 -131.5q0 -79 -48.5 -126zM293 265.5q-27 40.5 -68 40.5q-26 0 -48 -16.5t-35 -43.5t-13 -59q0 -80 96 -80q39 0 67 16.5t28 38.5q0 63 -27 103.5z
M152 597q0 34 23 57.5t57 23.5q39 0 61 -32l-22 -32q-8 5 -16.5 7.5t-17.5 2.5q-16 0 -27 -8t-11 -20q0 -14 15.5 -23t40.5 -12q34 7 64 8l-8 -57q-42 -3 -81 -10t-79 -20l-17 44q22 9 48 17q-30 21 -30 54z" />
    <glyph glyph-name="uni06C1" unicode="&#x6c1;" horiz-adv-x="450" arabic-form="isolated" 
d="M359.5 39q-48.5 -47 -134.5 -47q-88 0 -136 45.5t-48 132.5q0 69 25 126.5t67 92.5t92 35q51 0 92.5 -34.5t66 -93t24.5 -131.5q0 -79 -48.5 -126zM293 265.5q-27 40.5 -68 40.5q-26 0 -48 -16.5t-35 -43.5t-13 -59q0 -80 96 -80q39 0 67 16.5t28 38.5q0 63 -27 103.5z
" />
    <glyph glyph-name="uni06C2.fina" unicode="&#x6c2;" horiz-adv-x="552" 
d="M460 158q16 -20 37.5 -27.5t54.5 -7.5l16 -10v-103l-16 -10q-55 0 -90.5 12t-60 42.5t-48.5 83.5q-16 38 -28.5 51t-35.5 13q-24 0 -59 -13t-73.5 -36t-74.5 -54l-46 77q36 42 83.5 75.5t96 53.5t86.5 20q47 0 74.5 -26t52.5 -84q15 -37 31 -57zM173 496q0 34 23 57.5
t57 23.5q39 0 61 -32l-22 -32q-8 5 -16.5 7.5t-17.5 2.5q-16 0 -27 -8t-11 -20q0 -14 15.5 -23t40.5 -12q34 7 64 8l-8 -57q-42 -3 -81 -10t-79 -20l-17 44q22 9 48 17q-30 21 -30 54z" />
    <glyph glyph-name="uni06C3.fina" unicode="&#x6c3;" horiz-adv-x="552" 
d="M460 158q16 -20 37.5 -27.5t54.5 -7.5l16 -10v-103l-16 -10q-55 0 -90.5 12t-60 42.5t-48.5 83.5q-16 38 -28.5 51t-35.5 13q-24 0 -59 -13t-73.5 -36t-74.5 -54l-46 77q36 42 83.5 75.5t96 53.5t86.5 20q47 0 74.5 -26t52.5 -84q15 -37 31 -57zM174 534l71 -72l-71 -71
l-70 71zM318 534l70 -72l-70 -71l-71 71z" />
    <glyph glyph-name="uni06CC" unicode="&#x6cc;" horiz-adv-x="682" arabic-form="isolated" 
d="M395 242q0 -22 15.5 -34t61.5 -26l64 -20q53 -16 78.5 -42.5t25.5 -70.5q0 -73 -45 -130t-122 -89.5t-173 -32.5q-77 0 -136 28.5t-91.5 82t-32.5 126.5q0 56 21.5 116.5t59.5 109.5l69 -43q-49 -82 -49 -154q0 -65 46.5 -103.5t128.5 -38.5q62 0 111.5 15.5t78.5 39.5
t29 52q0 11 -10.5 18t-42.5 17l-67 21q-54 17 -81 49.5t-27 90.5q0 52 25 96.5t65.5 72.5t87.5 28q48 0 86 -29.5t60 -80.5l-61 -47q-35 48 -89 48q-35 0 -60.5 -21.5t-25.5 -48.5z" />
    <glyph glyph-name="uni06D2" unicode="&#x6d2;" horiz-adv-x="648" arabic-form="isolated" 
d="M35 142q0 34 22 75t58.5 81t80.5 73.5t88.5 54t81.5 20.5q38 0 61.5 -37t28.5 -104l-75 -24q-6 23 -13 32t-19 9q-20 0 -47 -11.5t-55 -29.5t-52.5 -39.5t-39.5 -41.5t-15 -35q0 -26 51.5 -39t157.5 -13q29 0 68 1.5t79.5 4.5t74.5 6.5t53 6.5l-24 -123q-29 -4 -72.5 -8
t-92 -6.5t-92.5 -2.5q-161 0 -234.5 36.5t-73.5 113.5z" />
    <glyph glyph-name="uni06D3" unicode="&#x6d3;" horiz-adv-x="648" arabic-form="isolated" 
d="M35 142q0 34 22 75t58.5 81t80.5 73.5t88.5 54t81.5 20.5q38 0 61.5 -37t28.5 -104l-75 -24q-6 23 -13 32t-19 9q-20 0 -47 -11.5t-55 -29.5t-52.5 -39.5t-39.5 -41.5t-15 -35q0 -26 51.5 -39t157.5 -13q29 0 68 1.5t79.5 4.5t74.5 6.5t53 6.5l-24 -123q-29 -4 -72.5 -8
t-92 -6.5t-92.5 -2.5q-161 0 -234.5 36.5t-73.5 113.5zM252 618q0 34 23 57.5t57 23.5q39 0 61 -32l-22 -32q-8 5 -16.5 7.5t-17.5 2.5q-16 0 -27 -8t-11 -20q0 -14 15.5 -23t40.5 -12q34 7 64 8l-8 -57q-42 -3 -81 -10t-79 -20l-17 44q22 9 48 17q-30 21 -30 54z" />
    <glyph glyph-name="uni06D5.fina" unicode="&#x6d5;" horiz-adv-x="469" 
d="M31 230q0 80 67.5 138.5t192.5 87.5l-1 58l101 18l-4 -342q-1 -37 18.5 -52t63.5 -15l16 -10v-103l-16 -10q-70 0 -113.5 26.5t-55.5 80.5q-44 -27 -102 -27q-46 0 -84 17.5t-60.5 51.5t-22.5 81zM119 251q0 -29 28.5 -42t68.5 -13q41 0 79 13l-2 141q-48 -6 -87.5 -20
t-63 -34t-23.5 -45z" />
    <glyph glyph-name="uniFB51" unicode="&#x671;" horiz-adv-x="244" arabic-form="final" 
d="M178 138.5q21 -15.5 66 -15.5l16 -10v-103l-16 -10q-180 0 -182 152l-5 482l105 19l-5 -462q0 -37 21 -52.5zM226 811q0 -83 -122 -83q-30 0 -52.5 1t-42.5 3l-13 57q14 -2 27.5 -3.5t27.5 -2.5q48 110 108 110q29 0 48 -23.5t19 -58.5zM185 812q0 12 -8 19.5t-20 7.5
q-31 0 -60 -57h12q76 0 76 30z" />
    <glyph glyph-name="uniFB57" unicode="&#x67e;" horiz-adv-x="860" arabic-form="final" 
d="M39 188q0 45 17.5 98t45.5 100l74 -36q-32 -69 -32 -122q0 -61 57 -86.5t189 -25.5q95 0 150.5 6.5t81.5 24t32 49.5q4 18 9.5 51t8.5 58l92 -12q-5 -40 -9 -74.5t-4 -42.5q0 -27 26 -40t83 -13l16 -10v-103l-16 -10q-57 0 -97 16t-64 57q-38 -49 -119 -65.5t-190 -16.5
q-182 0 -266.5 47.5t-84.5 149.5zM248 -142l69 70l71 -70l-71 -70zM461 -72l69 -70l-69 -70l-71 70zM389 -347l-69 69l69 69l69 -69z" />
    <glyph glyph-name="uniFB58" unicode="&#x67e;" horiz-adv-x="284" arabic-form="initial" 
d="M-16 113l16 10q64 0 104.5 15.5t40.5 37.5t-8.5 54t-23 68.5t-33.5 68.5l99 54q18 -32 32 -74.5t21.5 -84t7.5 -72.5q0 -100 -59.5 -145t-180.5 -45l-16 10v103zM-25 -142l69 70l71 -70l-71 -70zM188 -72l69 -70l-69 -70l-71 70zM116 -347l-69 69l69 69l69 -69z" />
    <glyph glyph-name="uniFB59" unicode="&#x67e;" horiz-adv-x="336" arabic-form="medial" 
d="M-16 113l16 10q62 0 90.5 13.5t34.5 44.5q5 22 11 59t10 65l92 -12q-5 -40 -9 -74.5t-4 -42.5q0 -27 26.5 -40t84.5 -13l16 -10v-103l-16 -10q-61 0 -99 16.5t-60 52.5q-50 -69 -177 -69l-16 10v103zM8 -142l69 70l71 -70l-71 -70zM221 -72l69 -70l-69 -70l-71 70z
M149 -347l-69 69l69 69l69 -69z" />
    <glyph glyph-name="uniFB67" unicode="&#x679;" horiz-adv-x="860" arabic-form="final" 
d="M39 188q0 45 17.5 98t45.5 100l74 -36q-32 -69 -32 -122q0 -61 57 -86.5t189 -25.5q95 0 150.5 6.5t81.5 24t32 49.5q4 18 9.5 51t8.5 58l92 -12q-5 -40 -9 -74.5t-4 -42.5q0 -27 26 -40t83 -13l16 -10v-103l-16 -10q-57 0 -97 16t-64 57q-38 -49 -119 -65.5t-190 -16.5
q-182 0 -266.5 47.5t-84.5 149.5zM531 490q0 -83 -122 -83q-28 0 -51.5 1t-43.5 3l-13 57q29 -4 56 -6l-5 184l50 9l-3 -135q30 52 65 52q29 0 48 -23.5t19 -58.5zM490 491q0 12 -8 19.5t-20 7.5q-31 0 -60 -57h12q76 0 76 30z" />
    <glyph glyph-name="uniFB68" unicode="&#x679;" horiz-adv-x="284" arabic-form="initial" 
d="M-16 113l16 10q64 0 104.5 15.5t40.5 37.5t-8.5 54t-23 68.5t-33.5 68.5l99 54q18 -32 32 -74.5t21.5 -84t7.5 -72.5q0 -100 -59.5 -145t-180.5 -45l-16 10v103zM235 574q0 -83 -122 -83q-28 0 -51.5 1t-43.5 3l-13 57q29 -4 56 -6l-5 184l50 9l-3 -135q30 52 65 52
q29 0 48 -23.5t19 -58.5zM194 575q0 12 -8 19.5t-20 7.5q-31 0 -60 -57h12q76 0 76 30z" />
    <glyph glyph-name="uniFB69" unicode="&#x679;" horiz-adv-x="336" arabic-form="medial" 
d="M-16 113l16 10q62 0 90.5 13.5t34.5 44.5q5 22 11 59t10 65l92 -12q-5 -40 -9 -74.5t-4 -42.5q0 -27 26.5 -40t84.5 -13l16 -10v-103l-16 -10q-61 0 -99 16.5t-60 52.5q-50 -69 -177 -69l-16 10v103zM311 462q0 -83 -122 -83q-28 0 -51.5 1t-43.5 3l-13 57q29 -4 56 -6
l-5 184l50 9l-3 -135q30 52 65 52q29 0 48 -23.5t19 -58.5zM270 463q0 12 -8 19.5t-20 7.5q-31 0 -60 -57h12q76 0 76 30z" />
    <glyph glyph-name="uniFB6B" unicode="&#x6a4;" horiz-adv-x="828" arabic-form="final" 
d="M39 188q0 45 17.5 98t45.5 100l71 -35q-32 -69 -32 -123q0 -59 56.5 -85.5t192.5 -26.5q25 0 48 1t44 3q-40 47 -40 112q0 54 23 97.5t61.5 69t83.5 25.5t83 -25.5t61 -69t23 -97.5q0 -33 -10 -59.5t-27 -47.5q22 -1 44 -1.5t44 -0.5l16 -10v-103l-16 -10q-50 0 -106 7.5
t-110 28.5q-50 -21 -108.5 -33t-115.5 -12q-181 0 -265 48.5t-84 148.5zM527 230q0 -28 20 -51t63 -37q82 29 82 88q0 36 -23.5 60t-58.5 24t-59 -24t-24 -60zM470 560l69 70l71 -70l-71 -70zM683 630l69 -70l-69 -70l-71 70zM611 765l69 -69l-69 -69l-69 69z" />
    <glyph glyph-name="uniFB6C" unicode="&#x6a4;" horiz-adv-x="425" arabic-form="initial" 
d="M36 341q0 58 22.5 103t59 71.5t79.5 26.5q86 0 128.5 -86.5t42.5 -247.5q0 -76 -17 -117.5t-64 -61.5q-40 -17 -98.5 -23t-160.5 -6h-28l-16 10v103l16 10h28q137 0 195.5 9.5t58.5 32.5v44v6q-44 -29 -97 -29q-70 0 -109.5 41.5t-39.5 113.5zM117 347q0 -66 76 -66
q50 0 85 22q-8 73 -29 101t-54 28q-34 0 -56 -24.5t-22 -60.5zM55 679l69 70l71 -70l-71 -70zM268 749l69 -70l-69 -70l-71 70zM196 884l69 -69l-69 -69l-69 69z" />
    <glyph glyph-name="uniFB6D" unicode="&#x6a4;" horiz-adv-x="436" arabic-form="medial" 
d="M-16 113l16 10q22 0 43.5 0.5t42.5 1.5q-17 22 -26.5 48t-9.5 59q0 54 23 97.5t61.5 69t83.5 25.5t83 -25.5t61 -69t23 -97.5q0 -34 -10 -60.5t-26 -46.5q25 -1 48.5 -1.5t38.5 -0.5l16 -10v-103l-16 -10q-53 0 -109 8.5t-109 29.5q-55 -22 -111.5 -30t-106.5 -8l-16 10
v103zM135 230q0 -57 82 -87q34 10 58.5 31t24.5 56q0 36 -23.5 60t-58.5 24t-59 -24t-24 -60zM77 560l69 70l71 -70l-71 -70zM290 630l69 -70l-69 -70l-71 70zM218 765l69 -69l-69 -69l-69 69z" />
    <glyph glyph-name="uniFB7B" unicode="&#x686;" horiz-adv-x="627" arabic-form="final" 
d="M457 181v17q-143 -45 -218 -106t-75 -131q0 -64 55.5 -102t152.5 -38q50 0 100 10t84 26l35 -73q-44 -41 -108 -64t-133 -23q-85 0 -149.5 30t-100.5 84t-36 124q0 101 76.5 185t222.5 134q-26 5 -44 10q-49 14 -80.5 20t-50.5 6q-23 0 -41 -9t-38 -32l-61 48
q29 53 65.5 79.5t86.5 26.5q32 0 73 -8.5t109 -28.5q50 -14 87.5 -21.5t64.5 -7.5h22v-113q-19 -4 -37 -9v-10q0 -41 23.5 -61.5t84.5 -20.5l16 -10v-103l-16 -10q-79 0 -124.5 46t-45.5 135zM377 39l49 51l52 -52l-52 -51l-49 50l-49 -50l-52 51l52 52zM326 -62l51 52
l51 -52l-51 -51z" />
    <glyph glyph-name="uniFB7C" unicode="&#x686;" horiz-adv-x="567" arabic-form="initial" 
d="M514 199q-30 -9 -57 -20t-61.5 -29.5t-86.5 -49.5q-66 -39 -116 -61t-95.5 -30.5t-97.5 -8.5l-16 10v103l16 10q65 0 123.5 14t130.5 48q29 13 55.5 23.5t51.5 18.5q-21 8 -47 19q-54 23 -88.5 33.5t-58.5 10.5t-42 -9t-38 -32l-61 48q30 54 67 80t87 26q21 0 42 -4
t51 -15t76 -31q56 -25 85 -33.5t56 -8.5h24v-112zM112 -122l69 70l71 -70l-71 -70zM325 -52l69 -70l-69 -70l-71 70zM253 -327l-69 69l69 69l69 -69z" />
    <glyph glyph-name="uniFB7D" unicode="&#x686;" horiz-adv-x="580" arabic-form="medial" 
d="M514 199q-21 -6 -39 -13q2 -36 25.5 -49.5t79.5 -13.5l16 -10v-103l-16 -10q-154 0 -160 162q-40 -20 -111 -62q-66 -39 -116 -61t-95.5 -30.5t-97.5 -8.5l-16 10v103l16 10q65 0 123.5 14t130.5 48q29 13 55.5 23.5t51.5 18.5q-21 8 -47 19q-54 23 -88.5 33.5
t-58.5 10.5t-42 -9t-38 -32l-61 48q30 54 67 80t87 26q21 0 42 -4t51 -15t76 -31q56 -25 85 -33.5t56 -8.5h24v-112zM112 -122l69 70l71 -70l-71 -70zM325 -52l69 -70l-69 -70l-71 70zM253 -327l-69 69l69 69l69 -69z" />
    <glyph glyph-name="uniFB89" unicode="&#x688;" horiz-adv-x="489" arabic-form="final" 
d="M24 126q32 -4 66.5 -7.5t63.5 -3.5q87 0 142 19q-21 44 -47 108t-58 154l103 49q26 -75 51 -144.5t47 -121.5q14 -34 34 -45t63 -11l16 -10v-103l-16 -10q-84 0 -131 42q-29 -26 -75.5 -38t-118.5 -12q-28 0 -59.5 2.5t-54.5 6.5zM343 596q0 -83 -122 -83q-28 0 -51.5 1
t-43.5 3l-13 57q29 -4 56 -6l-5 184l50 9l-3 -135q30 52 65 52q29 0 48 -23.5t19 -58.5zM302 597q0 12 -8 19.5t-20 7.5q-31 0 -60 -57h12q76 0 76 30z" />
    <glyph glyph-name="uniFB8B" unicode="&#x698;" horiz-adv-x="423" arabic-form="final" 
d="M239 99q-14 27 -29 66t-34 96l101 47q13 -40 24.5 -74t17.5 -50q14 -36 36 -48.5t68 -12.5l16 -10v-103l-16 -10q-31 0 -58 5.5t-52 19.5q-28 -80 -98.5 -138t-172.5 -93l-62 107q111 41 178.5 93.5t80.5 104.5zM63 445l69 70l71 -70l-71 -70zM276 515l69 -70l-69 -70
l-71 70zM204 650l69 -69l-69 -69l-69 69z" />
    <glyph glyph-name="uniFB8D" unicode="&#x691;" horiz-adv-x="423" arabic-form="final" 
d="M239 99q-14 27 -29 66t-34 96l101 47q13 -40 24.5 -74t17.5 -50q14 -36 36 -48.5t68 -12.5l16 -10v-103l-16 -10q-31 0 -58 5.5t-52 19.5q-28 -80 -98.5 -138t-172.5 -93l-62 107q111 41 178.5 93.5t80.5 104.5zM319 459q0 -83 -122 -83q-28 0 -51.5 1t-43.5 3l-13 57
q29 -4 56 -6l-5 184l50 9l-3 -135q30 52 65 52q29 0 48 -23.5t19 -58.5zM278 460q0 12 -8 19.5t-20 7.5q-31 0 -60 -57h12q76 0 76 30z" />
    <glyph glyph-name="uniFB8F" unicode="&#x6a9;" horiz-adv-x="781" arabic-form="final" 
d="M39 188q0 45 17.5 98t45.5 100l74 -36q-32 -69 -32 -122q0 -58 50 -85t148 -27q119 0 189 32l-2 4l-131 242l17 101q89 46 178.5 87t172.5 75l20 -107q-71 -26 -137.5 -54t-151.5 -68l120 -223q18 -33 37.5 -51t49.5 -24.5t77 -6.5l16 -10v-103l-16 -10q-66 0 -109 13.5
t-76 44.5q-43 -35 -108.5 -51t-145.5 -16q-303 0 -303 197z" />
    <glyph glyph-name="uniFB90" unicode="&#x6a9;" horiz-adv-x="439" arabic-form="initial" 
d="M-16 113l16 10q41 0 81.5 4t74 10.5t53.5 15t20 17.5q0 26 -23.5 63t-67 79t-104.5 82l17 101q90 47 179.5 87.5t171.5 74.5l21 -107q-67 -25 -130 -51t-140 -62q82 -70 127 -141.5t45 -135.5q0 -75 -78.5 -117.5t-246.5 -42.5l-16 10v103z" />
    <glyph glyph-name="uniFB91" unicode="&#x6a9;" horiz-adv-x="417" arabic-form="medial" 
d="M-16 113l16 10q51 0 92 6t74 20l-132 245l17 101q89 46 178.5 87t172.5 75l20 -107q-71 -26 -138 -54t-151 -67l120 -224q18 -33 37.5 -51t49.5 -24.5t77 -6.5l16 -10v-103l-16 -10q-66 0 -110 13.5t-76 44.5q-37 -28 -92 -43t-139 -15l-16 10v103z" />
    <glyph glyph-name="uniFB93" unicode="&#x6af;" horiz-adv-x="781" arabic-form="final" 
d="M39 188q0 45 17.5 98t45.5 100l74 -36q-32 -69 -32 -122q0 -58 50 -85t148 -27q119 0 189 32l-2 4l-131 242l17 101q89 46 178.5 87t172.5 75l20 -107q-71 -26 -137.5 -54t-151.5 -68l120 -223q18 -33 37.5 -51t49.5 -24.5t77 -6.5l16 -10v-103l-16 -10q-66 0 -109 13.5
t-76 44.5q-43 -35 -108.5 -51t-145.5 -16q-303 0 -303 197zM701 696q-70 -34 -139.5 -64.5t-135.5 -54.5v58q68 25 134.5 54t140.5 65v-58z" />
    <glyph glyph-name="uniFB94" unicode="&#x6af;" horiz-adv-x="439" arabic-form="initial" 
d="M-16 113l16 10q41 0 81.5 4t74 10.5t53.5 15t20 17.5q0 26 -23.5 63t-67 79t-104.5 82l17 101q90 47 179.5 87.5t171.5 74.5l21 -107q-67 -25 -130 -51t-140 -62q82 -70 127 -141.5t45 -135.5q0 -75 -78.5 -117.5t-246.5 -42.5l-16 10v103zM334 696q-70 -34 -139.5 -64.5
t-135.5 -54.5v58q68 25 134.5 54t140.5 65v-58z" />
    <glyph glyph-name="uniFB95" unicode="&#x6af;" horiz-adv-x="417" arabic-form="medial" 
d="M-16 113l16 10q51 0 92 6t74 20l-132 245l17 101q89 46 178.5 87t172.5 75l20 -107q-71 -26 -138 -54t-151 -67l120 -224q18 -33 37.5 -51t49.5 -24.5t77 -6.5l16 -10v-103l-16 -10q-66 0 -110 13.5t-76 44.5q-37 -28 -92 -43t-139 -15l-16 10v103zM333 696
q-70 -34 -139.5 -64.5t-135.5 -54.5v58q68 25 134.5 54t140.5 65v-58z" />
    <glyph glyph-name="uniFB9F" unicode="&#x6ba;" horiz-adv-x="651" arabic-form="final" 
d="M40 34q0 56 21.5 116.5t59.5 109.5l69 -43q-49 -82 -49 -154q0 -65 44.5 -103.5t123.5 -38.5q49 0 87.5 14t61.5 37t23 50q0 37 -17.5 95.5t-51.5 131.5l97 54q15 -33 28.5 -72t22.5 -78q22 -30 91 -30l16 -10v-103l-16 -10q-41 0 -75 12q-6 -64 -41 -112.5t-93.5 -75.5
t-132.5 -27q-124 0 -196.5 64t-72.5 173z" />
    <glyph glyph-name="uniFBA5" unicode="&#x6c0;" horiz-adv-x="469" arabic-form="final" 
d="M31 230q0 80 67.5 138.5t192.5 87.5l-1 58l101 18l-4 -342q-1 -37 18.5 -52t63.5 -15l16 -10v-103l-16 -10q-70 0 -113.5 26.5t-55.5 80.5q-44 -27 -102 -27q-46 0 -84 17.5t-60.5 51.5t-22.5 81zM119 251q0 -29 28.5 -42t68.5 -13q41 0 79 13l-2 141q-48 -6 -87.5 -20
t-63 -34t-23.5 -45zM156 693q0 34 23 57.5t57 23.5q39 0 61 -32l-22 -32q-8 5 -16.5 7.5t-17.5 2.5q-16 0 -27 -8t-11 -20q0 -14 15.5 -23t40.5 -12q34 7 64 8l-8 -57q-42 -3 -81 -10t-79 -20l-17 44q22 9 48 17q-30 21 -30 54z" />
    <glyph glyph-name="uniFBA7" unicode="&#x6c1;" horiz-adv-x="552" arabic-form="final" 
d="M460 158q16 -20 37.5 -27.5t54.5 -7.5l16 -10v-103l-16 -10q-55 0 -90.5 12t-60 42.5t-48.5 83.5q-16 38 -28.5 51t-35.5 13q-24 0 -59 -13t-73.5 -36t-74.5 -54l-46 77q36 42 83.5 75.5t96 53.5t86.5 20q47 0 74.5 -26t52.5 -84q15 -37 31 -57z" />
    <glyph glyph-name="uniFBA8" unicode="&#x6c1;" horiz-adv-x="287" arabic-form="initial" 
d="M50 -228q0 38 27.5 80t73.5 76l32 -29q-25 -25 -41 -51.5t-16 -41.5q0 -11 13 -27t41 -42l-66 -63q-64 49 -64 98zM-16 113l16 10q64 0 104.5 15.5t40.5 37.5t-8.5 54t-23 68.5t-33.5 68.5l99 54q18 -32 32 -74.5t21.5 -84t7.5 -72.5q0 -100 -59.5 -145t-180.5 -45
l-16 10v103z" />
    <glyph glyph-name="uniFBA9" unicode="&#x6c1;" horiz-adv-x="506" arabic-form="medial" 
d="M382 -58q0 -26 10.5 -61t29.5 -64l-54 -62q-69 13 -123.5 52t-89.5 95.5t-45 124.5q-22 -14 -48 -20.5t-51 -6.5h-11l-16 10v103l16 10q40 0 64.5 10t42 35.5t34.5 69.5l87 -28q-14 -37 -20 -66t-6 -58q0 -58 25.5 -108t79.5 -86q-4 16 -5.5 31.5t-1.5 29.5
q0 75 38 122.5t111 47.5h57l16 -10v-103l-16 -10h-75q-25 0 -37 -15.5t-12 -42.5z" />
    <glyph glyph-name="uniFBAB" unicode="&#x6be;" horiz-adv-x="590" arabic-form="final" 
d="M538 223q0 -30 -7.5 -54.5t-20.5 -45.5h80l16 -10v-103l-16 -10h-46q10 -17 14 -34.5t4 -34.5q0 -63 -45.5 -103t-118.5 -40q-78 0 -133.5 55.5t-68.5 157.5q-20 -1 -41 -1h-8q-22 0 -50 2t-48 6l-26 125q26 -4 59.5 -7t64.5 -3h9h40q9 61 29.5 115.5t49.5 96t61.5 65.5
t64.5 24q35 0 66 -29t51 -74.5t20 -97.5zM455 220q0 34 -18.5 60.5t-41.5 26.5q-24 0 -47.5 -24.5t-41.5 -65.5t-26 -91q83 6 129 26.5t46 67.5zM476 -44q0 61 -82 81q-26 -10 -54 -17t-58 -11q10 -44 38 -76t82 -32q34 0 54 15.5t20 39.5z" />
    <glyph glyph-name="uniFBAC" unicode="&#x6be;" horiz-adv-x="572" arabic-form="initial" 
d="M-16 113l16 10q48 0 79 2q-17 23 -25 47.5t-8 49.5q0 50 20.5 90.5t55 64.5t75.5 24q42 0 76 -23.5t54.5 -64t20.5 -90.5q0 -31 -9 -56t-23 -45h21q53 0 82.5 14.5t29.5 36.5q0 56 -28.5 115t-85 108.5t-141.5 77.5l45 100q98 -34 163.5 -96t98.5 -139.5t33 -158.5
q0 -89 -51.5 -134.5t-140.5 -45.5q-38 0 -77 11t-73 27q-98 -38 -192 -38l-16 10v103zM271 226q0 32 -21 53t-53 21q-30 0 -52 -21t-22 -53q0 -51 73 -82q39 14 57 35t18 47z" />
    <glyph glyph-name="uniFBAD" unicode="&#x6be;" horiz-adv-x="443" arabic-form="medial" 
d="M-16 113l16 10h9h40q9 61 29.5 115.5t49.5 96t61.5 65.5t64.5 24q35 0 66 -29t51 -74.5t20 -97.5q0 -30 -7.5 -54.5t-20.5 -45.5h80l16 -10v-103l-16 -10h-46q11 -17 14.5 -34.5t3.5 -34.5q0 -63 -45.5 -103t-118.5 -40q-78 0 -133.5 55.5t-68.5 157.5q-20 -1 -41 -1h-8
l-16 10v103zM308 220q0 34 -18.5 60.5t-41.5 26.5q-24 0 -47.5 -24.5t-41.5 -65.5t-26 -91q83 6 129 26.5t46 67.5zM329 -44q0 61 -82 81q-26 -10 -54 -17t-58 -11q10 -44 38 -76t82 -32q34 0 54 15.5t20 39.5z" />
    <glyph glyph-name="uniFBAF" unicode="&#x6d2;" horiz-adv-x="564" arabic-form="final" 
d="M96 -71q0 -34 47.5 -49t161.5 -15q25 0 58 1.5t66.5 4t59.5 5.5l-26 -121q-32 -4 -77.5 -6.5t-80.5 -2.5q-90 0 -157.5 16.5t-104.5 55t-37 105.5q0 95 80.5 147.5t219.5 52.5h258l16 -10v-103l-16 -10h-321q-72 0 -109.5 -19t-37.5 -52z" />
    <glyph glyph-name="uniFBB1" unicode="&#x6d3;" horiz-adv-x="564" arabic-form="final" 
d="M96 -71q0 -34 47.5 -49t161.5 -15q25 0 58 1.5t66.5 4t59.5 5.5l-26 -121q-32 -4 -77.5 -6.5t-80.5 -2.5q-90 0 -157.5 16.5t-104.5 55t-37 105.5q0 95 80.5 147.5t219.5 52.5h258l16 -10v-103l-16 -10h-321q-72 0 -109.5 -19t-37.5 -52zM207 298q0 34 23 57.5t57 23.5
q39 0 61 -32l-22 -32q-8 5 -16.5 7.5t-17.5 2.5q-16 0 -27 -8t-11 -20q0 -14 15.5 -23t40.5 -12q34 7 64 8l-8 -57q-42 -3 -81 -10t-79 -20l-17 44q22 9 48 17q-30 21 -30 54z" />
    <glyph glyph-name="uniFBE8" unicode="&#x649;" horiz-adv-x="284" arabic-form="initial" 
d="M-16 113l16 10q64 0 104.5 15.5t40.5 37.5t-8.5 54t-23 68.5t-33.5 68.5l99 54q18 -32 32 -74.5t21.5 -84t7.5 -72.5q0 -100 -59.5 -145t-180.5 -45l-16 10v103z" />
    <glyph glyph-name="uniFBE9" unicode="&#x649;" horiz-adv-x="336" arabic-form="medial" 
d="M-16 113l16 10q62 0 90.5 13.5t34.5 44.5q5 22 11 59t10 65l92 -12q-5 -40 -9 -74.5t-4 -42.5q0 -27 26.5 -40t84.5 -13l16 -10v-103l-16 -10q-61 0 -99 16.5t-60 52.5q-50 -69 -177 -69l-16 10v103z" />
    <glyph glyph-name="uniFBFD" unicode="&#x6cc;" horiz-adv-x="656" arabic-form="final" 
d="M595 -16q0 -45 -37.5 -88t-103.5 -71t-154 -28q-77 0 -136 28.5t-91.5 82t-32.5 126.5q0 56 21.5 116.5t59.5 109.5l69 -43q-49 -82 -49 -154q0 -65 46.5 -103.5t128.5 -38.5q58 0 101.5 13.5t67.5 34t24 42.5q0 9 -7.5 23t-27.5 39t-56 67l79 67q38 -49 74 -66.5
t85 -17.5l16 -10v-103l-16 -10q-15 0 -31 2.5t-33 8.5q3 -15 3 -27z" />
    <glyph glyph-name="uniFBFE" unicode="&#x6cc;" horiz-adv-x="284" arabic-form="initial" 
d="M-16 113l16 10q64 0 104.5 15.5t40.5 37.5t-8.5 54t-23 68.5t-33.5 68.5l99 54q18 -32 32 -74.5t21.5 -84t7.5 -72.5q0 -100 -59.5 -145t-180.5 -45l-16 10v103zM-26 -143l70 71l71 -71l-71 -71zM188 -72l70 -71l-70 -71l-71 71z" />
    <glyph glyph-name="uniFBFF" unicode="&#x6cc;" horiz-adv-x="336" arabic-form="medial" 
d="M-16 113l16 10q62 0 90.5 13.5t34.5 44.5q5 22 11 59t10 65l92 -12q-5 -40 -9 -74.5t-4 -42.5q0 -27 26.5 -40t84.5 -13l16 -10v-103l-16 -10q-61 0 -99 16.5t-60 52.5q-50 -69 -177 -69l-16 10v103zM7 -143l70 71l71 -71l-71 -71zM221 -72l70 -71l-70 -71l-71 71z" />
    <glyph glyph-name="yehHamzaabove_uni0649" unicode="&#xfc03;" horiz-adv-x="672" arabic-form="isolated" 
d="M627 246q0 -79 -84 -118q84 -51 84 -109t-40.5 -108.5t-113.5 -82t-170 -31.5q-78 0 -137.5 28.5t-92.5 82t-33 126.5q0 56 21.5 116.5t59.5 109.5l69 -43q-49 -82 -49 -154q0 -65 47 -103.5t128 -38.5q67 0 115 16t73.5 37.5t25.5 38.5q0 9 -12.5 19.5t-46.5 26
t-99 37.5l25 95q62 0 97.5 9.5t35.5 26.5t-14 56t-37 84l98 54q23 -47 36.5 -96.5t13.5 -78.5zM445 595q0 34 23 57.5t57 23.5q39 0 61 -32l-22 -32q-8 5 -16.5 7.5t-17.5 2.5q-16 0 -27 -8t-11 -20q0 -14 15.5 -23t40.5 -12q34 7 64 8l-8 -57q-42 -3 -81 -10t-79 -20
l-17 44q22 9 48 17q-30 21 -30 54z" />
    <glyph glyph-name="yehHamzaabove_uni064A" unicode="&#xfc04;" horiz-adv-x="672" arabic-form="isolated" 
d="M627 246q0 -79 -84 -118q84 -51 84 -109t-40.5 -108.5t-113.5 -82t-170 -31.5q-78 0 -137.5 28.5t-92.5 82t-33 126.5q0 56 21.5 116.5t59.5 109.5l69 -43q-49 -82 -49 -154q0 -65 47 -103.5t128 -38.5q67 0 115 16t73.5 37.5t25.5 38.5q0 9 -12.5 19.5t-46.5 26
t-99 37.5l25 95q62 0 97.5 9.5t35.5 26.5t-14 56t-37 84l98 54q23 -47 36.5 -96.5t13.5 -78.5zM445 595q0 34 23 57.5t57 23.5q39 0 61 -32l-22 -32q-8 5 -16.5 7.5t-17.5 2.5q-16 0 -27 -8t-11 -20q0 -14 15.5 -23t40.5 -12q34 7 64 8l-8 -57q-42 -3 -81 -10t-79 -20
l-17 44q22 9 48 17q-30 21 -30 54zM161 -346l70 71l71 -71l-71 -71zM375 -275l70 -71l-70 -71l-71 71z" />
    <glyph glyph-name="uniFC09" unicode="&#xfc09;" horiz-adv-x="672" arabic-form="isolated" 
d="M627 246q0 -79 -84 -118q84 -51 84 -109t-40.5 -108.5t-113.5 -82t-170 -31.5q-78 0 -137.5 28.5t-92.5 82t-33 126.5q0 56 21.5 116.5t59.5 109.5l69 -43q-49 -82 -49 -154q0 -65 47 -103.5t128 -38.5q67 0 115 16t73.5 37.5t25.5 38.5q0 9 -12.5 19.5t-46.5 26
t-99 37.5l25 95q62 0 97.5 9.5t35.5 26.5t-14 56t-37 84l98 54q23 -47 36.5 -96.5t13.5 -78.5zM640 -327l-72 73l72 72l72 -72z" />
    <glyph glyph-name="beh_uni064A" unicode="&#xfc0a;" horiz-adv-x="672" arabic-form="isolated" 
d="M627 246q0 -79 -84 -118q84 -51 84 -109t-40.5 -108.5t-113.5 -82t-170 -31.5q-78 0 -137.5 28.5t-92.5 82t-33 126.5q0 56 21.5 116.5t59.5 109.5l69 -43q-49 -82 -49 -154q0 -65 47 -103.5t128 -38.5q67 0 115 16t73.5 37.5t25.5 38.5q0 9 -12.5 19.5t-46.5 26
t-99 37.5l25 95q62 0 97.5 9.5t35.5 26.5t-14 56t-37 84l98 54q23 -47 36.5 -96.5t13.5 -78.5zM640 -327l-72 73l72 72l72 -72zM161 -346l70 71l71 -71l-71 -71zM375 -275l70 -71l-70 -71l-71 71z" />
    <glyph glyph-name="teh_uni0649" unicode="&#xfc0f;" horiz-adv-x="672" arabic-form="isolated" 
d="M627 246q0 -79 -84 -118q84 -51 84 -109t-40.5 -108.5t-113.5 -82t-170 -31.5q-78 0 -137.5 28.5t-92.5 82t-33 126.5q0 56 21.5 116.5t59.5 109.5l69 -43q-49 -82 -49 -154q0 -65 47 -103.5t128 -38.5q67 0 115 16t73.5 37.5t25.5 38.5q0 9 -12.5 19.5t-46.5 26
t-99 37.5l25 95q62 0 97.5 9.5t35.5 26.5t-14 56t-37 84l98 54q23 -47 36.5 -96.5t13.5 -78.5zM446 633l71 -72l-71 -71l-70 71zM590 633l70 -72l-70 -71l-71 71z" />
    <glyph glyph-name="teh_uni064A" unicode="&#xfc10;" horiz-adv-x="672" arabic-form="isolated" 
d="M627 246q0 -79 -84 -118q84 -51 84 -109t-40.5 -108.5t-113.5 -82t-170 -31.5q-78 0 -137.5 28.5t-92.5 82t-33 126.5q0 56 21.5 116.5t59.5 109.5l69 -43q-49 -82 -49 -154q0 -65 47 -103.5t128 -38.5q67 0 115 16t73.5 37.5t25.5 38.5q0 9 -12.5 19.5t-46.5 26
t-99 37.5l25 95q62 0 97.5 9.5t35.5 26.5t-14 56t-37 84l98 54q23 -47 36.5 -96.5t13.5 -78.5zM446 633l71 -72l-71 -71l-70 71zM590 633l70 -72l-70 -71l-71 71zM161 -346l70 71l71 -71l-71 -71zM375 -275l70 -71l-70 -71l-71 71z" />
    <glyph glyph-name="theh_uni0649" unicode="&#xfc13;" horiz-adv-x="672" arabic-form="isolated" 
d="M627 246q0 -79 -84 -118q84 -51 84 -109t-40.5 -108.5t-113.5 -82t-170 -31.5q-78 0 -137.5 28.5t-92.5 82t-33 126.5q0 56 21.5 116.5t59.5 109.5l69 -43q-49 -82 -49 -154q0 -65 47 -103.5t128 -38.5q67 0 115 16t73.5 37.5t25.5 38.5q0 9 -12.5 19.5t-46.5 26
t-99 37.5l25 95q62 0 97.5 9.5t35.5 26.5t-14 56t-37 84l98 54q23 -47 36.5 -96.5t13.5 -78.5zM377 560l69 70l71 -70l-71 -70zM590 630l69 -70l-69 -70l-71 70zM518 765l69 -69l-69 -69l-69 69z" />
    <glyph glyph-name="theh_uni064A" unicode="&#xfc14;" horiz-adv-x="672" arabic-form="isolated" 
d="M627 246q0 -79 -84 -118q84 -51 84 -109t-40.5 -108.5t-113.5 -82t-170 -31.5q-78 0 -137.5 28.5t-92.5 82t-33 126.5q0 56 21.5 116.5t59.5 109.5l69 -43q-49 -82 -49 -154q0 -65 47 -103.5t128 -38.5q67 0 115 16t73.5 37.5t25.5 38.5q0 9 -12.5 19.5t-46.5 26
t-99 37.5l25 95q62 0 97.5 9.5t35.5 26.5t-14 56t-37 84l98 54q23 -47 36.5 -96.5t13.5 -78.5zM377 560l69 70l71 -70l-71 -70zM590 630l69 -70l-69 -70l-71 70zM518 765l69 -69l-69 -69l-69 69zM161 -346l70 71l71 -71l-71 -71zM375 -275l70 -71l-70 -71l-71 71z" />
    <glyph glyph-name="seen_uni0645.fina" unicode="&#xfc1f;" horiz-adv-x="1179" arabic-form="isolated" 
d="M266 151q0 -19 19.5 -36.5t76.5 -44.5l30 -15l-60 -112l-27 15q-37 20 -64.5 28t-54.5 8t-38 -13t-11 -42l-1 -310l-94 -9l-4 321q-1 80 36 124.5t101 44.5h12q-12 24 -12 49q0 33 19.5 67t52.5 62.5t74 46t85 17.5q53 0 86.5 -25.5t62.5 -88.5q23 -50 39.5 -76t32.5 -35
t39 -9q29 0 49.5 15t27.5 52q3 13 6.5 35t7 45t5.5 38l92 -12q-7 -46 -10.5 -77.5t-3.5 -39.5q0 -26 20 -41t55 -15q68 0 80 56q4 18 9 60t7 85l94 -9q-3 -47 -6.5 -86t-8.5 -68q22 -33 89 -33l16 -10v-103l-16 -10q-91 0 -136 46q-47 -46 -136 -46q-81 0 -124 48
q-47 -48 -127 -48q-44 0 -74 15t-53.5 50.5t-49.5 95.5q-18 42 -37 56.5t-48 14.5q-31 0 -60.5 -12.5t-48.5 -31t-19 -37.5z" />
    <glyph glyph-name="uniFC31" unicode="&#xfc31;" horiz-adv-x="688" arabic-form="isolated" 
d="M141 63q0 -65 47 -103.5t128 -38.5q67 0 115 16t73.5 37.5t25.5 38.5q0 9 -12.5 19.5t-46.5 26t-99 37.5l25 95q71 2 109 11.5t38 33.5v39v5q-45 -29 -97 -29q-70 0 -109.5 41.5t-39.5 113.5q0 58 22.5 103t59.5 71t80 26q85 0 127.5 -86.5t42.5 -247.5q0 -52 -14.5 -86
t-52.5 -54q-7 -4 -15 -7q79 -50 79 -106q0 -58 -40.5 -108.5t-113.5 -82t-170 -31.5q-78 0 -137.5 28.5t-92.5 82t-33 126.5q0 56 21.5 116.5t59.5 109.5l69 -43q-49 -82 -49 -154zM379 411q0 -65 76 -65q51 0 85 22q-8 72 -29.5 100.5t-53.5 28.5q-34 0 -56 -25t-22 -61z
M460 674l-72 73l72 73l72 -73z" />
    <glyph glyph-name="uniFC32" unicode="&#xfc32;" horiz-adv-x="688" arabic-form="isolated" 
d="M141 63q0 -65 47 -103.5t128 -38.5q67 0 115 16t73.5 37.5t25.5 38.5q0 9 -12.5 19.5t-46.5 26t-99 37.5l25 95q71 2 109 11.5t38 33.5v39v5q-45 -29 -97 -29q-70 0 -109.5 41.5t-39.5 113.5q0 58 22.5 103t59.5 71t80 26q85 0 127.5 -86.5t42.5 -247.5q0 -52 -14.5 -86
t-52.5 -54q-7 -4 -15 -7q79 -50 79 -106q0 -58 -40.5 -108.5t-113.5 -82t-170 -31.5q-78 0 -137.5 28.5t-92.5 82t-33 126.5q0 56 21.5 116.5t59.5 109.5l69 -43q-49 -82 -49 -154zM379 411q0 -65 76 -65q51 0 85 22q-8 72 -29.5 100.5t-53.5 28.5q-34 0 -56 -25t-22 -61z
M460 674l-72 73l72 73l72 -73zM161 -346l70 71l71 -71l-71 -71zM375 -275l70 -71l-70 -71l-71 71z" />
    <glyph glyph-name="qaf_uni0649" unicode="&#xfc35;" horiz-adv-x="688" arabic-form="isolated" 
d="M141 63q0 -65 47 -103.5t128 -38.5q67 0 115 16t73.5 37.5t25.5 38.5q0 9 -12.5 19.5t-46.5 26t-99 37.5l25 95q71 2 109 11.5t38 33.5v39v5q-45 -29 -97 -29q-70 0 -109.5 41.5t-39.5 113.5q0 58 22.5 103t59.5 71t80 26q85 0 127.5 -86.5t42.5 -247.5q0 -52 -14.5 -86
t-52.5 -54q-7 -4 -15 -7q79 -50 79 -106q0 -58 -40.5 -108.5t-113.5 -82t-170 -31.5q-78 0 -137.5 28.5t-92.5 82t-33 126.5q0 56 21.5 116.5t59.5 109.5l69 -43q-49 -82 -49 -154zM379 411q0 -65 76 -65q51 0 85 22q-8 72 -29.5 100.5t-53.5 28.5q-34 0 -56 -25t-22 -61z
M388 817l71 -72l-71 -71l-70 71zM532 817l70 -72l-70 -71l-71 71z" />
    <glyph glyph-name="qaf_uni064A" unicode="&#xfc36;" horiz-adv-x="688" arabic-form="isolated" 
d="M141 63q0 -65 47 -103.5t128 -38.5q67 0 115 16t73.5 37.5t25.5 38.5q0 9 -12.5 19.5t-46.5 26t-99 37.5l25 95q71 2 109 11.5t38 33.5v39v5q-45 -29 -97 -29q-70 0 -109.5 41.5t-39.5 113.5q0 58 22.5 103t59.5 71t80 26q85 0 127.5 -86.5t42.5 -247.5q0 -52 -14.5 -86
t-52.5 -54q-7 -4 -15 -7q79 -50 79 -106q0 -58 -40.5 -108.5t-113.5 -82t-170 -31.5q-78 0 -137.5 28.5t-92.5 82t-33 126.5q0 56 21.5 116.5t59.5 109.5l69 -43q-49 -82 -49 -154zM379 411q0 -65 76 -65q51 0 85 22q-8 72 -29.5 100.5t-53.5 28.5q-34 0 -56 -25t-22 -61z
M388 817l71 -72l-71 -71l-70 71zM532 817l70 -72l-70 -71l-71 71zM161 -346l70 71l71 -71l-71 -71zM375 -275l70 -71l-70 -71l-71 71z" />
    <glyph glyph-name="kaf_uni0649" unicode="&#xfc3d;" horiz-adv-x="782" arabic-form="isolated" 
d="M141 63q0 -65 47 -103.5t128 -38.5q67 0 115 16t73.5 37.5t25.5 38.5q0 9 -12.5 19.5t-46.5 26t-99 37.5l25 95q65 2 101 14t36 25q0 16 -19.5 43t-53.5 59t-79 62l17 101q89 47 179 87.5t172 74.5l21 -107q-67 -25 -130 -51t-140 -62q60 -52 93 -107t33 -99
q0 -69 -87 -102q41 -25 64 -52.5t23 -57.5q0 -58 -40.5 -108.5t-113.5 -82t-170 -31.5q-78 0 -137.5 28.5t-92.5 82t-33 126.5q0 56 21.5 116.5t59.5 109.5l69 -43q-49 -82 -49 -154z" />
    <glyph glyph-name="kaf_uni064A" unicode="&#xfc3e;" horiz-adv-x="782" arabic-form="isolated" 
d="M141 63q0 -65 47 -103.5t128 -38.5q67 0 115 16t73.5 37.5t25.5 38.5q0 9 -12.5 19.5t-46.5 26t-99 37.5l25 95q65 2 101 14t36 25q0 16 -19.5 43t-53.5 59t-79 62l17 101q89 47 179 87.5t172 74.5l21 -107q-67 -25 -130 -51t-140 -62q60 -52 93 -107t33 -99
q0 -69 -87 -102q41 -25 64 -52.5t23 -57.5q0 -58 -40.5 -108.5t-113.5 -82t-170 -31.5q-78 0 -137.5 28.5t-92.5 82t-33 126.5q0 56 21.5 116.5t59.5 109.5l69 -43q-49 -82 -49 -154zM161 -346l70 71l71 -71l-71 -71zM375 -275l70 -71l-70 -71l-71 71z" />
    <glyph glyph-name="lam_uni0645" unicode="&#xfc42;" horiz-adv-x="446" arabic-form="isolated" 
d="M208 232l-4 403l104 18l-5 -434q-1 -46 17 -71.5t70 -51.5l34 -16l-62 -116l-30 16q-39 22 -73 30t-75 8q-25 0 -36 -12t-11 -43l-1 -334l-94 -9l-4 346q-1 80 35 124t99 44q27 0 55 -6q-11 21 -15 45t-4 59z" />
    <glyph glyph-name="uniFC43" unicode="&#xfc43;" horiz-adv-x="693" arabic-form="isolated" 
d="M141 63q0 -65 47 -103.5t128 -38.5q67 0 115 16t73.5 37.5t25.5 38.5q0 9 -12.5 19.5t-46.5 26t-99 37.5l25 95q62 0 98 12t36 39l-4 393l105 18l-4 -397q-1 -95 -79 -132q37 -24 57.5 -50t20.5 -55q0 -58 -40.5 -108.5t-113.5 -82t-170 -31.5q-78 0 -137.5 28.5
t-92.5 82t-33 126.5q0 56 21.5 116.5t59.5 109.5l69 -43q-49 -82 -49 -154z" />
    <glyph glyph-name="uniFC44" unicode="&#xfc44;" horiz-adv-x="693" arabic-form="isolated" 
d="M141 63q0 -65 47 -103.5t128 -38.5q67 0 115 16t73.5 37.5t25.5 38.5q0 9 -12.5 19.5t-46.5 26t-99 37.5l25 95q62 0 98 12t36 39l-4 393l105 18l-4 -397q-1 -95 -79 -132q37 -24 57.5 -50t20.5 -55q0 -58 -40.5 -108.5t-113.5 -82t-170 -31.5q-78 0 -137.5 28.5
t-92.5 82t-33 126.5q0 56 21.5 116.5t59.5 109.5l69 -43q-49 -82 -49 -154zM161 -346l70 71l71 -71l-71 -71zM375 -275l70 -71l-70 -71l-71 71z" />
    <glyph glyph-name="noon_uni0649" unicode="&#xfc4f;" horiz-adv-x="672" arabic-form="isolated" 
d="M627 246q0 -79 -84 -118q84 -51 84 -109t-40.5 -108.5t-113.5 -82t-170 -31.5q-78 0 -137.5 28.5t-92.5 82t-33 126.5q0 56 21.5 116.5t59.5 109.5l69 -43q-49 -82 -49 -154q0 -65 47 -103.5t128 -38.5q67 0 115 16t73.5 37.5t25.5 38.5q0 9 -12.5 19.5t-46.5 26
t-99 37.5l25 95q62 0 97.5 9.5t35.5 26.5t-14 56t-37 84l98 54q23 -47 36.5 -96.5t13.5 -78.5zM518 490l-72 73l72 73l72 -73z" />
    <glyph glyph-name="noon_uni064A" unicode="&#xfc50;" horiz-adv-x="672" arabic-form="isolated" 
d="M627 246q0 -79 -84 -118q84 -51 84 -109t-40.5 -108.5t-113.5 -82t-170 -31.5q-78 0 -137.5 28.5t-92.5 82t-33 126.5q0 56 21.5 116.5t59.5 109.5l69 -43q-49 -82 -49 -154q0 -65 47 -103.5t128 -38.5q67 0 115 16t73.5 37.5t25.5 38.5q0 9 -12.5 19.5t-46.5 26
t-99 37.5l25 95q62 0 97.5 9.5t35.5 26.5t-14 56t-37 84l98 54q23 -47 36.5 -96.5t13.5 -78.5zM518 490l-72 73l72 73l72 -73zM161 -346l70 71l71 -71l-71 -71zM375 -275l70 -71l-70 -71l-71 71z" />
    <glyph glyph-name="yeh_uni0649" unicode="&#xfc59;" horiz-adv-x="672" arabic-form="isolated" 
d="M627 246q0 -79 -84 -118q84 -51 84 -109t-40.5 -108.5t-113.5 -82t-170 -31.5q-78 0 -137.5 28.5t-92.5 82t-33 126.5q0 56 21.5 116.5t59.5 109.5l69 -43q-49 -82 -49 -154q0 -65 47 -103.5t128 -38.5q67 0 115 16t73.5 37.5t25.5 38.5q0 9 -12.5 19.5t-46.5 26
t-99 37.5l25 95q62 0 97.5 9.5t35.5 26.5t-14 56t-37 84l98 54q23 -47 36.5 -96.5t13.5 -78.5zM498 -253l70 71l71 -71l-71 -71zM712 -182l70 -71l-70 -71l-71 71z" />
    <glyph glyph-name="yeh_uni064A" unicode="&#xfc5a;" horiz-adv-x="672" arabic-form="isolated" 
d="M627 246q0 -79 -84 -118q84 -51 84 -109t-40.5 -108.5t-113.5 -82t-170 -31.5q-78 0 -137.5 28.5t-92.5 82t-33 126.5q0 56 21.5 116.5t59.5 109.5l69 -43q-49 -82 -49 -154q0 -65 47 -103.5t128 -38.5q67 0 115 16t73.5 37.5t25.5 38.5q0 9 -12.5 19.5t-46.5 26
t-99 37.5l25 95q62 0 97.5 9.5t35.5 26.5t-14 56t-37 84l98 54q23 -47 36.5 -96.5t13.5 -78.5zM498 -253l70 71l71 -71l-71 -71zM712 -182l70 -71l-70 -71l-71 71zM161 -346l70 71l71 -71l-71 -71zM375 -275l70 -71l-70 -71l-71 71z" />
    <glyph glyph-name="uniFC5E" unicode="&#xfc5e;" arabic-form="isolated" 
d="M-117 552q0 47 34 86l31 -17q-10 -15 -16.5 -29.5t-6.5 -27.5q0 -30 24 -30t27 20l8 64l41 -4l-6 -55q-2 -20 27 -20t29 22q0 33 -29 73l40 23q14 -18 22 -43t8 -49q0 -36 -19 -57.5t-51 -21.5q-30 0 -47 19q-20 -24 -52 -24q-30 0 -47 19t-17 52zM-39 770q0 -21 -11 -39
h10q19 0 39.5 3t36.5 11q-58 14 -58 66q0 30 20 51.5t49 21.5q30 0 49 -24t19 -59q0 -51 -42.5 -84t-111.5 -33q-15 0 -31 2l-21 51q13 11 13 23q0 17 -21 17q-17 0 -35 -17l-22 28q25 35 62 35q24 0 39.5 -15t15.5 -38zM18 811q0 -26 53 -33q4 10 4 21q0 17 -8.5 27
t-22.5 10q-26 0 -26 -25z" />
    <glyph glyph-name="uniFC5F" unicode="&#xfc5f;" arabic-form="isolated" 
d="M99 533q-39 -16 -89 -32.5t-109 -30.5v50q59 15 108.5 31t89.5 34v-52zM94 622q-39 -16 -89 -32.5t-109 -31.5v51q59 14 108.5 30.5t89.5 33.5v-51zM-117 771q0 47 34 86l31 -17q-10 -15 -16.5 -29.5t-6.5 -27.5q0 -30 24 -30t27 20l8 64l41 -4l-6 -55q-2 -20 27 -20
t29 22q0 33 -29 73l40 23q14 -18 22 -43t8 -49q0 -36 -19 -57.5t-51 -21.5q-30 0 -47 19q-20 -24 -52 -24q-30 0 -47 19t-17 52z" />
    <glyph glyph-name="uniFC60" unicode="&#xfc60;" arabic-form="isolated" 
d="M-117 552q0 47 34 86l31 -17q-10 -15 -16.5 -29.5t-6.5 -27.5q0 -30 24 -30t27 20l8 64l41 -4l-6 -55q-2 -20 27 -20t29 22q0 33 -29 73l40 23q14 -18 22 -43t8 -49q0 -36 -19 -57.5t-51 -21.5q-30 0 -47 19q-20 -24 -52 -24q-30 0 -47 19t-17 52zM99 740
q-39 -17 -89 -33.5t-109 -30.5v55q59 14 108.5 30t89.5 34v-55z" />
    <glyph glyph-name="uniFC61" unicode="&#xfc61;" arabic-form="isolated" 
d="M-117 552q0 47 34 86l31 -17q-10 -15 -16.5 -29.5t-6.5 -27.5q0 -30 24 -30t27 20l8 64l41 -4l-6 -55q-2 -20 27 -20t29 22q0 33 -29 73l40 23q14 -18 22 -43t8 -49q0 -36 -19 -57.5t-51 -21.5q-30 0 -47 19q-20 -24 -52 -24q-30 0 -47 19t-17 52zM-42 811
q0 30 19.5 51.5t48.5 21.5q30 0 49.5 -24t19.5 -59q0 -51 -42.5 -84t-111.5 -33q-6 0 -14 0.5t-14 1.5l-9 48q9 -1 19.5 -2t17.5 -1q20 0 40 3.5t35 10.5q-58 13 -58 66zM-3 811q0 -27 54 -33q4 9 4 21q0 17 -8.5 27t-22.5 10q-27 0 -27 -25z" />
    <glyph glyph-name="uniFC62" unicode="&#xfc62;" arabic-form="isolated" 
d="M99 534q-39 -17 -89 -33.5t-109 -30.5v55q59 14 108.5 30t89.5 34v-55zM-117 684q0 47 34 86l31 -17q-10 -15 -16.5 -29.5t-6.5 -27.5q0 -30 24 -30t27 20l8 64l41 -4l-6 -55q-2 -20 27 -20t29 22q0 33 -29 73l40 23q14 -18 22 -43t8 -49q0 -36 -19 -57.5t-51 -21.5
q-30 0 -47 19q-20 -24 -52 -24q-30 0 -47 19t-17 52z" />
    <glyph glyph-name="uniFC63" unicode="&#xfc63;" arabic-form="isolated" 
d="M-117 552q0 47 34 86l31 -17q-10 -15 -16.5 -29.5t-6.5 -27.5q0 -30 24 -30t27 20l8 64l41 -4l-6 -55q-2 -20 27 -20t29 22q0 33 -29 73l40 23q14 -18 22 -43t8 -49q0 -36 -19 -57.5t-51 -21.5q-30 0 -47 19q-20 -24 -52 -24q-30 0 -47 19t-17 52zM-20.5 773
q-1.5 36 -6.5 70l50 9q2 -16 3 -31t1 -32q0 -54 -9 -102h-37q0 50 -1.5 86z" />
    <glyph glyph-name="uniFC64" unicode="&#xfc64;" horiz-adv-x="679" arabic-form="final" 
d="M491 139q0 8 0.5 16.5t0.5 18.5q-19 -6 -40 -8.5t-41 -2.5q-40 0 -85 9q6 -30 6 -58q0 -101 -76 -187t-214 -133l-62 107q73 26 131.5 61.5t92.5 73t34 69.5q0 20 -13.5 56t-36.5 82l91 60q31 -11 71 -16t74 -5q38 0 74.5 6t67.5 16l23 -21q-4 -29 -7 -56.5t-3 -38.5
q0 -36 23 -50.5t77 -14.5l16 -10v-103l-16 -10q-100 0 -144 34.5t-44 104.5zM475 483q0 34 23 57.5t57 23.5q39 0 61 -32l-22 -32q-8 5 -16.5 7.5t-17.5 2.5q-16 0 -27 -8t-11 -20q0 -14 15.5 -23t40.5 -12q34 7 64 8l-8 -57q-42 -3 -81 -10t-79 -20l-17 44q22 9 48 17
q-30 21 -30 54z" />
    <glyph glyph-name="yehHamzaabove_uni0632.fina" unicode="&#xfc65;" horiz-adv-x="679" arabic-form="final" 
d="M491 139q0 8 0.5 16.5t0.5 18.5q-19 -6 -40 -8.5t-41 -2.5q-40 0 -85 9q6 -30 6 -58q0 -101 -76 -187t-214 -133l-62 107q73 26 131.5 61.5t92.5 73t34 69.5q0 20 -13.5 56t-36.5 82l91 60q31 -11 71 -16t74 -5q38 0 74.5 6t67.5 16l23 -21q-4 -29 -7 -56.5t-3 -38.5
q0 -36 23 -50.5t77 -14.5l16 -10v-103l-16 -10q-100 0 -144 34.5t-44 104.5zM475 483q0 34 23 57.5t57 23.5q39 0 61 -32l-22 -32q-8 5 -16.5 7.5t-17.5 2.5q-16 0 -27 -8t-11 -20q0 -14 15.5 -23t40.5 -12q34 7 64 8l-8 -57q-42 -3 -81 -10t-79 -20l-17 44q22 9 48 17
q-30 21 -30 54zM206 376l-72 73l72 73l72 -73z" />
    <glyph glyph-name="yehHamzaabove_uni0645.fina" unicode="&#xfc66;" horiz-adv-x="664" arabic-form="final" 
d="M266 151q0 -19 19.5 -36.5t76.5 -44.5l30 -15l-60 -112l-27 15q-37 20 -64.5 28t-54.5 8t-38 -13t-11 -42l-1 -310l-94 -9l-4 321q-1 80 36 124.5t101 44.5h12q-12 24 -12 49q0 33 20 67t53 62.5t74.5 46t83.5 17.5q52 0 86.5 -25t62.5 -89q22 -47 37.5 -72t32 -34
t39.5 -9l16 -11v-102l-16 -10q-48 0 -79 15t-55 50t-51 96q-18 41 -36.5 56t-48.5 15t-59.5 -12.5t-49 -31t-19.5 -37.5zM324 527q0 34 23 57.5t57 23.5q39 0 61 -32l-22 -32q-8 5 -16.5 7.5t-17.5 2.5q-16 0 -27 -8t-11 -20q0 -14 15.5 -23t40.5 -12q34 7 64 8l-8 -57
q-42 -3 -81 -10t-79 -20l-17 44q22 9 48 17q-30 21 -30 54z" />
    <glyph glyph-name="uniFC67" unicode="&#xfc67;" horiz-adv-x="910" arabic-form="final" 
d="M721 139q0 16 2 35q-19 -6 -40 -8.5t-41 -2.5q-42 0 -88 10q11 -38 17 -75t6 -64q0 -70 -34.5 -123.5t-94.5 -83.5t-139 -30q-124 0 -196.5 64t-72.5 173q0 56 21.5 116.5t59.5 109.5l69 -43q-49 -82 -49 -154q0 -65 44.5 -103.5t123.5 -38.5q49 0 87.5 14t61.5 37t23 50
q0 75 -65 218l93 63q31 -11 71 -16t75 -5q38 0 74 6t67 16l23 -21q-4 -29 -6.5 -56.5t-2.5 -38.5q0 -36 23 -50.5t77 -14.5l16 -10v-103l-16 -10q-101 0 -145 34.5t-44 104.5zM701 483q0 34 23 57.5t57 23.5q39 0 61 -32l-22 -32q-8 5 -16.5 7.5t-17.5 2.5q-16 0 -27 -8
t-11 -20q0 -14 15.5 -23t40.5 -12q34 7 64 8l-8 -57q-42 -3 -81 -10t-79 -20l-17 44q22 9 48 17q-30 21 -30 54zM301 324l-72 73l72 73l72 -73z" />
    <glyph glyph-name="yehHamzaabove_uni0649.fina" unicode="&#xfc68;" horiz-adv-x="880" arabic-form="final" 
d="M494 165q0 -10 9 -18.5t31 -18.5q51 -22 72 -45.5t21 -59.5q0 -60 -41.5 -111.5t-115 -83t-170.5 -31.5q-77 0 -136 28.5t-91.5 82t-32.5 126.5q0 56 21.5 116.5t59.5 109.5l69 -43q-49 -82 -49 -154q0 -65 46.5 -103.5t128.5 -38.5q62 0 108.5 14t72.5 35t26 41
q0 11 -10.5 19.5t-39.5 22.5q-47 23 -66 48.5t-19 59.5q0 35 20 68.5t53.5 61.5t75.5 44.5t86 16.5q52 0 86 -25t63 -89q21 -47 37 -72t32.5 -34t38.5 -9l16 -11v-102l-16 -10q-48 0 -78.5 15t-54.5 50t-51 96q-19 41 -37 56t-48 15q-26 0 -53.5 -10.5t-45.5 -25.5t-18 -31z
M541 527q0 34 23 57.5t57 23.5q39 0 61 -32l-22 -32q-8 5 -16.5 7.5t-17.5 2.5q-16 0 -27 -8t-11 -20q0 -14 15.5 -23t40.5 -12q34 7 64 8l-8 -57q-42 -3 -81 -10t-79 -20l-17 44q22 9 48 17q-30 21 -30 54z" />
    <glyph glyph-name="yehHamzaabove_uni064A.fina" unicode="&#xfc69;" horiz-adv-x="880" arabic-form="final" 
d="M494 165q0 -10 9 -18.5t31 -18.5q51 -22 72 -45.5t21 -59.5q0 -60 -41.5 -111.5t-115 -83t-170.5 -31.5q-77 0 -136 28.5t-91.5 82t-32.5 126.5q0 56 21.5 116.5t59.5 109.5l69 -43q-49 -82 -49 -154q0 -65 46.5 -103.5t128.5 -38.5q62 0 108.5 14t72.5 35t26 41
q0 11 -10.5 19.5t-39.5 22.5q-47 23 -66 48.5t-19 59.5q0 35 20 68.5t53.5 61.5t75.5 44.5t86 16.5q52 0 86 -25t63 -89q21 -47 37 -72t32.5 -34t38.5 -9l16 -11v-102l-16 -10q-48 0 -78.5 15t-54.5 50t-51 96q-19 41 -37 56t-48 15q-26 0 -53.5 -10.5t-45.5 -25.5t-18 -31z
M541 527q0 34 23 57.5t57 23.5q39 0 61 -32l-22 -32q-8 5 -16.5 7.5t-17.5 2.5q-16 0 -27 -8t-11 -20q0 -14 15.5 -23t40.5 -12q34 7 64 8l-8 -57q-42 -3 -81 -10t-79 -20l-17 44q22 9 48 17q-30 21 -30 54zM156 -346l70 71l71 -71l-71 -71zM370 -275l70 -71l-70 -71l-71 71
z" />
    <glyph glyph-name="uniFC6A" unicode="&#xfc6a;" horiz-adv-x="679" arabic-form="final" 
d="M491 139q0 8 0.5 16.5t0.5 18.5q-19 -6 -40 -8.5t-41 -2.5q-40 0 -85 9q6 -30 6 -58q0 -101 -76 -187t-214 -133l-62 107q73 26 131.5 61.5t92.5 73t34 69.5q0 20 -13.5 56t-36.5 82l91 60q31 -11 71 -16t74 -5q38 0 74.5 6t67.5 16l23 -21q-4 -29 -7 -56.5t-3 -38.5
q0 -36 23 -50.5t77 -14.5l16 -10v-103l-16 -10q-100 0 -144 34.5t-44 104.5zM516 -217l-72 73l72 72l72 -72z" />
    <glyph glyph-name="beh_uni0632.fina" unicode="&#xfc6b;" horiz-adv-x="679" arabic-form="final" 
d="M491 139q0 8 0.5 16.5t0.5 18.5q-19 -6 -40 -8.5t-41 -2.5q-40 0 -85 9q6 -30 6 -58q0 -101 -76 -187t-214 -133l-62 107q73 26 131.5 61.5t92.5 73t34 69.5q0 20 -13.5 56t-36.5 82l91 60q31 -11 71 -16t74 -5q38 0 74.5 6t67.5 16l23 -21q-4 -29 -7 -56.5t-3 -38.5
q0 -36 23 -50.5t77 -14.5l16 -10v-103l-16 -10q-100 0 -144 34.5t-44 104.5zM516 -217l-72 73l72 72l72 -72zM206 376l-72 73l72 73l72 -73z" />
    <glyph glyph-name="beh_uni0645.fina" unicode="&#xfc6c;" horiz-adv-x="664" arabic-form="final" 
d="M266 151q0 -19 19.5 -36.5t76.5 -44.5l30 -15l-60 -112l-27 15q-37 20 -64.5 28t-54.5 8t-38 -13t-11 -42l-1 -310l-94 -9l-4 321q-1 80 36 124.5t101 44.5h12q-12 24 -12 49q0 33 20 67t53 62.5t74.5 46t83.5 17.5q52 0 86.5 -25t62.5 -89q22 -47 37.5 -72t32 -34
t39.5 -9l16 -11v-102l-16 -10q-48 0 -79 15t-55 50t-51 96q-18 41 -36.5 56t-48.5 15t-59.5 -12.5t-49 -31t-19.5 -37.5zM483 -217l-72 73l72 72l72 -72z" />
    <glyph glyph-name="uniFC6D" unicode="&#xfc6d;" horiz-adv-x="910" arabic-form="final" 
d="M721 139q0 16 2 35q-19 -6 -40 -8.5t-41 -2.5q-42 0 -88 10q11 -38 17 -75t6 -64q0 -70 -34.5 -123.5t-94.5 -83.5t-139 -30q-124 0 -196.5 64t-72.5 173q0 56 21.5 116.5t59.5 109.5l69 -43q-49 -82 -49 -154q0 -65 44.5 -103.5t123.5 -38.5q49 0 87.5 14t61.5 37t23 50
q0 75 -65 218l93 63q31 -11 71 -16t75 -5q38 0 74 6t67 16l23 -21q-4 -29 -6.5 -56.5t-2.5 -38.5q0 -36 23 -50.5t77 -14.5l16 -10v-103l-16 -10q-101 0 -145 34.5t-44 104.5zM774 -217l-72 73l72 72l72 -72zM301 324l-72 73l72 73l72 -73z" />
    <glyph glyph-name="uniFC09.fina" unicode="&#xfc6e;" horiz-adv-x="880" arabic-form="final" 
d="M494 165q0 -10 9 -18.5t31 -18.5q51 -22 72 -45.5t21 -59.5q0 -60 -41.5 -111.5t-115 -83t-170.5 -31.5q-77 0 -136 28.5t-91.5 82t-32.5 126.5q0 56 21.5 116.5t59.5 109.5l69 -43q-49 -82 -49 -154q0 -65 46.5 -103.5t128.5 -38.5q62 0 108.5 14t72.5 35t26 41
q0 11 -10.5 19.5t-39.5 22.5q-47 23 -66 48.5t-19 59.5q0 35 20 68.5t53.5 61.5t75.5 44.5t86 16.5q52 0 86 -25t63 -89q21 -47 37 -72t32.5 -34t38.5 -9l16 -11v-102l-16 -10q-48 0 -78.5 15t-54.5 50t-51 96q-19 41 -37 56t-48 15q-26 0 -53.5 -10.5t-45.5 -25.5t-18 -31z
M757 -217l-72 73l72 72l72 -72z" />
    <glyph glyph-name="beh_uni064A.fina" unicode="&#xfc6f;" horiz-adv-x="880" arabic-form="final" 
d="M494 165q0 -10 9 -18.5t31 -18.5q51 -22 72 -45.5t21 -59.5q0 -60 -41.5 -111.5t-115 -83t-170.5 -31.5q-77 0 -136 28.5t-91.5 82t-32.5 126.5q0 56 21.5 116.5t59.5 109.5l69 -43q-49 -82 -49 -154q0 -65 46.5 -103.5t128.5 -38.5q62 0 108.5 14t72.5 35t26 41
q0 11 -10.5 19.5t-39.5 22.5q-47 23 -66 48.5t-19 59.5q0 35 20 68.5t53.5 61.5t75.5 44.5t86 16.5q52 0 86 -25t63 -89q21 -47 37 -72t32.5 -34t38.5 -9l16 -11v-102l-16 -10q-48 0 -78.5 15t-54.5 50t-51 96q-19 41 -37 56t-48 15q-26 0 -53.5 -10.5t-45.5 -25.5t-18 -31z
M757 -217l-72 73l72 72l72 -72zM156 -346l70 71l71 -71l-71 -71zM370 -275l70 -71l-70 -71l-71 71z" />
    <glyph glyph-name="uniFC70" unicode="&#xfc70;" horiz-adv-x="679" arabic-form="final" 
d="M491 139q0 8 0.5 16.5t0.5 18.5q-19 -6 -40 -8.5t-41 -2.5q-40 0 -85 9q6 -30 6 -58q0 -101 -76 -187t-214 -133l-62 107q73 26 131.5 61.5t92.5 73t34 69.5q0 20 -13.5 56t-36.5 82l91 60q31 -11 71 -16t74 -5q38 0 74.5 6t67.5 16l23 -21q-4 -29 -7 -56.5t-3 -38.5
q0 -36 23 -50.5t77 -14.5l16 -10v-103l-16 -10q-100 0 -144 34.5t-44 104.5zM476 521l71 -72l-71 -71l-70 71zM620 521l70 -72l-70 -71l-71 71z" />
    <glyph glyph-name="teh_uni0632.fina" unicode="&#xfc71;" horiz-adv-x="679" arabic-form="final" 
d="M491 139q0 8 0.5 16.5t0.5 18.5q-19 -6 -40 -8.5t-41 -2.5q-40 0 -85 9q6 -30 6 -58q0 -101 -76 -187t-214 -133l-62 107q73 26 131.5 61.5t92.5 73t34 69.5q0 20 -13.5 56t-36.5 82l91 60q31 -11 71 -16t74 -5q38 0 74.5 6t67.5 16l23 -21q-4 -29 -7 -56.5t-3 -38.5
q0 -36 23 -50.5t77 -14.5l16 -10v-103l-16 -10q-100 0 -144 34.5t-44 104.5zM476 521l71 -72l-71 -71l-70 71zM620 521l70 -72l-70 -71l-71 71zM206 376l-72 73l72 73l72 -73z" />
    <glyph glyph-name="teh_uni0645.fina" unicode="&#xfc72;" horiz-adv-x="664" arabic-form="final" 
d="M266 151q0 -19 19.5 -36.5t76.5 -44.5l30 -15l-60 -112l-27 15q-37 20 -64.5 28t-54.5 8t-38 -13t-11 -42l-1 -310l-94 -9l-4 321q-1 80 36 124.5t101 44.5h12q-12 24 -12 49q0 33 20 67t53 62.5t74.5 46t83.5 17.5q52 0 86.5 -25t62.5 -89q22 -47 37.5 -72t32 -34
t39.5 -9l16 -11v-102l-16 -10q-48 0 -79 15t-55 50t-51 96q-18 41 -36.5 56t-48.5 15t-59.5 -12.5t-49 -31t-19.5 -37.5zM325 565l71 -72l-71 -71l-70 71zM469 565l70 -72l-70 -71l-71 71z" />
    <glyph glyph-name="teh_uni0646.fina" unicode="&#xfc73;" horiz-adv-x="910" arabic-form="final" 
d="M721 139q0 16 2 35q-19 -6 -40 -8.5t-41 -2.5q-42 0 -88 10q11 -38 17 -75t6 -64q0 -70 -34.5 -123.5t-94.5 -83.5t-139 -30q-124 0 -196.5 64t-72.5 173q0 56 21.5 116.5t59.5 109.5l69 -43q-49 -82 -49 -154q0 -65 44.5 -103.5t123.5 -38.5q49 0 87.5 14t61.5 37t23 50
q0 75 -65 218l93 63q31 -11 71 -16t75 -5q38 0 74 6t67 16l23 -21q-4 -29 -6.5 -56.5t-2.5 -38.5q0 -36 23 -50.5t77 -14.5l16 -10v-103l-16 -10q-101 0 -145 34.5t-44 104.5zM702 521l71 -72l-71 -71l-70 71zM846 521l70 -72l-70 -71l-71 71zM301 324l-72 73l72 73l72 -73z
" />
    <glyph glyph-name="teh_uni0649.fina" unicode="&#xfc74;" horiz-adv-x="880" arabic-form="final" 
d="M494 165q0 -10 9 -18.5t31 -18.5q51 -22 72 -45.5t21 -59.5q0 -60 -41.5 -111.5t-115 -83t-170.5 -31.5q-77 0 -136 28.5t-91.5 82t-32.5 126.5q0 56 21.5 116.5t59.5 109.5l69 -43q-49 -82 -49 -154q0 -65 46.5 -103.5t128.5 -38.5q62 0 108.5 14t72.5 35t26 41
q0 11 -10.5 19.5t-39.5 22.5q-47 23 -66 48.5t-19 59.5q0 35 20 68.5t53.5 61.5t75.5 44.5t86 16.5q52 0 86 -25t63 -89q21 -47 37 -72t32.5 -34t38.5 -9l16 -11v-102l-16 -10q-48 0 -78.5 15t-54.5 50t-51 96q-19 41 -37 56t-48 15q-26 0 -53.5 -10.5t-45.5 -25.5t-18 -31z
M542 565l71 -72l-71 -71l-70 71zM686 565l70 -72l-70 -71l-71 71z" />
    <glyph glyph-name="teh_uni064A.fina" unicode="&#xfc75;" horiz-adv-x="880" arabic-form="final" 
d="M494 165q0 -10 9 -18.5t31 -18.5q51 -22 72 -45.5t21 -59.5q0 -60 -41.5 -111.5t-115 -83t-170.5 -31.5q-77 0 -136 28.5t-91.5 82t-32.5 126.5q0 56 21.5 116.5t59.5 109.5l69 -43q-49 -82 -49 -154q0 -65 46.5 -103.5t128.5 -38.5q62 0 108.5 14t72.5 35t26 41
q0 11 -10.5 19.5t-39.5 22.5q-47 23 -66 48.5t-19 59.5q0 35 20 68.5t53.5 61.5t75.5 44.5t86 16.5q52 0 86 -25t63 -89q21 -47 37 -72t32.5 -34t38.5 -9l16 -11v-102l-16 -10q-48 0 -78.5 15t-54.5 50t-51 96q-19 41 -37 56t-48 15q-26 0 -53.5 -10.5t-45.5 -25.5t-18 -31z
M542 565l71 -72l-71 -71l-70 71zM686 565l70 -72l-70 -71l-71 71zM156 -346l70 71l71 -71l-71 -71zM370 -275l70 -71l-70 -71l-71 71z" />
    <glyph glyph-name="theh_uni0631.fina" unicode="&#xfc76;" horiz-adv-x="679" arabic-form="final" 
d="M491 139q0 8 0.5 16.5t0.5 18.5q-19 -6 -40 -8.5t-41 -2.5q-40 0 -85 9q6 -30 6 -58q0 -101 -76 -187t-214 -133l-62 107q73 26 131.5 61.5t92.5 73t34 69.5q0 20 -13.5 56t-36.5 82l91 60q31 -11 71 -16t74 -5q38 0 74.5 6t67.5 16l23 -21q-4 -29 -7 -56.5t-3 -38.5
q0 -36 23 -50.5t77 -14.5l16 -10v-103l-16 -10q-100 0 -144 34.5t-44 104.5zM407 448l69 70l71 -70l-71 -70zM620 518l69 -70l-69 -70l-71 70zM548 653l69 -69l-69 -69l-69 69z" />
    <glyph glyph-name="theh_uni0632.fina" unicode="&#xfc77;" horiz-adv-x="679" arabic-form="final" 
d="M491 139q0 8 0.5 16.5t0.5 18.5q-19 -6 -40 -8.5t-41 -2.5q-40 0 -85 9q6 -30 6 -58q0 -101 -76 -187t-214 -133l-62 107q73 26 131.5 61.5t92.5 73t34 69.5q0 20 -13.5 56t-36.5 82l91 60q31 -11 71 -16t74 -5q38 0 74.5 6t67.5 16l23 -21q-4 -29 -7 -56.5t-3 -38.5
q0 -36 23 -50.5t77 -14.5l16 -10v-103l-16 -10q-100 0 -144 34.5t-44 104.5zM407 448l69 70l71 -70l-71 -70zM620 518l69 -70l-69 -70l-71 70zM548 653l69 -69l-69 -69l-69 69zM206 376l-72 73l72 73l72 -73z" />
    <glyph glyph-name="theh_uni0645.fina" unicode="&#xfc78;" horiz-adv-x="664" arabic-form="final" 
d="M266 151q0 -19 19.5 -36.5t76.5 -44.5l30 -15l-60 -112l-27 15q-37 20 -64.5 28t-54.5 8t-38 -13t-11 -42l-1 -310l-94 -9l-4 321q-1 80 36 124.5t101 44.5h12q-12 24 -12 49q0 33 20 67t53 62.5t74.5 46t83.5 17.5q52 0 86.5 -25t62.5 -89q22 -47 37.5 -72t32 -34
t39.5 -9l16 -11v-102l-16 -10q-48 0 -79 15t-55 50t-51 96q-18 41 -36.5 56t-48.5 15t-59.5 -12.5t-49 -31t-19.5 -37.5zM256 492l69 70l71 -70l-71 -70zM469 562l69 -70l-69 -70l-71 70zM397 697l69 -69l-69 -69l-69 69z" />
    <glyph glyph-name="theh_uni0646.fina" unicode="&#xfc79;" horiz-adv-x="910" arabic-form="final" 
d="M721 139q0 16 2 35q-19 -6 -40 -8.5t-41 -2.5q-42 0 -88 10q11 -38 17 -75t6 -64q0 -70 -34.5 -123.5t-94.5 -83.5t-139 -30q-124 0 -196.5 64t-72.5 173q0 56 21.5 116.5t59.5 109.5l69 -43q-49 -82 -49 -154q0 -65 44.5 -103.5t123.5 -38.5q49 0 87.5 14t61.5 37t23 50
q0 75 -65 218l93 63q31 -11 71 -16t75 -5q38 0 74 6t67 16l23 -21q-4 -29 -6.5 -56.5t-2.5 -38.5q0 -36 23 -50.5t77 -14.5l16 -10v-103l-16 -10q-101 0 -145 34.5t-44 104.5zM633 448l69 70l71 -70l-71 -70zM846 518l69 -70l-69 -70l-71 70zM774 653l69 -69l-69 -69l-69 69
zM301 324l-72 73l72 73l72 -73z" />
    <glyph glyph-name="theh_uni0649.fina" unicode="&#xfc7a;" horiz-adv-x="880" arabic-form="final" 
d="M494 165q0 -10 9 -18.5t31 -18.5q51 -22 72 -45.5t21 -59.5q0 -60 -41.5 -111.5t-115 -83t-170.5 -31.5q-77 0 -136 28.5t-91.5 82t-32.5 126.5q0 56 21.5 116.5t59.5 109.5l69 -43q-49 -82 -49 -154q0 -65 46.5 -103.5t128.5 -38.5q62 0 108.5 14t72.5 35t26 41
q0 11 -10.5 19.5t-39.5 22.5q-47 23 -66 48.5t-19 59.5q0 35 20 68.5t53.5 61.5t75.5 44.5t86 16.5q52 0 86 -25t63 -89q21 -47 37 -72t32.5 -34t38.5 -9l16 -11v-102l-16 -10q-48 0 -78.5 15t-54.5 50t-51 96q-19 41 -37 56t-48 15q-26 0 -53.5 -10.5t-45.5 -25.5t-18 -31z
M473 492l69 70l71 -70l-71 -70zM686 562l69 -70l-69 -70l-71 70zM614 697l69 -69l-69 -69l-69 69z" />
    <glyph glyph-name="theh_uni064A.fina" unicode="&#xfc7b;" horiz-adv-x="880" arabic-form="final" 
d="M494 165q0 -10 9 -18.5t31 -18.5q51 -22 72 -45.5t21 -59.5q0 -60 -41.5 -111.5t-115 -83t-170.5 -31.5q-77 0 -136 28.5t-91.5 82t-32.5 126.5q0 56 21.5 116.5t59.5 109.5l69 -43q-49 -82 -49 -154q0 -65 46.5 -103.5t128.5 -38.5q62 0 108.5 14t72.5 35t26 41
q0 11 -10.5 19.5t-39.5 22.5q-47 23 -66 48.5t-19 59.5q0 35 20 68.5t53.5 61.5t75.5 44.5t86 16.5q52 0 86 -25t63 -89q21 -47 37 -72t32.5 -34t38.5 -9l16 -11v-102l-16 -10q-48 0 -78.5 15t-54.5 50t-51 96q-19 41 -37 56t-48 15q-26 0 -53.5 -10.5t-45.5 -25.5t-18 -31z
M473 492l69 70l71 -70l-71 -70zM686 562l69 -70l-69 -70l-71 70zM614 697l69 -69l-69 -69l-69 69zM156 -346l70 71l71 -71l-71 -71zM370 -275l70 -71l-70 -71l-71 71z" />
    <glyph glyph-name="kaf_uni0649.fina" unicode="&#xfc83;" horiz-adv-x="885" arabic-form="final" 
d="M627 19q0 -58 -40.5 -108.5t-113.5 -82t-170 -31.5q-78 0 -137.5 28.5t-92.5 82t-33 126.5q0 56 21.5 116.5t59.5 109.5l69 -43q-49 -82 -49 -154q0 -65 47 -103.5t128 -38.5q67 0 115 16t73.5 37.5t25.5 38.5q0 9 -12.5 19.5t-46.5 26t-99 37.5l25 95q29 -4 53 -5.5
t46 -1.5q71 0 110 18l-104 192l17 101q89 46 178.5 87t172.5 75l20 -107q-71 -26 -138 -54t-151 -67l120 -224q18 -33 37.5 -51t49.5 -24.5t77 -6.5l16 -10v-103l-16 -10q-62 0 -104 12t-72.5 38t-56.5 68q-26 -18 -61 -26q36 -36 36 -73z" />
    <glyph glyph-name="kaf_uni064A.fina" unicode="&#xfc84;" horiz-adv-x="885" arabic-form="final" 
d="M627 19q0 -58 -40.5 -108.5t-113.5 -82t-170 -31.5q-78 0 -137.5 28.5t-92.5 82t-33 126.5q0 56 21.5 116.5t59.5 109.5l69 -43q-49 -82 -49 -154q0 -65 47 -103.5t128 -38.5q67 0 115 16t73.5 37.5t25.5 38.5q0 9 -12.5 19.5t-46.5 26t-99 37.5l25 95q29 -4 53 -5.5
t46 -1.5q71 0 110 18l-104 192l17 101q89 46 178.5 87t172.5 75l20 -107q-71 -26 -138 -54t-151 -67l120 -224q18 -33 37.5 -51t49.5 -24.5t77 -6.5l16 -10v-103l-16 -10q-62 0 -104 12t-72.5 38t-56.5 68q-26 -18 -61 -26q36 -36 36 -73zM161 -346l70 71l71 -71l-71 -71z
M375 -275l70 -71l-70 -71l-71 71z" />
    <glyph glyph-name="uniFC86" unicode="&#xfc86;" horiz-adv-x="840" arabic-form="final" 
d="M141 63q0 -65 47 -103.5t128 -38.5q67 0 115 16t73.5 37.5t25.5 38.5q0 9 -12.5 19.5t-46.5 26t-99 37.5l25 95q26 -4 50 -5.5t49 -1.5q70 0 104 12.5t34 42.5l-4 396l105 18l-5 -486q16 -25 40.5 -34.5t69.5 -9.5l16 -10v-103l-16 -10q-68 0 -115.5 25t-69.5 89
q-26 -15 -64 -23q36 -35 36 -72q0 -58 -40.5 -108.5t-113.5 -82t-170 -31.5q-78 0 -137.5 28.5t-92.5 82t-33 126.5q0 56 21.5 116.5t59.5 109.5l69 -43q-49 -82 -49 -154z" />
    <glyph glyph-name="uniFC87" unicode="&#xfc87;" horiz-adv-x="840" arabic-form="final" 
d="M141 63q0 -65 47 -103.5t128 -38.5q67 0 115 16t73.5 37.5t25.5 38.5q0 9 -12.5 19.5t-46.5 26t-99 37.5l25 95q26 -4 50 -5.5t49 -1.5q70 0 104 12.5t34 42.5l-4 396l105 18l-5 -486q16 -25 40.5 -34.5t69.5 -9.5l16 -10v-103l-16 -10q-68 0 -115.5 25t-69.5 89
q-26 -15 -64 -23q36 -35 36 -72q0 -58 -40.5 -108.5t-113.5 -82t-170 -31.5q-78 0 -137.5 28.5t-92.5 82t-33 126.5q0 56 21.5 116.5t59.5 109.5l69 -43q-49 -82 -49 -154zM161 -346l70 71l71 -71l-71 -71zM375 -275l70 -71l-70 -71l-71 71z" />
    <glyph glyph-name="noon_uni0631.fina" unicode="&#xfc8a;" horiz-adv-x="679" arabic-form="final" 
d="M491 139q0 8 0.5 16.5t0.5 18.5q-19 -6 -40 -8.5t-41 -2.5q-40 0 -85 9q6 -30 6 -58q0 -101 -76 -187t-214 -133l-62 107q73 26 131.5 61.5t92.5 73t34 69.5q0 20 -13.5 56t-36.5 82l91 60q31 -11 71 -16t74 -5q38 0 74.5 6t67.5 16l23 -21q-4 -29 -7 -56.5t-3 -38.5
q0 -36 23 -50.5t77 -14.5l16 -10v-103l-16 -10q-100 0 -144 34.5t-44 104.5zM548 378l-72 73l72 73l72 -73z" />
    <glyph glyph-name="noon_uni0632.fina" unicode="&#xfc8b;" horiz-adv-x="679" arabic-form="final" 
d="M491 139q0 8 0.5 16.5t0.5 18.5q-19 -6 -40 -8.5t-41 -2.5q-40 0 -85 9q6 -30 6 -58q0 -101 -76 -187t-214 -133l-62 107q73 26 131.5 61.5t92.5 73t34 69.5q0 20 -13.5 56t-36.5 82l91 60q31 -11 71 -16t74 -5q38 0 74.5 6t67.5 16l23 -21q-4 -29 -7 -56.5t-3 -38.5
q0 -36 23 -50.5t77 -14.5l16 -10v-103l-16 -10q-100 0 -144 34.5t-44 104.5zM548 378l-72 73l72 73l72 -73zM206 376l-72 73l72 73l72 -73z" />
    <glyph glyph-name="noon_uni0645.fina" unicode="&#xfc8c;" horiz-adv-x="664" arabic-form="final" 
d="M266 151q0 -19 19.5 -36.5t76.5 -44.5l30 -15l-60 -112l-27 15q-37 20 -64.5 28t-54.5 8t-38 -13t-11 -42l-1 -310l-94 -9l-4 321q-1 80 36 124.5t101 44.5h12q-12 24 -12 49q0 33 20 67t53 62.5t74.5 46t83.5 17.5q52 0 86.5 -25t62.5 -89q22 -47 37.5 -72t32 -34
t39.5 -9l16 -11v-102l-16 -10q-48 0 -79 15t-55 50t-51 96q-18 41 -36.5 56t-48.5 15t-59.5 -12.5t-49 -31t-19.5 -37.5zM397 422l-72 73l72 73l72 -73z" />
    <glyph glyph-name="noon_uni0646.fina" unicode="&#xfc8d;" horiz-adv-x="910" arabic-form="final" 
d="M721 139q0 16 2 35q-19 -6 -40 -8.5t-41 -2.5q-42 0 -88 10q11 -38 17 -75t6 -64q0 -70 -34.5 -123.5t-94.5 -83.5t-139 -30q-124 0 -196.5 64t-72.5 173q0 56 21.5 116.5t59.5 109.5l69 -43q-49 -82 -49 -154q0 -65 44.5 -103.5t123.5 -38.5q49 0 87.5 14t61.5 37t23 50
q0 75 -65 218l93 63q31 -11 71 -16t75 -5q38 0 74 6t67 16l23 -21q-4 -29 -6.5 -56.5t-2.5 -38.5q0 -36 23 -50.5t77 -14.5l16 -10v-103l-16 -10q-101 0 -145 34.5t-44 104.5zM774 378l-72 73l72 73l72 -73zM301 324l-72 73l72 73l72 -73z" />
    <glyph glyph-name="uniFC8E" unicode="&#xfc8e;" horiz-adv-x="880" arabic-form="final" 
d="M494 165q0 -10 9 -18.5t31 -18.5q51 -22 72 -45.5t21 -59.5q0 -60 -41.5 -111.5t-115 -83t-170.5 -31.5q-77 0 -136 28.5t-91.5 82t-32.5 126.5q0 56 21.5 116.5t59.5 109.5l69 -43q-49 -82 -49 -154q0 -65 46.5 -103.5t128.5 -38.5q62 0 108.5 14t72.5 35t26 41
q0 11 -10.5 19.5t-39.5 22.5q-47 23 -66 48.5t-19 59.5q0 35 20 68.5t53.5 61.5t75.5 44.5t86 16.5q52 0 86 -25t63 -89q21 -47 37 -72t32.5 -34t38.5 -9l16 -11v-102l-16 -10q-48 0 -78.5 15t-54.5 50t-51 96q-19 41 -37 56t-48 15q-26 0 -53.5 -10.5t-45.5 -25.5t-18 -31z
M614 422l-72 73l72 73l72 -73z" />
    <glyph glyph-name="uniFC8F" unicode="&#xfc8f;" horiz-adv-x="880" arabic-form="final" 
d="M494 165q0 -10 9 -18.5t31 -18.5q51 -22 72 -45.5t21 -59.5q0 -60 -41.5 -111.5t-115 -83t-170.5 -31.5q-77 0 -136 28.5t-91.5 82t-32.5 126.5q0 56 21.5 116.5t59.5 109.5l69 -43q-49 -82 -49 -154q0 -65 46.5 -103.5t128.5 -38.5q62 0 108.5 14t72.5 35t26 41
q0 11 -10.5 19.5t-39.5 22.5q-47 23 -66 48.5t-19 59.5q0 35 20 68.5t53.5 61.5t75.5 44.5t86 16.5q52 0 86 -25t63 -89q21 -47 37 -72t32.5 -34t38.5 -9l16 -11v-102l-16 -10q-48 0 -78.5 15t-54.5 50t-51 96q-19 41 -37 56t-48 15q-26 0 -53.5 -10.5t-45.5 -25.5t-18 -31z
M614 422l-72 73l72 73l72 -73zM156 -346l70 71l71 -71l-71 -71zM370 -275l70 -71l-70 -71l-71 71z" />
    <glyph glyph-name="uniFC91" unicode="&#xfc91;" horiz-adv-x="679" arabic-form="final" 
d="M491 139q0 8 0.5 16.5t0.5 18.5q-19 -6 -40 -8.5t-41 -2.5q-40 0 -85 9q6 -30 6 -58q0 -101 -76 -187t-214 -133l-62 107q73 26 131.5 61.5t92.5 73t34 69.5q0 20 -13.5 56t-36.5 82l91 60q31 -11 71 -16t74 -5q38 0 74.5 6t67.5 16l23 -21q-4 -29 -7 -56.5t-3 -38.5
q0 -36 23 -50.5t77 -14.5l16 -10v-103l-16 -10q-100 0 -144 34.5t-44 104.5zM374 -143l70 71l71 -71l-71 -71zM588 -72l70 -71l-70 -71l-71 71z" />
    <glyph glyph-name="yeh_uni0632.fina" unicode="&#xfc92;" horiz-adv-x="679" arabic-form="final" 
d="M491 139q0 8 0.5 16.5t0.5 18.5q-19 -6 -40 -8.5t-41 -2.5q-40 0 -85 9q6 -30 6 -58q0 -101 -76 -187t-214 -133l-62 107q73 26 131.5 61.5t92.5 73t34 69.5q0 20 -13.5 56t-36.5 82l91 60q31 -11 71 -16t74 -5q38 0 74.5 6t67.5 16l23 -21q-4 -29 -7 -56.5t-3 -38.5
q0 -36 23 -50.5t77 -14.5l16 -10v-103l-16 -10q-100 0 -144 34.5t-44 104.5zM374 -143l70 71l71 -71l-71 -71zM588 -72l70 -71l-70 -71l-71 71zM206 376l-72 73l72 73l72 -73z" />
    <glyph glyph-name="yeh_uni0645.fina" unicode="&#xfc93;" horiz-adv-x="664" arabic-form="final" 
d="M266 151q0 -19 19.5 -36.5t76.5 -44.5l30 -15l-60 -112l-27 15q-37 20 -64.5 28t-54.5 8t-38 -13t-11 -42l-1 -310l-94 -9l-4 321q-1 80 36 124.5t101 44.5h12q-12 24 -12 49q0 33 20 67t53 62.5t74.5 46t83.5 17.5q52 0 86.5 -25t62.5 -89q22 -47 37.5 -72t32 -34
t39.5 -9l16 -11v-102l-16 -10q-48 0 -79 15t-55 50t-51 96q-18 41 -36.5 56t-48.5 15t-59.5 -12.5t-49 -31t-19.5 -37.5zM341 -143l70 71l71 -71l-71 -71zM555 -72l70 -71l-70 -71l-71 71z" />
    <glyph glyph-name="yeh_uni0646.fina" unicode="&#xfc94;" horiz-adv-x="910" arabic-form="final" 
d="M721 139q0 16 2 35q-19 -6 -40 -8.5t-41 -2.5q-42 0 -88 10q11 -38 17 -75t6 -64q0 -70 -34.5 -123.5t-94.5 -83.5t-139 -30q-124 0 -196.5 64t-72.5 173q0 56 21.5 116.5t59.5 109.5l69 -43q-49 -82 -49 -154q0 -65 44.5 -103.5t123.5 -38.5q49 0 87.5 14t61.5 37t23 50
q0 75 -65 218l93 63q31 -11 71 -16t75 -5q38 0 74 6t67 16l23 -21q-4 -29 -6.5 -56.5t-2.5 -38.5q0 -36 23 -50.5t77 -14.5l16 -10v-103l-16 -10q-101 0 -145 34.5t-44 104.5zM632 -143l70 71l71 -71l-71 -71zM846 -72l70 -71l-70 -71l-71 71zM301 324l-72 73l72 73l72 -73z
" />
    <glyph glyph-name="yeh_uni0649.fina" unicode="&#xfc95;" horiz-adv-x="880" arabic-form="final" 
d="M494 165q0 -10 9 -18.5t31 -18.5q51 -22 72 -45.5t21 -59.5q0 -60 -41.5 -111.5t-115 -83t-170.5 -31.5q-77 0 -136 28.5t-91.5 82t-32.5 126.5q0 56 21.5 116.5t59.5 109.5l69 -43q-49 -82 -49 -154q0 -65 46.5 -103.5t128.5 -38.5q62 0 108.5 14t72.5 35t26 41
q0 11 -10.5 19.5t-39.5 22.5q-47 23 -66 48.5t-19 59.5q0 35 20 68.5t53.5 61.5t75.5 44.5t86 16.5q52 0 86 -25t63 -89q21 -47 37 -72t32.5 -34t38.5 -9l16 -11v-102l-16 -10q-48 0 -78.5 15t-54.5 50t-51 96q-19 41 -37 56t-48 15q-26 0 -53.5 -10.5t-45.5 -25.5t-18 -31z
M615 -143l70 71l71 -71l-71 -71zM829 -72l70 -71l-70 -71l-71 71z" />
    <glyph glyph-name="yeh_uni064A.fina" unicode="&#xfc96;" horiz-adv-x="880" arabic-form="final" 
d="M494 165q0 -10 9 -18.5t31 -18.5q51 -22 72 -45.5t21 -59.5q0 -60 -41.5 -111.5t-115 -83t-170.5 -31.5q-77 0 -136 28.5t-91.5 82t-32.5 126.5q0 56 21.5 116.5t59.5 109.5l69 -43q-49 -82 -49 -154q0 -65 46.5 -103.5t128.5 -38.5q62 0 108.5 14t72.5 35t26 41
q0 11 -10.5 19.5t-39.5 22.5q-47 23 -66 48.5t-19 59.5q0 35 20 68.5t53.5 61.5t75.5 44.5t86 16.5q52 0 86 -25t63 -89q21 -47 37 -72t32.5 -34t38.5 -9l16 -11v-102l-16 -10q-48 0 -78.5 15t-54.5 50t-51 96q-19 41 -37 56t-48 15q-26 0 -53.5 -10.5t-45.5 -25.5t-18 -31z
M615 -143l70 71l71 -71l-71 -71zM829 -72l70 -71l-70 -71l-71 71zM156 -346l70 71l71 -71l-71 -71zM370 -275l70 -71l-70 -71l-71 71z" />
    <glyph glyph-name="seen_uni0645.init" unicode="&#xfcb0;" horiz-adv-x="1027" arabic-form="initial" 
d="M-16 113l16 10h36q14 0 30 -3q-8 20 -8 39q0 33 19.5 67t52.5 62.5t74 46t85 17.5q52 0 86 -25.5t63 -88.5q23 -50 39.5 -76t32.5 -35t39 -9q29 0 49.5 15t27.5 52q3 13 6.5 35t7 45t5.5 38l91 -12q-6 -46 -9.5 -77.5t-3.5 -39.5q0 -26 21 -41t56 -15q37 0 63 15.5
t26 37.5q0 35 -18 90t-46 106l97 54q19 -34 32.5 -76.5t21.5 -83.5t8 -71q0 -88 -46.5 -139t-144.5 -51q-84 0 -127 48q-47 -48 -127 -48q-44 0 -74 15t-53.5 50.5t-49.5 95.5q-18 42 -37 56.5t-48 14.5q-31 0 -60.5 -12.5t-49 -31t-19.5 -37.5t19.5 -36t77.5 -45l30 -15
l-60 -112l-22 12q-42 23 -75 34t-73 11h-45l-16 11v102z" />
    <glyph glyph-name="sad_uni0645.init" unicode="&#xfcb3;" horiz-adv-x="997" arabic-form="initial" 
d="M-16 113l16 10h36q14 0 30 -3q-8 20 -8 39q0 33 19.5 67t52.5 62.5t74 46t85 17.5q53 0 86.5 -25.5t62.5 -88.5q16 -34 30 -61t36 -41q65 142 136.5 213t144.5 71q50 0 90 -28.5t64 -77t24 -109.5q0 -103 -82.5 -158.5t-237.5 -55.5q-81 0 -133 15t-85.5 52t-62.5 103
q-18 42 -37 56.5t-48 14.5q-31 0 -60.5 -12.5t-49 -31t-19.5 -37.5t19.5 -36t77.5 -45l30 -15l-60 -112l-22 12q-42 23 -75 34t-73 11h-45l-16 11v102zM846 273q-27 28 -63 28q-48 0 -97.5 -48t-97.5 -138q36 -4 68 -4q106 0 161.5 25t55.5 71q0 38 -27 66z" />
    <glyph glyph-name="dad_uni0645.init" unicode="&#xfcb7;" horiz-adv-x="997" arabic-form="initial" 
d="M-16 113l16 10h36q14 0 30 -3q-8 20 -8 39q0 33 19.5 67t52.5 62.5t74 46t85 17.5q53 0 86.5 -25.5t62.5 -88.5q16 -34 30 -61t36 -41q65 142 136.5 213t144.5 71q50 0 90 -28.5t64 -77t24 -109.5q0 -103 -82.5 -158.5t-237.5 -55.5q-81 0 -133 15t-85.5 52t-62.5 103
q-18 42 -37 56.5t-48 14.5q-31 0 -60.5 -12.5t-49 -31t-19.5 -37.5t19.5 -36t77.5 -45l30 -15l-60 -112l-22 12q-42 23 -75 34t-73 11h-45l-16 11v102zM846 273q-27 28 -63 28q-48 0 -97.5 -48t-97.5 -138q36 -4 68 -4q106 0 161.5 25t55.5 71q0 38 -27 66zM747 497l-72 73
l72 73l72 -73z" />
    <glyph glyph-name="uniFCCC" unicode="&#xfccc;" horiz-adv-x="346" arabic-form="initial" 
d="M-16 113l16 10h55q38 0 74 -7q-12 22 -16.5 46t-4.5 56l-4 417l104 18l-4 -448q0 -31 7 -52t25.5 -37.5t54.5 -33.5l33 -17l-62 -115l-28 16q-37 20 -76 27t-98 7h-60l-16 11v102z" />
    <glyph glyph-name="yehHamzaabove_uni0645.medi" unicode="&#xfcdf;" horiz-adv-x="547" arabic-form="medial" 
d="M148 151q0 -19 19.5 -36t77.5 -45l30 -15l-60 -112l-22 12q-42 23 -75 34t-73 11h-45l-16 11v102l16 10h36q14 0 30 -3q-8 20 -8 39q0 33 20 67t53 62.5t74.5 46t83.5 17.5q52 0 86.5 -25t62.5 -89q21 -47 37 -72t32.5 -34t39.5 -9l16 -11v-102l-16 -10q-48 0 -79 15
t-55 50t-51 96q-19 41 -37 56t-48 15t-60 -12.5t-49.5 -31t-19.5 -37.5zM206 527q0 34 23 57.5t57 23.5q39 0 61 -32l-22 -32q-8 5 -16.5 7.5t-17.5 2.5q-16 0 -27 -8t-11 -20q0 -14 15.5 -23t40.5 -12q34 7 64 8l-8 -57q-42 -3 -81 -10t-79 -20l-17 44q22 9 48 17
q-30 21 -30 54z" />
    <glyph glyph-name="beh_uni0645.medi" unicode="&#xfce1;" horiz-adv-x="547" arabic-form="medial" 
d="M148 151q0 -19 19.5 -36t77.5 -45l30 -15l-60 -112l-22 12q-42 23 -75 34t-73 11h-45l-16 11v102l16 10h36q14 0 30 -3q-8 20 -8 39q0 33 20 67t53 62.5t74.5 46t83.5 17.5q52 0 86.5 -25t62.5 -89q21 -47 37 -72t32.5 -34t39.5 -9l16 -11v-102l-16 -10q-48 0 -79 15
t-55 50t-51 96q-19 41 -37 56t-48 15t-60 -12.5t-49.5 -31t-19.5 -37.5zM369 -217l-72 73l72 72l72 -72z" />
    <glyph glyph-name="teh_uni0645.medi" unicode="&#xfce3;" horiz-adv-x="547" arabic-form="medial" 
d="M148 151q0 -19 19.5 -36t77.5 -45l30 -15l-60 -112l-22 12q-42 23 -75 34t-73 11h-45l-16 11v102l16 10h36q14 0 30 -3q-8 20 -8 39q0 33 20 67t53 62.5t74.5 46t83.5 17.5q52 0 86.5 -25t62.5 -89q21 -47 37 -72t32.5 -34t39.5 -9l16 -11v-102l-16 -10q-48 0 -79 15
t-55 50t-51 96q-19 41 -37 56t-48 15t-60 -12.5t-49.5 -31t-19.5 -37.5zM207 565l71 -72l-71 -71l-70 71zM351 565l70 -72l-70 -71l-71 71z" />
    <glyph glyph-name="theh_uni0645.medi" unicode="&#xfce5;" horiz-adv-x="547" arabic-form="medial" 
d="M148 151q0 -19 19.5 -36t77.5 -45l30 -15l-60 -112l-22 12q-42 23 -75 34t-73 11h-45l-16 11v102l16 10h36q14 0 30 -3q-8 20 -8 39q0 33 20 67t53 62.5t74.5 46t83.5 17.5q52 0 86.5 -25t62.5 -89q21 -47 37 -72t32.5 -34t39.5 -9l16 -11v-102l-16 -10q-48 0 -79 15
t-55 50t-51 96q-19 41 -37 56t-48 15t-60 -12.5t-49.5 -31t-19.5 -37.5zM138 492l69 70l71 -70l-71 -70zM351 562l69 -70l-69 -70l-71 70zM279 697l69 -69l-69 -69l-69 69z" />
    <glyph glyph-name="seen_uni0645.medi" unicode="&#xfce7;" horiz-adv-x="1062" arabic-form="medial" 
d="M148 151q0 -19 19.5 -36t77.5 -45l30 -15l-60 -112l-22 12q-42 23 -75 34t-73 11h-45l-16 11v102l16 10h36q14 0 30 -3q-8 20 -8 39q0 33 19.5 67t52.5 62.5t74 46t85 17.5q52 0 86 -25.5t63 -88.5q23 -50 39.5 -76t32.5 -35t39 -9q29 0 49.5 15t27.5 52q3 13 6.5 35
t7 45t5.5 38l91 -12q-6 -46 -9.5 -77.5t-3.5 -39.5q0 -26 20 -41t55 -15q68 0 80 56q4 18 9 60t7 85l94 -9q-3 -48 -6.5 -86.5t-8.5 -67.5q22 -33 89 -33l16 -10v-103l-16 -10q-91 0 -136 46q-47 -46 -136 -46q-81 0 -125 48q-46 -48 -126 -48q-44 0 -74 15t-53.5 50.5
t-49.5 95.5q-18 42 -37 56.5t-48 14.5q-31 0 -60.5 -12.5t-49 -31t-19.5 -37.5z" />
    <glyph glyph-name="sheen_uni0645.medi" unicode="&#xfce9;" horiz-adv-x="1062" arabic-form="medial" 
d="M148 151q0 -19 19.5 -36t77.5 -45l30 -15l-60 -112l-22 12q-42 23 -75 34t-73 11h-45l-16 11v102l16 10h36q14 0 30 -3q-8 20 -8 39q0 33 19.5 67t52.5 62.5t74 46t85 17.5q52 0 86 -25.5t63 -88.5q23 -50 39.5 -76t32.5 -35t39 -9q29 0 49.5 15t27.5 52q3 13 6.5 35
t7 45t5.5 38l91 -12q-6 -46 -9.5 -77.5t-3.5 -39.5q0 -26 20 -41t55 -15q68 0 80 56q4 18 9 60t7 85l94 -9q-3 -48 -6.5 -86.5t-8.5 -67.5q22 -33 89 -33l16 -10v-103l-16 -10q-91 0 -136 46q-47 -46 -136 -46q-81 0 -125 48q-46 -48 -126 -48q-44 0 -74 15t-53.5 50.5
t-49.5 95.5q-18 42 -37 56.5t-48 14.5q-31 0 -60.5 -12.5t-49 -31t-19.5 -37.5zM555 484l69 70l71 -70l-71 -70zM768 554l69 -70l-69 -70l-71 70zM696 689l69 -69l-69 -69l-69 69z" />
    <glyph glyph-name="noon_uni0645.medi" unicode="&#xfcee;" horiz-adv-x="547" arabic-form="medial" 
d="M148 151q0 -19 19.5 -36t77.5 -45l30 -15l-60 -112l-22 12q-42 23 -75 34t-73 11h-45l-16 11v102l16 10h36q14 0 30 -3q-8 20 -8 39q0 33 20 67t53 62.5t74.5 46t83.5 17.5q52 0 86.5 -25t62.5 -89q21 -47 37 -72t32.5 -34t39.5 -9l16 -11v-102l-16 -10q-48 0 -79 15
t-55 50t-51 96q-19 41 -37 56t-48 15t-60 -12.5t-49.5 -31t-19.5 -37.5zM279 422l-72 73l72 73l72 -73z" />
    <glyph glyph-name="yeh_uni0645.medi" unicode="&#xfcf0;" horiz-adv-x="547" arabic-form="medial" 
d="M148 151q0 -19 19.5 -36t77.5 -45l30 -15l-60 -112l-22 12q-42 23 -75 34t-73 11h-45l-16 11v102l16 10h36q14 0 30 -3q-8 20 -8 39q0 33 20 67t53 62.5t74.5 46t83.5 17.5q52 0 86.5 -25t62.5 -89q21 -47 37 -72t32.5 -34t39.5 -9l16 -11v-102l-16 -10q-48 0 -79 15
t-55 50t-51 96q-19 41 -37 56t-48 15t-60 -12.5t-49.5 -31t-19.5 -37.5zM227 -143l70 71l71 -71l-71 -71zM441 -72l70 -71l-70 -71l-71 71z" />
    <glyph glyph-name="uniFCFB" unicode="&#xfcfb;" horiz-adv-x="1349" arabic-form="isolated" 
d="M1318 190q0 -88 -46.5 -139t-144.5 -51q-84 0 -127 48q-47 -48 -127 -48q-44 0 -74 15t-53.5 50.5t-49.5 95.5q-18 42 -37 56.5t-48 14.5q-26 0 -53.5 -10.5t-45.5 -25.5t-18 -31q0 -10 9 -18.5t31 -18.5q51 -22 72 -45.5t21 -59.5q0 -60 -41.5 -111.5t-115 -83
t-170.5 -31.5q-77 0 -136 28.5t-91.5 82t-32.5 126.5q0 56 21.5 116.5t59.5 109.5l69 -43q-49 -82 -49 -154q0 -65 46.5 -103.5t128.5 -38.5q62 0 108.5 14t72.5 35t26 41q0 11 -10.5 19.5t-39.5 22.5q-47 23 -66 48.5t-19 59.5q0 35 20 68.5t53.5 61.5t75.5 44.5t86 16.5
q52 0 86 -25.5t63 -88.5q23 -50 39.5 -76t32.5 -35t39 -9q29 0 49 15t27 52q3 13 6.5 35t7 45t5.5 38l92 -12q-6 -46 -10 -77.5t-4 -39.5q0 -26 21 -41t56 -15q37 0 63.5 15.5t26.5 37.5q0 35 -18 90t-46 106l96 54q19 -34 33 -76.5t22 -83.5t8 -71z" />
    <glyph glyph-name="uniFCFC" unicode="&#xfcfc;" horiz-adv-x="1349" arabic-form="isolated" 
d="M1318 190q0 -88 -46.5 -139t-144.5 -51q-84 0 -127 48q-47 -48 -127 -48q-44 0 -74 15t-53.5 50.5t-49.5 95.5q-18 42 -37 56.5t-48 14.5q-26 0 -53.5 -10.5t-45.5 -25.5t-18 -31q0 -10 9 -18.5t31 -18.5q51 -22 72 -45.5t21 -59.5q0 -60 -41.5 -111.5t-115 -83
t-170.5 -31.5q-77 0 -136 28.5t-91.5 82t-32.5 126.5q0 56 21.5 116.5t59.5 109.5l69 -43q-49 -82 -49 -154q0 -65 46.5 -103.5t128.5 -38.5q62 0 108.5 14t72.5 35t26 41q0 11 -10.5 19.5t-39.5 22.5q-47 23 -66 48.5t-19 59.5q0 35 20 68.5t53.5 61.5t75.5 44.5t86 16.5
q52 0 86 -25.5t63 -88.5q23 -50 39.5 -76t32.5 -35t39 -9q29 0 49 15t27 52q3 13 6.5 35t7 45t5.5 38l92 -12q-6 -46 -10 -77.5t-4 -39.5q0 -26 21 -41t56 -15q37 0 63.5 15.5t26.5 37.5q0 35 -18 90t-46 106l96 54q19 -34 33 -76.5t22 -83.5t8 -71zM156 -346l70 71l71 -71
l-71 -71zM370 -275l70 -71l-70 -71l-71 71z" />
    <glyph glyph-name="uniFCFD" unicode="&#xfcfd;" horiz-adv-x="1349" arabic-form="isolated" 
d="M1318 190q0 -88 -46.5 -139t-144.5 -51q-84 0 -127 48q-47 -48 -127 -48q-44 0 -74 15t-53.5 50.5t-49.5 95.5q-18 42 -37 56.5t-48 14.5q-26 0 -53.5 -10.5t-45.5 -25.5t-18 -31q0 -10 9 -18.5t31 -18.5q51 -22 72 -45.5t21 -59.5q0 -60 -41.5 -111.5t-115 -83
t-170.5 -31.5q-77 0 -136 28.5t-91.5 82t-32.5 126.5q0 56 21.5 116.5t59.5 109.5l69 -43q-49 -82 -49 -154q0 -65 46.5 -103.5t128.5 -38.5q62 0 108.5 14t72.5 35t26 41q0 11 -10.5 19.5t-39.5 22.5q-47 23 -66 48.5t-19 59.5q0 35 20 68.5t53.5 61.5t75.5 44.5t86 16.5
q52 0 86 -25.5t63 -88.5q23 -50 39.5 -76t32.5 -35t39 -9q29 0 49 15t27 52q3 13 6.5 35t7 45t5.5 38l92 -12q-6 -46 -10 -77.5t-4 -39.5q0 -26 21 -41t56 -15q37 0 63.5 15.5t26.5 37.5q0 35 -18 90t-46 106l96 54q19 -34 33 -76.5t22 -83.5t8 -71zM849 487l69 70l71 -70
l-71 -70zM1062 557l69 -70l-69 -70l-71 70zM990 692l69 -69l-69 -69l-69 69z" />
    <glyph glyph-name="uniFCFE" unicode="&#xfcfe;" horiz-adv-x="1349" arabic-form="isolated" 
d="M1318 190q0 -88 -46.5 -139t-144.5 -51q-84 0 -127 48q-47 -48 -127 -48q-44 0 -74 15t-53.5 50.5t-49.5 95.5q-18 42 -37 56.5t-48 14.5q-26 0 -53.5 -10.5t-45.5 -25.5t-18 -31q0 -10 9 -18.5t31 -18.5q51 -22 72 -45.5t21 -59.5q0 -60 -41.5 -111.5t-115 -83
t-170.5 -31.5q-77 0 -136 28.5t-91.5 82t-32.5 126.5q0 56 21.5 116.5t59.5 109.5l69 -43q-49 -82 -49 -154q0 -65 46.5 -103.5t128.5 -38.5q62 0 108.5 14t72.5 35t26 41q0 11 -10.5 19.5t-39.5 22.5q-47 23 -66 48.5t-19 59.5q0 35 20 68.5t53.5 61.5t75.5 44.5t86 16.5
q52 0 86 -25.5t63 -88.5q23 -50 39.5 -76t32.5 -35t39 -9q29 0 49 15t27 52q3 13 6.5 35t7 45t5.5 38l92 -12q-6 -46 -10 -77.5t-4 -39.5q0 -26 21 -41t56 -15q37 0 63.5 15.5t26.5 37.5q0 35 -18 90t-46 106l96 54q19 -34 33 -76.5t22 -83.5t8 -71zM849 487l69 70l71 -70
l-71 -70zM1062 557l69 -70l-69 -70l-71 70zM990 692l69 -69l-69 -69l-69 69zM156 -346l70 71l71 -71l-71 -71zM370 -275l70 -71l-70 -71l-71 71z" />
    <glyph glyph-name="uniFD05" unicode="&#xfd05;" horiz-adv-x="1331" arabic-form="isolated" 
d="M141 63q0 -65 46.5 -103.5t128.5 -38.5q62 0 108.5 14t72.5 35t26 41q0 11 -10.5 19.5t-39.5 22.5q-47 23 -66 48.5t-19 59.5q0 35 20 68.5t53.5 61.5t75.5 44.5t86 16.5q52 0 86 -25.5t63 -88.5q15 -34 29.5 -61t36.5 -41q65 142 136.5 213t144.5 71q50 0 90 -28.5
t64 -77t24 -109.5q0 -103 -83 -158.5t-238 -55.5q-81 0 -132.5 15t-85 52t-62.5 103q-18 42 -37 56.5t-48 14.5q-26 0 -53.5 -10.5t-45.5 -25.5t-18 -31q0 -10 9 -18.5t31 -18.5q51 -22 72 -45.5t21 -59.5q0 -60 -41.5 -111.5t-115 -83t-170.5 -31.5q-77 0 -136 28.5
t-91.5 82t-32.5 126.5q0 56 21.5 116.5t59.5 109.5l69 -43q-49 -82 -49 -154zM1180 273q-27 28 -63 28q-48 0 -98 -48t-98 -138q36 -4 69 -4q105 0 161 25t56 71q0 38 -27 66z" />
    <glyph glyph-name="uniFD06" unicode="&#xfd06;" horiz-adv-x="1331" arabic-form="isolated" 
d="M141 63q0 -65 46.5 -103.5t128.5 -38.5q62 0 108.5 14t72.5 35t26 41q0 11 -10.5 19.5t-39.5 22.5q-47 23 -66 48.5t-19 59.5q0 35 20 68.5t53.5 61.5t75.5 44.5t86 16.5q52 0 86 -25.5t63 -88.5q15 -34 29.5 -61t36.5 -41q65 142 136.5 213t144.5 71q50 0 90 -28.5
t64 -77t24 -109.5q0 -103 -83 -158.5t-238 -55.5q-81 0 -132.5 15t-85 52t-62.5 103q-18 42 -37 56.5t-48 14.5q-26 0 -53.5 -10.5t-45.5 -25.5t-18 -31q0 -10 9 -18.5t31 -18.5q51 -22 72 -45.5t21 -59.5q0 -60 -41.5 -111.5t-115 -83t-170.5 -31.5q-77 0 -136 28.5
t-91.5 82t-32.5 126.5q0 56 21.5 116.5t59.5 109.5l69 -43q-49 -82 -49 -154zM1180 273q-27 28 -63 28q-48 0 -98 -48t-98 -138q36 -4 69 -4q105 0 161 25t56 71q0 38 -27 66zM156 -346l70 71l71 -71l-71 -71zM370 -275l70 -71l-70 -71l-71 71z" />
    <glyph glyph-name="uniFD07" unicode="&#xfd07;" horiz-adv-x="1331" arabic-form="isolated" 
d="M141 63q0 -65 46.5 -103.5t128.5 -38.5q62 0 108.5 14t72.5 35t26 41q0 11 -10.5 19.5t-39.5 22.5q-47 23 -66 48.5t-19 59.5q0 35 20 68.5t53.5 61.5t75.5 44.5t86 16.5q52 0 86 -25.5t63 -88.5q15 -34 29.5 -61t36.5 -41q65 142 136.5 213t144.5 71q50 0 90 -28.5
t64 -77t24 -109.5q0 -103 -83 -158.5t-238 -55.5q-81 0 -132.5 15t-85 52t-62.5 103q-18 42 -37 56.5t-48 14.5q-26 0 -53.5 -10.5t-45.5 -25.5t-18 -31q0 -10 9 -18.5t31 -18.5q51 -22 72 -45.5t21 -59.5q0 -60 -41.5 -111.5t-115 -83t-170.5 -31.5q-77 0 -136 28.5
t-91.5 82t-32.5 126.5q0 56 21.5 116.5t59.5 109.5l69 -43q-49 -82 -49 -154zM1180 273q-27 28 -63 28q-48 0 -98 -48t-98 -138q36 -4 69 -4q105 0 161 25t56 71q0 38 -27 66zM1095 497l-72 73l72 73l72 -73z" />
    <glyph glyph-name="uniFD08" unicode="&#xfd08;" horiz-adv-x="1331" arabic-form="isolated" 
d="M141 63q0 -65 46.5 -103.5t128.5 -38.5q62 0 108.5 14t72.5 35t26 41q0 11 -10.5 19.5t-39.5 22.5q-47 23 -66 48.5t-19 59.5q0 35 20 68.5t53.5 61.5t75.5 44.5t86 16.5q52 0 86 -25.5t63 -88.5q15 -34 29.5 -61t36.5 -41q65 142 136.5 213t144.5 71q50 0 90 -28.5
t64 -77t24 -109.5q0 -103 -83 -158.5t-238 -55.5q-81 0 -132.5 15t-85 52t-62.5 103q-18 42 -37 56.5t-48 14.5q-26 0 -53.5 -10.5t-45.5 -25.5t-18 -31q0 -10 9 -18.5t31 -18.5q51 -22 72 -45.5t21 -59.5q0 -60 -41.5 -111.5t-115 -83t-170.5 -31.5q-77 0 -136 28.5
t-91.5 82t-32.5 126.5q0 56 21.5 116.5t59.5 109.5l69 -43q-49 -82 -49 -154zM1180 273q-27 28 -63 28q-48 0 -98 -48t-98 -138q36 -4 69 -4q105 0 161 25t56 71q0 38 -27 66zM1095 497l-72 73l72 73l72 -73zM156 -346l70 71l71 -71l-71 -71zM370 -275l70 -71l-70 -71
l-71 71z" />
    <glyph glyph-name="uniFD17" unicode="&#xfd17;" horiz-adv-x="1396" arabic-form="final" 
d="M494 165q0 -10 9 -18.5t31 -18.5q51 -22 72 -45.5t21 -59.5q0 -60 -41.5 -111.5t-115 -83t-170.5 -31.5q-77 0 -136 28.5t-91.5 82t-32.5 126.5q0 56 21.5 116.5t59.5 109.5l69 -43q-49 -82 -49 -154q0 -65 46.5 -103.5t128.5 -38.5q62 0 108.5 14t72.5 35t26 41
q0 11 -10.5 19.5t-39.5 22.5q-47 23 -66 48.5t-19 59.5q0 35 20 68.5t53.5 61.5t75.5 44.5t86 16.5q52 0 86 -25.5t63 -88.5q23 -50 39.5 -76t32.5 -35t39 -9q29 0 49 15t27 52q3 13 6.5 35t7 45t5.5 38l92 -12q-6 -46 -10 -77.5t-4 -39.5q0 -26 20 -41t56 -15q68 0 79 56
q4 18 9 60t8 85l94 -9q-3 -48 -6.5 -87t-8.5 -68q22 -32 89 -32l16 -10v-103l-16 -10q-91 0 -136 46q-47 -46 -136 -46q-82 0 -125 48q-46 -48 -126 -48q-44 0 -74 15t-53.5 50.5t-49.5 95.5q-18 42 -37 56.5t-48 14.5q-26 0 -53.5 -10.5t-45.5 -25.5t-18 -31z" />
    <glyph glyph-name="uniFD18" unicode="&#xfd18;" horiz-adv-x="1396" arabic-form="final" 
d="M494 165q0 -10 9 -18.5t31 -18.5q51 -22 72 -45.5t21 -59.5q0 -60 -41.5 -111.5t-115 -83t-170.5 -31.5q-77 0 -136 28.5t-91.5 82t-32.5 126.5q0 56 21.5 116.5t59.5 109.5l69 -43q-49 -82 -49 -154q0 -65 46.5 -103.5t128.5 -38.5q62 0 108.5 14t72.5 35t26 41
q0 11 -10.5 19.5t-39.5 22.5q-47 23 -66 48.5t-19 59.5q0 35 20 68.5t53.5 61.5t75.5 44.5t86 16.5q52 0 86 -25.5t63 -88.5q23 -50 39.5 -76t32.5 -35t39 -9q29 0 49 15t27 52q3 13 6.5 35t7 45t5.5 38l92 -12q-6 -46 -10 -77.5t-4 -39.5q0 -26 20 -41t56 -15q68 0 79 56
q4 18 9 60t8 85l94 -9q-3 -48 -6.5 -87t-8.5 -68q22 -32 89 -32l16 -10v-103l-16 -10q-91 0 -136 46q-47 -46 -136 -46q-82 0 -125 48q-46 -48 -126 -48q-44 0 -74 15t-53.5 50.5t-49.5 95.5q-18 42 -37 56.5t-48 14.5q-26 0 -53.5 -10.5t-45.5 -25.5t-18 -31zM156 -346
l70 71l71 -71l-71 -71zM370 -275l70 -71l-70 -71l-71 71z" />
    <glyph glyph-name="uniFD19" unicode="&#xfd19;" horiz-adv-x="1396" arabic-form="final" 
d="M494 165q0 -10 9 -18.5t31 -18.5q51 -22 72 -45.5t21 -59.5q0 -60 -41.5 -111.5t-115 -83t-170.5 -31.5q-77 0 -136 28.5t-91.5 82t-32.5 126.5q0 56 21.5 116.5t59.5 109.5l69 -43q-49 -82 -49 -154q0 -65 46.5 -103.5t128.5 -38.5q62 0 108.5 14t72.5 35t26 41
q0 11 -10.5 19.5t-39.5 22.5q-47 23 -66 48.5t-19 59.5q0 35 20 68.5t53.5 61.5t75.5 44.5t86 16.5q52 0 86 -25.5t63 -88.5q23 -50 39.5 -76t32.5 -35t39 -9q29 0 49 15t27 52q3 13 6.5 35t7 45t5.5 38l92 -12q-6 -46 -10 -77.5t-4 -39.5q0 -26 20 -41t56 -15q68 0 79 56
q4 18 9 60t8 85l94 -9q-3 -48 -6.5 -87t-8.5 -68q22 -32 89 -32l16 -10v-103l-16 -10q-91 0 -136 46q-47 -46 -136 -46q-82 0 -125 48q-46 -48 -126 -48q-44 0 -74 15t-53.5 50.5t-49.5 95.5q-18 42 -37 56.5t-48 14.5q-26 0 -53.5 -10.5t-45.5 -25.5t-18 -31zM889 484
l69 70l71 -70l-71 -70zM1102 554l69 -70l-69 -70l-71 70zM1030 689l69 -69l-69 -69l-69 69z" />
    <glyph glyph-name="uniFD1A" unicode="&#xfd1a;" horiz-adv-x="1396" arabic-form="final" 
d="M494 165q0 -10 9 -18.5t31 -18.5q51 -22 72 -45.5t21 -59.5q0 -60 -41.5 -111.5t-115 -83t-170.5 -31.5q-77 0 -136 28.5t-91.5 82t-32.5 126.5q0 56 21.5 116.5t59.5 109.5l69 -43q-49 -82 -49 -154q0 -65 46.5 -103.5t128.5 -38.5q62 0 108.5 14t72.5 35t26 41
q0 11 -10.5 19.5t-39.5 22.5q-47 23 -66 48.5t-19 59.5q0 35 20 68.5t53.5 61.5t75.5 44.5t86 16.5q52 0 86 -25.5t63 -88.5q23 -50 39.5 -76t32.5 -35t39 -9q29 0 49 15t27 52q3 13 6.5 35t7 45t5.5 38l92 -12q-6 -46 -10 -77.5t-4 -39.5q0 -26 20 -41t56 -15q68 0 79 56
q4 18 9 60t8 85l94 -9q-3 -48 -6.5 -87t-8.5 -68q22 -32 89 -32l16 -10v-103l-16 -10q-91 0 -136 46q-47 -46 -136 -46q-82 0 -125 48q-46 -48 -126 -48q-44 0 -74 15t-53.5 50.5t-49.5 95.5q-18 42 -37 56.5t-48 14.5q-26 0 -53.5 -10.5t-45.5 -25.5t-18 -31zM889 484
l69 70l71 -70l-71 -70zM1102 554l69 -70l-69 -70l-71 70zM1030 689l69 -69l-69 -69l-69 69zM156 -346l70 71l71 -71l-71 -71zM370 -275l70 -71l-70 -71l-71 71z" />
    <glyph glyph-name="uniFD21" unicode="&#xfd21;" horiz-adv-x="1351" arabic-form="final" 
d="M494 165q0 -10 9 -18.5t31 -18.5q51 -22 72 -45.5t21 -59.5q0 -60 -41.5 -111.5t-115 -83t-170.5 -31.5q-77 0 -136 28.5t-91.5 82t-32.5 126.5q0 56 21.5 116.5t59.5 109.5l69 -43q-49 -82 -49 -154q0 -65 46.5 -103.5t128.5 -38.5q62 0 108.5 14t72.5 35t26 41
q0 11 -10.5 19.5t-39.5 22.5q-47 23 -66 48.5t-19 59.5q0 35 20 68.5t53.5 61.5t75.5 44.5t86 16.5q52 0 86 -25.5t63 -88.5q15 -34 29.5 -61t36.5 -41q65 142 136.5 213t144.5 71q50 0 90 -28.5t64 -77t24 -109.5q0 -37 -11 -68q23 -14 65 -14l16 -10v-103l-16 -10
q-86 0 -134 49q-83 -58 -241 -58q-81 0 -132.5 15t-85 52t-62.5 103q-18 42 -37 56.5t-48 14.5q-26 0 -53.5 -10.5t-45.5 -25.5t-18 -31zM1180 273q-27 28 -63 28q-48 0 -98 -48t-98 -138q36 -4 69 -4q105 0 161 25t56 71q0 38 -27 66z" />
    <glyph glyph-name="uniFD22" unicode="&#xfd22;" horiz-adv-x="1351" arabic-form="final" 
d="M494 165q0 -10 9 -18.5t31 -18.5q51 -22 72 -45.5t21 -59.5q0 -60 -41.5 -111.5t-115 -83t-170.5 -31.5q-77 0 -136 28.5t-91.5 82t-32.5 126.5q0 56 21.5 116.5t59.5 109.5l69 -43q-49 -82 -49 -154q0 -65 46.5 -103.5t128.5 -38.5q62 0 108.5 14t72.5 35t26 41
q0 11 -10.5 19.5t-39.5 22.5q-47 23 -66 48.5t-19 59.5q0 35 20 68.5t53.5 61.5t75.5 44.5t86 16.5q52 0 86 -25.5t63 -88.5q15 -34 29.5 -61t36.5 -41q65 142 136.5 213t144.5 71q50 0 90 -28.5t64 -77t24 -109.5q0 -37 -11 -68q23 -14 65 -14l16 -10v-103l-16 -10
q-86 0 -134 49q-83 -58 -241 -58q-81 0 -132.5 15t-85 52t-62.5 103q-18 42 -37 56.5t-48 14.5q-26 0 -53.5 -10.5t-45.5 -25.5t-18 -31zM1180 273q-27 28 -63 28q-48 0 -98 -48t-98 -138q36 -4 69 -4q105 0 161 25t56 71q0 38 -27 66zM156 -346l70 71l71 -71l-71 -71z
M370 -275l70 -71l-70 -71l-71 71z" />
    <glyph glyph-name="uniFD23" unicode="&#xfd23;" horiz-adv-x="1351" arabic-form="final" 
d="M494 165q0 -10 9 -18.5t31 -18.5q51 -22 72 -45.5t21 -59.5q0 -60 -41.5 -111.5t-115 -83t-170.5 -31.5q-77 0 -136 28.5t-91.5 82t-32.5 126.5q0 56 21.5 116.5t59.5 109.5l69 -43q-49 -82 -49 -154q0 -65 46.5 -103.5t128.5 -38.5q62 0 108.5 14t72.5 35t26 41
q0 11 -10.5 19.5t-39.5 22.5q-47 23 -66 48.5t-19 59.5q0 35 20 68.5t53.5 61.5t75.5 44.5t86 16.5q52 0 86 -25.5t63 -88.5q15 -34 29.5 -61t36.5 -41q65 142 136.5 213t144.5 71q50 0 90 -28.5t64 -77t24 -109.5q0 -37 -11 -68q23 -14 65 -14l16 -10v-103l-16 -10
q-86 0 -134 49q-83 -58 -241 -58q-81 0 -132.5 15t-85 52t-62.5 103q-18 42 -37 56.5t-48 14.5q-26 0 -53.5 -10.5t-45.5 -25.5t-18 -31zM1180 273q-27 28 -63 28q-48 0 -98 -48t-98 -138q36 -4 69 -4q105 0 161 25t56 71q0 38 -27 66zM1095 497l-72 73l72 73l72 -73z" />
    <glyph glyph-name="uniFD24" unicode="&#xfd24;" horiz-adv-x="1351" arabic-form="final" 
d="M494 165q0 -10 9 -18.5t31 -18.5q51 -22 72 -45.5t21 -59.5q0 -60 -41.5 -111.5t-115 -83t-170.5 -31.5q-77 0 -136 28.5t-91.5 82t-32.5 126.5q0 56 21.5 116.5t59.5 109.5l69 -43q-49 -82 -49 -154q0 -65 46.5 -103.5t128.5 -38.5q62 0 108.5 14t72.5 35t26 41
q0 11 -10.5 19.5t-39.5 22.5q-47 23 -66 48.5t-19 59.5q0 35 20 68.5t53.5 61.5t75.5 44.5t86 16.5q52 0 86 -25.5t63 -88.5q15 -34 29.5 -61t36.5 -41q65 142 136.5 213t144.5 71q50 0 90 -28.5t64 -77t24 -109.5q0 -37 -11 -68q23 -14 65 -14l16 -10v-103l-16 -10
q-86 0 -134 49q-83 -58 -241 -58q-81 0 -132.5 15t-85 52t-62.5 103q-18 42 -37 56.5t-48 14.5q-26 0 -53.5 -10.5t-45.5 -25.5t-18 -31zM1180 273q-27 28 -63 28q-48 0 -98 -48t-98 -138q36 -4 69 -4q105 0 161 25t56 71q0 38 -27 66zM1095 497l-72 73l72 73l72 -73z
M156 -346l70 71l71 -71l-71 -71zM370 -275l70 -71l-70 -71l-71 71z" />
    <glyph glyph-name="sheen_uni0645.fina" unicode="&#xfd28;" horiz-adv-x="1179" arabic-form="final" 
d="M266 151q0 -19 19.5 -36.5t76.5 -44.5l30 -15l-60 -112l-27 15q-37 20 -64.5 28t-54.5 8t-38 -13t-11 -42l-1 -310l-94 -9l-4 321q-1 80 36 124.5t101 44.5h12q-12 24 -12 49q0 33 19.5 67t52.5 62.5t74 46t85 17.5q53 0 86.5 -25.5t62.5 -88.5q23 -50 39.5 -76t32.5 -35
t39 -9q29 0 49.5 15t27.5 52q3 13 6.5 35t7 45t5.5 38l92 -12q-7 -46 -10.5 -77.5t-3.5 -39.5q0 -26 20 -41t55 -15q68 0 80 56q4 18 9 60t7 85l94 -9q-3 -47 -6.5 -86t-8.5 -68q22 -33 89 -33l16 -10v-103l-16 -10q-91 0 -136 46q-47 -46 -136 -46q-81 0 -124 48
q-47 -48 -127 -48q-44 0 -74 15t-53.5 50.5t-49.5 95.5q-18 42 -37 56.5t-48 14.5q-31 0 -60.5 -12.5t-48.5 -31t-19 -37.5zM672 484l69 70l71 -70l-71 -70zM885 554l69 -70l-69 -70l-71 70zM813 689l69 -69l-69 -69l-69 69z" />
    <glyph glyph-name="sheen_uni0645.init" unicode="&#xfd30;" horiz-adv-x="1027" arabic-form="initial" 
d="M-16 113l16 10h36q14 0 30 -3q-8 20 -8 39q0 33 19.5 67t52.5 62.5t74 46t85 17.5q52 0 86 -25.5t63 -88.5q23 -50 39.5 -76t32.5 -35t39 -9q29 0 49.5 15t27.5 52q3 13 6.5 35t7 45t5.5 38l91 -12q-6 -46 -9.5 -77.5t-3.5 -39.5q0 -26 21 -41t56 -15q37 0 63 15.5
t26 37.5q0 35 -18 90t-46 106l97 54q19 -34 32.5 -76.5t21.5 -83.5t8 -71q0 -88 -46.5 -139t-144.5 -51q-84 0 -127 48q-47 -48 -127 -48q-44 0 -74 15t-53.5 50.5t-49.5 95.5q-18 42 -37 56.5t-48 14.5q-31 0 -60.5 -12.5t-49 -31t-19.5 -37.5t19.5 -36t77.5 -45l30 -15
l-60 -112l-22 12q-42 23 -75 34t-73 11h-45l-16 11v102zM515 487l69 70l71 -70l-71 -70zM728 557l69 -70l-69 -70l-71 70zM656 692l69 -69l-69 -69l-69 69z" />
    <glyph glyph-name="uniFDF2" unicode="&#xfdf2;" horiz-adv-x="1163" arabic-form="isolated" 
d="M997 634l105 19l-7 -653h-91zM31 230q0 80 67.5 138.5t192.5 87.5l-1 57l101 19l-4 -344q-2 -68 73 -68q35 0 54 12.5t19 31.5l-4 348l105 20l-3 -374q18 -38 71 -38q72 0 72 46l-4 346l105 20l-4 -365q-1 -80 -43.5 -123.5t-121.5 -43.5q-35 0 -66.5 12t-52.5 37
q-45 -49 -128 -49q-62 0 -104 26t-55 81q-44 -27 -102 -27q-46 0 -84 17.5t-60.5 51.5t-22.5 81zM119 251q0 -29 28.5 -42t68.5 -13q41 0 79 13l-2 141q-48 -6 -87.5 -20t-63 -34t-23.5 -45zM467 667q0 47 34 86l31 -17q-10 -15 -16.5 -29.5t-6.5 -27.5q0 -30 24 -30t27 20
l8 64l41 -4l-6 -55q-2 -20 27 -20t29 22q0 33 -29 73l40 23q14 -18 22 -43t8 -49q0 -36 -19 -57.5t-51 -21.5q-30 0 -47 19q-20 -24 -52 -24q-30 0 -47 19t-17 52zM563.5 888q-1.5 36 -6.5 70l50 9q2 -16 3 -31t1 -32q0 -54 -9 -102h-37q0 50 -1.5 86z" />
    <glyph glyph-name="uniFE82" unicode="&#x622;" horiz-adv-x="244" arabic-form="final" 
d="M178 138.5q21 -15.5 66 -15.5l16 -10v-103l-16 -10q-180 0 -182 152l-5 482l105 19l-5 -462q0 -37 21 -52.5zM164 728q-20 0 -55 13q-38 15 -54 15q-24 0 -50 -36l-32 18q26 79 85 79q11 0 24 -3.5t31 -9.5q38 -15 54 -15q26 0 50 36l32 -18q-26 -79 -85 -79z" />
    <glyph glyph-name="uniFE84" unicode="&#x623;" horiz-adv-x="244" arabic-form="final" 
d="M178 138.5q21 -15.5 66 -15.5l16 -10v-103l-16 -10q-180 0 -182 152l-5 482l105 19l-5 -462q0 -37 21 -52.5zM38 832q0 34 23 57.5t57 23.5q39 0 61 -32l-22 -32q-8 5 -16.5 7.5t-17.5 2.5q-16 0 -27 -8t-11 -20q0 -14 15.5 -23t40.5 -12q34 7 64 8l-8 -57
q-42 -3 -81 -10t-79 -20l-17 44q22 9 48 17q-30 21 -30 54z" />
    <glyph glyph-name="uniFE86" unicode="&#x624;" horiz-adv-x="442" arabic-form="final" 
d="M52 188q0 60 22 107t60 73.5t86 26.5q52 0 91 -33.5t61 -94.5t23 -144h47l16 -10v-103l-16 -10h-65q-29 -85 -101.5 -136.5t-183.5 -69.5l-46 107q98 17 158.5 42t86.5 70h-35q-97 0 -150.5 47t-53.5 128zM135 192q0 -76 133 -76h43q-3 80 -27.5 124t-67.5 44
q-36 0 -58.5 -26t-22.5 -66zM148 572q0 34 23 57.5t57 23.5q39 0 61 -32l-22 -32q-8 5 -16.5 7.5t-17.5 2.5q-16 0 -27 -8t-11 -20q0 -14 15.5 -23t40.5 -12q34 7 64 8l-8 -57q-42 -3 -81 -10t-79 -20l-17 44q22 9 48 17q-30 21 -30 54z" />
    <glyph glyph-name="uniFE88" unicode="&#x625;" horiz-adv-x="244" arabic-form="final" 
d="M178 138.5q21 -15.5 66 -15.5l16 -10v-103l-16 -10q-180 0 -182 152l-5 482l105 19l-5 -462q0 -37 21 -52.5zM38 -148q0 34 23 57.5t57 23.5q39 0 61 -32l-22 -32q-8 5 -16.5 7.5t-17.5 2.5q-16 0 -27 -8t-11 -21t14.5 -22t39.5 -12q35 6 66 8l-8 -57q-42 -3 -81 -10
t-79 -20l-17 44q22 9 47 17q-29 21 -29 54z" />
    <glyph glyph-name="uniFE8A" unicode="&#x626;" horiz-adv-x="656" arabic-form="final" 
d="M595 -16q0 -45 -37.5 -88t-103.5 -71t-154 -28q-77 0 -136 28.5t-91.5 82t-32.5 126.5q0 56 21.5 116.5t59.5 109.5l69 -43q-49 -82 -49 -154q0 -65 46.5 -103.5t128.5 -38.5q58 0 101.5 13.5t67.5 34t24 42.5q0 9 -7.5 23t-27.5 39t-56 67l79 67q38 -49 74 -66.5
t85 -17.5l16 -10v-103l-16 -10q-15 0 -31 2.5t-33 8.5q3 -15 3 -27zM86 437q0 34 23 58t57 24q20 0 35.5 -9t25.5 -24l-22 -32q-8 5 -16.5 7.5t-17.5 2.5q-16 0 -27 -7.5t-11 -20.5q0 -14 15 -23t40 -12q34 7 65 9l-8 -58q-84 -6 -160 -29l-17 43q22 9 48 17q-30 21 -30 54z
" />
    <glyph glyph-name="uniFE8B" unicode="&#x626;" horiz-adv-x="284" arabic-form="initial" 
d="M-16 113l16 10q64 0 104.5 15.5t40.5 37.5t-8.5 54t-23 68.5t-33.5 68.5l99 54q18 -32 32 -74.5t21.5 -84t7.5 -72.5q0 -100 -59.5 -145t-180.5 -45l-16 10v103zM47 595q0 34 23 57.5t57 23.5q39 0 61 -32l-22 -32q-8 5 -16.5 7.5t-17.5 2.5q-16 0 -27 -8t-11 -20
q0 -14 15.5 -23t40.5 -12q34 7 64 8l-8 -57q-42 -3 -81 -10t-79 -20l-17 44q22 9 48 17q-30 21 -30 54z" />
    <glyph glyph-name="uniFE8C" unicode="&#x626;" horiz-adv-x="336" arabic-form="medial" 
d="M-16 113l16 10q62 0 90.5 13.5t34.5 44.5q5 22 11 59t10 65l92 -12q-5 -40 -9 -74.5t-4 -42.5q0 -27 26.5 -40t84.5 -13l16 -10v-103l-16 -10q-61 0 -99 16.5t-60 52.5q-50 -69 -177 -69l-16 10v103zM123 483q0 34 23 57.5t57 23.5q39 0 61 -32l-22 -32q-8 5 -16.5 7.5
t-17.5 2.5q-16 0 -27 -8t-11 -20q0 -14 15.5 -23t40.5 -12q34 7 64 8l-8 -57q-42 -3 -81 -10t-79 -20l-17 44q22 9 48 17q-30 21 -30 54z" />
    <glyph glyph-name="uniFE8E" unicode="&#x627;" horiz-adv-x="244" arabic-form="final" 
d="M178 138.5q21 -15.5 66 -15.5l16 -10v-103l-16 -10q-180 0 -182 152l-5 482l105 19l-5 -462q0 -37 21 -52.5z" />
    <glyph glyph-name="uniFE90" unicode="&#x628;" horiz-adv-x="860" arabic-form="final" 
d="M39 188q0 45 17.5 98t45.5 100l74 -36q-32 -69 -32 -122q0 -61 57 -86.5t189 -25.5q95 0 150.5 6.5t81.5 24t32 49.5q4 18 9.5 51t8.5 58l92 -12q-5 -40 -9 -74.5t-4 -42.5q0 -27 26 -40t83 -13l16 -10v-103l-16 -10q-57 0 -97 16t-64 57q-38 -49 -119 -65.5t-190 -16.5
q-182 0 -266.5 47.5t-84.5 149.5zM389 -217l-72 73l72 72l72 -72z" />
    <glyph glyph-name="uniFE91" unicode="&#x628;" horiz-adv-x="284" arabic-form="initial" 
d="M-16 113l16 10q64 0 104.5 15.5t40.5 37.5t-8.5 54t-23 68.5t-33.5 68.5l99 54q18 -32 32 -74.5t21.5 -84t7.5 -72.5q0 -100 -59.5 -145t-180.5 -45l-16 10v103zM116 -217l-72 73l72 72l72 -72z" />
    <glyph glyph-name="uniFE92" unicode="&#x628;" horiz-adv-x="336" arabic-form="medial" 
d="M-16 113l16 10q62 0 90.5 13.5t34.5 44.5q5 22 11 59t10 65l92 -12q-5 -40 -9 -74.5t-4 -42.5q0 -27 26.5 -40t84.5 -13l16 -10v-103l-16 -10q-61 0 -99 16.5t-60 52.5q-50 -69 -177 -69l-16 10v103zM149 -217l-72 73l72 72l72 -72z" />
    <glyph glyph-name="uniFE94" unicode="&#x629;" horiz-adv-x="469" arabic-form="final" 
d="M31 230q0 80 67.5 138.5t192.5 87.5l-1 58l101 18l-4 -342q-1 -37 18.5 -52t63.5 -15l16 -10v-103l-16 -10q-70 0 -113.5 26.5t-55.5 80.5q-44 -27 -102 -27q-46 0 -84 17.5t-60.5 51.5t-22.5 81zM119 251q0 -29 28.5 -42t68.5 -13q41 0 79 13l-2 141q-48 -6 -87.5 -20
t-63 -34t-23.5 -45zM157 731l71 -72l-71 -71l-70 71zM301 731l70 -72l-70 -71l-71 71z" />
    <glyph glyph-name="uniFE96" unicode="&#x62a;" horiz-adv-x="860" arabic-form="final" 
d="M39 188q0 45 17.5 98t45.5 100l74 -36q-32 -69 -32 -122q0 -61 57 -86.5t189 -25.5q95 0 150.5 6.5t81.5 24t32 49.5q4 18 9.5 51t8.5 58l92 -12q-5 -40 -9 -74.5t-4 -42.5q0 -27 26 -40t83 -13l16 -10v-103l-16 -10q-57 0 -97 16t-64 57q-38 -49 -119 -65.5t-190 -16.5
q-182 0 -266.5 47.5t-84.5 149.5zM344 549l71 -72l-71 -71l-70 71zM488 549l70 -72l-70 -71l-71 71z" />
    <glyph glyph-name="uniFE97" unicode="&#x62a;" horiz-adv-x="284" arabic-form="initial" 
d="M-16 113l16 10q64 0 104.5 15.5t40.5 37.5t-8.5 54t-23 68.5t-33.5 68.5l99 54q18 -32 32 -74.5t21.5 -84t7.5 -72.5q0 -100 -59.5 -145t-180.5 -45l-16 10v103zM48 633l71 -72l-71 -71l-70 71zM192 633l70 -72l-70 -71l-71 71z" />
    <glyph glyph-name="uniFE98" unicode="&#x62a;" horiz-adv-x="336" arabic-form="medial" 
d="M-16 113l16 10q62 0 90.5 13.5t34.5 44.5q5 22 11 59t10 65l92 -12q-5 -40 -9 -74.5t-4 -42.5q0 -27 26.5 -40t84.5 -13l16 -10v-103l-16 -10q-61 0 -99 16.5t-60 52.5q-50 -69 -177 -69l-16 10v103zM124 521l71 -72l-71 -71l-70 71zM268 521l70 -72l-70 -71l-71 71z" />
    <glyph glyph-name="uniFE9A" unicode="&#x62b;" horiz-adv-x="860" arabic-form="final" 
d="M39 188q0 45 17.5 98t45.5 100l74 -36q-32 -69 -32 -122q0 -61 57 -86.5t189 -25.5q95 0 150.5 6.5t81.5 24t32 49.5q4 18 9.5 51t8.5 58l92 -12q-5 -40 -9 -74.5t-4 -42.5q0 -27 26 -40t83 -13l16 -10v-103l-16 -10q-57 0 -97 16t-64 57q-38 -49 -119 -65.5t-190 -16.5
q-182 0 -266.5 47.5t-84.5 149.5zM275 476l69 70l71 -70l-71 -70zM488 546l69 -70l-69 -70l-71 70zM416 681l69 -69l-69 -69l-69 69z" />
    <glyph glyph-name="uniFE9B" unicode="&#x62b;" horiz-adv-x="284" arabic-form="initial" 
d="M-16 113l16 10q64 0 104.5 15.5t40.5 37.5t-8.5 54t-23 68.5t-33.5 68.5l99 54q18 -32 32 -74.5t21.5 -84t7.5 -72.5q0 -100 -59.5 -145t-180.5 -45l-16 10v103zM-21 560l69 70l71 -70l-71 -70zM192 630l69 -70l-69 -70l-71 70zM120 765l69 -69l-69 -69l-69 69z" />
    <glyph glyph-name="uniFE9C" unicode="&#x62b;" horiz-adv-x="336" arabic-form="medial" 
d="M-16 113l16 10q62 0 90.5 13.5t34.5 44.5q5 22 11 59t10 65l92 -12q-5 -40 -9 -74.5t-4 -42.5q0 -27 26.5 -40t84.5 -13l16 -10v-103l-16 -10q-61 0 -99 16.5t-60 52.5q-50 -69 -177 -69l-16 10v103zM55 448l69 70l71 -70l-71 -70zM268 518l69 -70l-69 -70l-71 70z
M196 653l69 -69l-69 -69l-69 69z" />
    <glyph glyph-name="uniFE9E" unicode="&#x62c;" horiz-adv-x="627" arabic-form="final" 
d="M457 181v17q-143 -45 -218 -106t-75 -131q0 -64 55.5 -102t152.5 -38q50 0 100 10t84 26l35 -73q-44 -41 -108 -64t-133 -23q-85 0 -149.5 30t-100.5 84t-36 124q0 101 76.5 185t222.5 134q-26 5 -44 10q-49 14 -80.5 20t-50.5 6q-23 0 -41 -9t-38 -32l-61 48
q29 53 65.5 79.5t86.5 26.5q32 0 73 -8.5t109 -28.5q50 -14 87.5 -21.5t64.5 -7.5h22v-113q-19 -4 -37 -9v-10q0 -41 23.5 -61.5t84.5 -20.5l16 -10v-103l-16 -10q-79 0 -124.5 46t-45.5 135zM377 -76l-71 72l71 72l71 -72z" />
    <glyph glyph-name="uniFE9F" unicode="&#x62c;" horiz-adv-x="567" arabic-form="initial" 
d="M514 199q-30 -9 -57 -20t-61.5 -29.5t-86.5 -49.5q-66 -39 -116 -61t-95.5 -30.5t-97.5 -8.5l-16 10v103l16 10q65 0 123.5 14t130.5 48q29 13 55.5 23.5t51.5 18.5q-21 8 -47 19q-54 23 -88.5 33.5t-58.5 10.5t-42 -9t-38 -32l-61 48q30 54 67 80t87 26q21 0 42 -4
t51 -15t76 -31q56 -25 85 -33.5t56 -8.5h24v-112zM253 -197l-72 73l72 72l72 -72z" />
    <glyph glyph-name="uniFEA0" unicode="&#x62c;" horiz-adv-x="580" arabic-form="medial" 
d="M514 199q-21 -6 -39 -13q2 -36 25.5 -49.5t79.5 -13.5l16 -10v-103l-16 -10q-154 0 -160 162q-40 -20 -111 -62q-66 -39 -116 -61t-95.5 -30.5t-97.5 -8.5l-16 10v103l16 10q65 0 123.5 14t130.5 48q29 13 55.5 23.5t51.5 18.5q-21 8 -47 19q-54 23 -88.5 33.5
t-58.5 10.5t-42 -9t-38 -32l-61 48q30 54 67 80t87 26q21 0 42 -4t51 -15t76 -31q56 -25 85 -33.5t56 -8.5h24v-112zM253 -197l-72 73l72 72l72 -72z" />
    <glyph glyph-name="uniFEA2" unicode="&#x62d;" horiz-adv-x="627" arabic-form="final" 
d="M457 181v17q-143 -45 -218 -106t-75 -131q0 -64 55.5 -102t152.5 -38q50 0 100 10t84 26l35 -73q-44 -41 -108 -64t-133 -23q-85 0 -149.5 30t-100.5 84t-36 124q0 101 76.5 185t222.5 134q-26 5 -44 10q-49 14 -80.5 20t-50.5 6q-23 0 -41 -9t-38 -32l-61 48
q29 53 65.5 79.5t86.5 26.5q32 0 73 -8.5t109 -28.5q50 -14 87.5 -21.5t64.5 -7.5h22v-113q-19 -4 -37 -9v-10q0 -41 23.5 -61.5t84.5 -20.5l16 -10v-103l-16 -10q-79 0 -124.5 46t-45.5 135z" />
    <glyph glyph-name="uniFEA3" unicode="&#x62d;" horiz-adv-x="567" arabic-form="initial" 
d="M514 199q-30 -9 -57 -20t-61.5 -29.5t-86.5 -49.5q-66 -39 -116 -61t-95.5 -30.5t-97.5 -8.5l-16 10v103l16 10q65 0 123.5 14t130.5 48q29 13 55.5 23.5t51.5 18.5q-21 8 -47 19q-54 23 -88.5 33.5t-58.5 10.5t-42 -9t-38 -32l-61 48q30 54 67 80t87 26q21 0 42 -4
t51 -15t76 -31q56 -25 85 -33.5t56 -8.5h24v-112z" />
    <glyph glyph-name="uniFEA4" unicode="&#x62d;" horiz-adv-x="580" arabic-form="medial" 
d="M514 199q-21 -6 -39 -13q2 -36 25.5 -49.5t79.5 -13.5l16 -10v-103l-16 -10q-154 0 -160 162q-40 -20 -111 -62q-66 -39 -116 -61t-95.5 -30.5t-97.5 -8.5l-16 10v103l16 10q65 0 123.5 14t130.5 48q29 13 55.5 23.5t51.5 18.5q-21 8 -47 19q-54 23 -88.5 33.5
t-58.5 10.5t-42 -9t-38 -32l-61 48q30 54 67 80t87 26q21 0 42 -4t51 -15t76 -31q56 -25 85 -33.5t56 -8.5h24v-112z" />
    <glyph glyph-name="uniFEA6" unicode="&#x62e;" horiz-adv-x="627" arabic-form="final" 
d="M457 181v17q-143 -45 -218 -106t-75 -131q0 -64 55.5 -102t152.5 -38q50 0 100 10t84 26l35 -73q-44 -41 -108 -64t-133 -23q-85 0 -149.5 30t-100.5 84t-36 124q0 101 76.5 185t222.5 134q-26 5 -44 10q-49 14 -80.5 20t-50.5 6q-23 0 -41 -9t-38 -32l-61 48
q29 53 65.5 79.5t86.5 26.5q32 0 73 -8.5t109 -28.5q50 -14 87.5 -21.5t64.5 -7.5h22v-113q-19 -4 -37 -9v-10q0 -41 23.5 -61.5t84.5 -20.5l16 -10v-103l-16 -10q-79 0 -124.5 46t-45.5 135zM306 471l-72 73l72 73l72 -73z" />
    <glyph glyph-name="uniFEA7" unicode="&#x62e;" horiz-adv-x="567" arabic-form="initial" 
d="M514 199q-30 -9 -57 -20t-61.5 -29.5t-86.5 -49.5q-66 -39 -116 -61t-95.5 -30.5t-97.5 -8.5l-16 10v103l16 10q65 0 123.5 14t130.5 48q29 13 55.5 23.5t51.5 18.5q-21 8 -47 19q-54 23 -88.5 33.5t-58.5 10.5t-42 -9t-38 -32l-61 48q30 54 67 80t87 26q21 0 42 -4
t51 -15t76 -31q56 -25 85 -33.5t56 -8.5h24v-112zM282 471l-72 73l72 73l72 -73z" />
    <glyph glyph-name="uniFEA8" unicode="&#x62e;" horiz-adv-x="580" arabic-form="medial" 
d="M514 199q-21 -6 -39 -13q2 -36 25.5 -49.5t79.5 -13.5l16 -10v-103l-16 -10q-154 0 -160 162q-40 -20 -111 -62q-66 -39 -116 -61t-95.5 -30.5t-97.5 -8.5l-16 10v103l16 10q65 0 123.5 14t130.5 48q29 13 55.5 23.5t51.5 18.5q-21 8 -47 19q-54 23 -88.5 33.5
t-58.5 10.5t-42 -9t-38 -32l-61 48q30 54 67 80t87 26q21 0 42 -4t51 -15t76 -31q56 -25 85 -33.5t56 -8.5h24v-112zM283 471l-72 73l72 73l72 -73z" />
    <glyph glyph-name="uniFEAA" unicode="&#x62f;" horiz-adv-x="489" arabic-form="final" 
d="M24 126q32 -4 66.5 -7.5t63.5 -3.5q87 0 142 19q-21 44 -47 108t-58 154l103 49q26 -75 51 -144.5t47 -121.5q14 -34 34 -45t63 -11l16 -10v-103l-16 -10q-84 0 -131 42q-29 -26 -75.5 -38t-118.5 -12q-28 0 -59.5 2.5t-54.5 6.5z" />
    <glyph glyph-name="uniFEAC" unicode="&#x630;" horiz-adv-x="489" arabic-form="final" 
d="M24 126q32 -4 66.5 -7.5t63.5 -3.5q87 0 142 19q-21 44 -47 108t-58 154l103 49q26 -75 51 -144.5t47 -121.5q14 -34 34 -45t63 -11l16 -10v-103l-16 -10q-84 0 -131 42q-29 -26 -75.5 -38t-118.5 -12q-28 0 -59.5 2.5t-54.5 6.5zM228 512l-72 73l72 73l72 -73z" />
    <glyph glyph-name="uniFEAE" unicode="&#x631;" horiz-adv-x="423" arabic-form="final" 
d="M239 99q-14 27 -29 66t-34 96l101 47q13 -40 24.5 -74t17.5 -50q14 -36 36 -48.5t68 -12.5l16 -10v-103l-16 -10q-31 0 -58 5.5t-52 19.5q-28 -80 -98.5 -138t-172.5 -93l-62 107q111 41 178.5 93.5t80.5 104.5z" />
    <glyph glyph-name="uniFEB0" unicode="&#x632;" horiz-adv-x="423" arabic-form="final" 
d="M239 99q-14 27 -29 66t-34 96l101 47q13 -40 24.5 -74t17.5 -50q14 -36 36 -48.5t68 -12.5l16 -10v-103l-16 -10q-31 0 -58 5.5t-52 19.5q-28 -80 -98.5 -138t-172.5 -93l-62 107q111 41 178.5 93.5t80.5 104.5zM204 375l-72 73l72 73l72 -73z" />
    <glyph glyph-name="uniFEB2" unicode="&#x633;" horiz-adv-x="1165" arabic-form="final" 
d="M40 34q0 56 21.5 116.5t59.5 109.5l69 -43q-49 -82 -49 -154q0 -65 44.5 -103.5t123.5 -38.5q49 0 87.5 14t61.5 37t23 50q0 37 -17.5 95.5t-51.5 131.5l97 54q16 -33 29 -72.5t22 -78.5q28 -34 80 -34q36 0 58.5 15t29.5 52q3 13 6.5 35t7 45t5.5 38l92 -12
q-6 -46 -10 -77.5t-4 -39.5q0 -26 20 -41t56 -15q68 0 79 56q4 18 9 60t8 85l94 -9q-3 -48 -6.5 -87t-8.5 -68q22 -32 89 -32l16 -10v-103l-16 -10q-91 0 -136 46q-47 -46 -136 -46q-82 0 -125 48q-47 -48 -130 -48q-34 0 -62 10q-6 -64 -41.5 -112t-93.5 -74.5t-132 -26.5
q-124 0 -196.5 64t-72.5 173z" />
    <glyph glyph-name="uniFEB3" unicode="&#x633;" horiz-adv-x="768" arabic-form="initial" 
d="M-16 113l16 10q38 0 58 10t34.5 40.5t32.5 92.5l89 -21q-5 -25 -9.5 -47t-9.5 -41q29 -39 83 -39q36 0 58.5 15t29.5 52q3 13 6.5 35t7 45t5.5 38l92 -12q-7 -46 -10.5 -77.5t-3.5 -39.5q0 -26 21 -41t56 -15q37 0 63 15.5t26 37.5q0 35 -17.5 90t-45.5 106l96 54
q19 -34 33 -76.5t22 -83.5t8 -71q0 -88 -46.5 -139t-144.5 -51q-85 0 -128 49q-47 -49 -131 -49q-40 0 -71.5 13.5t-52.5 41.5q-23 -31 -59 -43t-92 -12l-16 10v103z" />
    <glyph glyph-name="uniFEB4" unicode="&#x633;" horiz-adv-x="803" arabic-form="medial" 
d="M-16 113l16 10q38 0 58 10t34.5 40.5t32.5 92.5l89 -21q-5 -25 -9.5 -47t-9.5 -41q28 -39 83 -39q36 0 58.5 15t29.5 52q3 13 6.5 35t7 45t5.5 38l92 -12q-7 -46 -10.5 -77.5t-3.5 -39.5q0 -26 20 -41t55 -15q69 0 80 56q4 18 9 60t8 85l94 -9q-5 -95 -16 -155
q23 -32 90 -32l16 -10v-103l-16 -10q-92 0 -136 46q-48 -46 -137 -46q-82 0 -124 49q-47 -49 -131 -49q-40 0 -72 13.5t-52 40.5q-24 -31 -59.5 -42.5t-91.5 -11.5l-16 10v103z" />
    <glyph glyph-name="uniFEB6" unicode="&#x634;" horiz-adv-x="1165" arabic-form="final" 
d="M40 34q0 56 21.5 116.5t59.5 109.5l69 -43q-49 -82 -49 -154q0 -65 44.5 -103.5t123.5 -38.5q49 0 87.5 14t61.5 37t23 50q0 37 -17.5 95.5t-51.5 131.5l97 54q16 -33 29 -72.5t22 -78.5q28 -34 80 -34q36 0 58.5 15t29.5 52q3 13 6.5 35t7 45t5.5 38l92 -12
q-6 -46 -10 -77.5t-4 -39.5q0 -26 20 -41t56 -15q68 0 79 56q4 18 9 60t8 85l94 -9q-3 -48 -6.5 -87t-8.5 -68q22 -32 89 -32l16 -10v-103l-16 -10q-91 0 -136 46q-47 -46 -136 -46q-82 0 -125 48q-47 -48 -130 -48q-34 0 -62 10q-6 -64 -41.5 -112t-93.5 -74.5t-132 -26.5
q-124 0 -196.5 64t-72.5 173zM664 487l69 70l71 -70l-71 -70zM877 557l69 -70l-69 -70l-71 70zM805 692l69 -69l-69 -69l-69 69z" />
    <glyph glyph-name="uniFEB7" unicode="&#x634;" horiz-adv-x="768" arabic-form="initial" 
d="M-16 113l16 10q38 0 58 10t34.5 40.5t32.5 92.5l89 -21q-5 -25 -9.5 -47t-9.5 -41q29 -39 83 -39q36 0 58.5 15t29.5 52q3 13 6.5 35t7 45t5.5 38l92 -12q-7 -46 -10.5 -77.5t-3.5 -39.5q0 -26 21 -41t56 -15q37 0 63 15.5t26 37.5q0 35 -17.5 90t-45.5 106l96 54
q19 -34 33 -76.5t22 -83.5t8 -71q0 -88 -46.5 -139t-144.5 -51q-85 0 -128 49q-47 -49 -131 -49q-40 0 -71.5 13.5t-52.5 41.5q-23 -31 -59 -43t-92 -12l-16 10v103zM257 484l69 70l71 -70l-71 -70zM470 554l69 -70l-69 -70l-71 70zM398 689l69 -69l-69 -69l-69 69z" />
    <glyph glyph-name="uniFEB8" unicode="&#x634;" horiz-adv-x="803" arabic-form="medial" 
d="M-16 113l16 10q38 0 58 10t34.5 40.5t32.5 92.5l89 -21q-5 -25 -9.5 -47t-9.5 -41q28 -39 83 -39q36 0 58.5 15t29.5 52q3 13 6.5 35t7 45t5.5 38l92 -12q-7 -46 -10.5 -77.5t-3.5 -39.5q0 -26 20 -41t55 -15q69 0 80 56q4 18 9 60t8 85l94 -9q-5 -95 -16 -155
q23 -32 90 -32l16 -10v-103l-16 -10q-92 0 -136 46q-48 -46 -137 -46q-82 0 -124 49q-47 -49 -131 -49q-40 0 -72 13.5t-52 40.5q-24 -31 -59.5 -42.5t-91.5 -11.5l-16 10v103zM295 484l69 70l71 -70l-71 -70zM508 554l69 -70l-69 -70l-71 70zM436 689l69 -69l-69 -69
l-69 69z" />
    <glyph glyph-name="uniFEBA" unicode="&#x635;" horiz-adv-x="1149" arabic-form="final" 
d="M577 34q0 -70 -34.5 -123.5t-94.5 -83.5t-139 -30q-124 0 -196.5 64t-72.5 173q0 56 21.5 116.5t59.5 109.5l69 -43q-49 -82 -49 -154q0 -65 44.5 -103.5t123.5 -38.5q48 0 87 14t62 37t23 50q0 37 -17.5 95.5t-51.5 131.5l97 54l14 -31q45 -103 112 -136q66 142 137 213
t144 71q50 0 90.5 -28.5t64.5 -77t24 -109.5q0 -37 -11 -68q24 -14 65 -14l16 -10v-103l-16 -10q-86 0 -134 49q-84 -58 -241 -58q-123 0 -197 54v-11zM977.5 273q-26.5 28 -63.5 28q-48 0 -98 -48.5t-97 -138.5q29 -3 69 -3q105 0 160.5 25t55.5 71q0 38 -26.5 66z" />
    <glyph glyph-name="uniFEBB" unicode="&#x635;" horiz-adv-x="765" arabic-form="initial" 
d="M-16 113l16 10q38 1 58 10.5t34.5 40t32.5 92.5l89 -21q-5 -28 -10.5 -51.5t-10.5 -43.5q30 -15 73 -25q69 151 141 223t145 72q50 0 90 -28.5t64 -77t24 -109.5q0 -103 -82.5 -158.5t-237.5 -55.5q-179 0 -261 62q-23 -30 -58.5 -41.5t-90.5 -11.5l-16 10v103zM613 273
q-27 28 -63 28q-48 0 -97.5 -48.5t-98.5 -139.5q33 -2 69 -2q106 0 161.5 25t55.5 71q0 38 -27 66z" />
    <glyph glyph-name="uniFEBC" unicode="&#x635;" horiz-adv-x="785" arabic-form="medial" 
d="M-16 113l16 10q38 1 58 10.5t34.5 40t32.5 92.5l89 -21q-5 -28 -10.5 -51.5t-10.5 -43.5q30 -15 73 -25q69 151 141 223t145 72q50 0 90 -28.5t64 -77t24 -109.5q0 -37 -11 -68q24 -14 66 -14l16 -10v-103l-16 -10q-41 0 -76 12.5t-59 36.5q-83 -58 -240 -58
q-179 0 -261 62q-23 -30 -58.5 -41.5t-90.5 -11.5l-16 10v103zM613 273q-27 28 -63 28q-48 0 -97.5 -48.5t-98.5 -139.5q33 -2 69 -2q106 0 161.5 25t55.5 71q0 38 -27 66z" />
    <glyph glyph-name="uniFEBE" unicode="&#x636;" horiz-adv-x="1149" arabic-form="final" 
d="M577 34q0 -70 -34.5 -123.5t-94.5 -83.5t-139 -30q-124 0 -196.5 64t-72.5 173q0 56 21.5 116.5t59.5 109.5l69 -43q-49 -82 -49 -154q0 -65 44.5 -103.5t123.5 -38.5q48 0 87 14t62 37t23 50q0 37 -17.5 95.5t-51.5 131.5l97 54l14 -31q45 -103 112 -136q66 142 137 213
t144 71q50 0 90.5 -28.5t64.5 -77t24 -109.5q0 -37 -11 -68q24 -14 65 -14l16 -10v-103l-16 -10q-86 0 -134 49q-84 -58 -241 -58q-123 0 -197 54v-11zM977.5 273q-26.5 28 -63.5 28q-48 0 -98 -48.5t-97 -138.5q29 -3 69 -3q105 0 160.5 25t55.5 71q0 38 -26.5 66zM893 497
l-72 73l72 73l72 -73z" />
    <glyph glyph-name="uniFEBF" unicode="&#x636;" horiz-adv-x="765" arabic-form="initial" 
d="M-16 113l16 10q38 1 58 10.5t34.5 40t32.5 92.5l89 -21q-5 -28 -10.5 -51.5t-10.5 -43.5q30 -15 73 -25q69 151 141 223t145 72q50 0 90 -28.5t64 -77t24 -109.5q0 -103 -82.5 -158.5t-237.5 -55.5q-179 0 -261 62q-23 -30 -58.5 -41.5t-90.5 -11.5l-16 10v103zM613 273
q-27 28 -63 28q-48 0 -97.5 -48.5t-98.5 -139.5q33 -2 69 -2q106 0 161.5 25t55.5 71q0 38 -27 66zM528 497l-72 73l72 73l72 -73z" />
    <glyph glyph-name="uniFEC0" unicode="&#x636;" horiz-adv-x="785" arabic-form="medial" 
d="M-16 113l16 10q38 1 58 10.5t34.5 40t32.5 92.5l89 -21q-5 -28 -10.5 -51.5t-10.5 -43.5q30 -15 73 -25q69 151 141 223t145 72q50 0 90 -28.5t64 -77t24 -109.5q0 -37 -11 -68q24 -14 66 -14l16 -10v-103l-16 -10q-41 0 -76 12.5t-59 36.5q-83 -58 -240 -58
q-179 0 -261 62q-23 -30 -58.5 -41.5t-90.5 -11.5l-16 10v103zM613 273q-27 28 -63 28q-48 0 -97.5 -48.5t-98.5 -139.5q33 -2 69 -2q106 0 161.5 25t55.5 71q0 38 -27 66zM528 497l-72 73l72 73l72 -73z" />
    <glyph glyph-name="uniFEC2" unicode="&#x637;" horiz-adv-x="693" arabic-form="final" 
d="M639 205q0 -37 -11 -68q24 -14 65 -14l16 -10v-103l-16 -10q-86 0 -134 49q-84 -58 -243 -58q-74 0 -143 2.5t-128 7.5l-25 121q41 -4 76.5 -6t73.5 -3l-8 522l105 18l-9 -407q47 86 99.5 130t102.5 44t90.5 -28.5t64.5 -77t24 -109.5zM548 207q0 38 -26.5 66t-62.5 28
q-98 0 -197 -190h63q113 0 168 25t55 71z" />
    <glyph glyph-name="uniFEC3" unicode="&#x637;" horiz-adv-x="568" arabic-form="initial" 
d="M-16 113l16 10h65l-7 512l104 18l-8 -407q47 86 99.5 130t103.5 44q49 0 89 -28.5t64 -77t24 -109.5q0 -205 -334 -205h-200l-16 10v103zM417.5 273q-26.5 28 -63.5 28q-96 0 -193 -182h39q133 0 188.5 21.5t55.5 68.5q0 36 -26.5 64z" />
    <glyph glyph-name="uniFEC4" unicode="&#x637;" horiz-adv-x="589" arabic-form="medial" 
d="M-16 113l16 10h66l-8 512l104 18l-8 -407q47 86 99.5 130t103.5 44q49 0 89 -28.5t64 -77t24 -109.5q0 -37 -11 -68q24 -14 66 -14l16 -10v-103l-16 -10q-43 0 -78.5 13t-59.5 39q-83 -52 -251 -52h-200l-16 10v103zM417.5 273q-26.5 28 -63.5 28q-46 0 -95.5 -46.5
t-96.5 -135.5h38q133 0 188.5 21.5t55.5 68.5q0 36 -26.5 64z" />
    <glyph glyph-name="uniFEC6" unicode="&#x638;" horiz-adv-x="693" arabic-form="final" 
d="M639 205q0 -37 -11 -68q24 -14 65 -14l16 -10v-103l-16 -10q-86 0 -134 49q-84 -58 -243 -58q-74 0 -143 2.5t-128 7.5l-25 121q41 -4 76.5 -6t73.5 -3l-8 522l105 18l-9 -407q47 86 99.5 130t102.5 44t90.5 -28.5t64.5 -77t24 -109.5zM548 207q0 38 -26.5 66t-62.5 28
q-98 0 -197 -190h63q113 0 168 25t55 71zM448 497l-72 73l72 73l72 -73z" />
    <glyph glyph-name="uniFEC7" unicode="&#x638;" horiz-adv-x="568" arabic-form="initial" 
d="M-16 113l16 10h65l-7 512l104 18l-8 -407q47 86 99.5 130t103.5 44q49 0 89 -28.5t64 -77t24 -109.5q0 -205 -334 -205h-200l-16 10v103zM417.5 273q-26.5 28 -63.5 28q-96 0 -193 -182h39q133 0 188.5 21.5t55.5 68.5q0 36 -26.5 64zM344 497l-72 73l72 73l72 -73z" />
    <glyph glyph-name="uniFEC8" unicode="&#x638;" horiz-adv-x="589" arabic-form="medial" 
d="M-16 113l16 10h66l-8 512l104 18l-8 -407q47 86 99.5 130t103.5 44q49 0 89 -28.5t64 -77t24 -109.5q0 -37 -11 -68q24 -14 66 -14l16 -10v-103l-16 -10q-43 0 -78.5 13t-59.5 39q-83 -52 -251 -52h-200l-16 10v103zM417.5 273q-26.5 28 -63.5 28q-46 0 -95.5 -46.5
t-96.5 -135.5h38q133 0 188.5 21.5t55.5 68.5q0 36 -26.5 64zM344 497l-72 73l72 73l72 -73z" />
    <glyph glyph-name="uniFECA" unicode="&#x639;" horiz-adv-x="525" arabic-form="final" 
d="M123 -77q0 -48 45 -75.5t127 -27.5q47 0 97 9t83 25l34 -73q-43 -40 -102.5 -62t-132.5 -22q-76 0 -134 25t-90.5 70t-32.5 106q0 65 42 114t130 102q-40 32 -72.5 72.5t-58.5 83.5l17 92q35 26 87.5 41t111.5 15q102 0 155 -33t53 -86q0 -45 -31.5 -88t-74.5 -78
q57 -10 149 -10l16 -10v-103l-16 -10q-71 0 -131.5 13t-126.5 49q-73 -37 -108.5 -69t-35.5 -70zM361 299.5q-34 10.5 -87 10.5q-34 0 -67 -6t-55 -19q56 -84 126 -120q26 16 53 36.5t45.5 40t18.5 32.5q0 15 -34 25.5z" />
    <glyph glyph-name="uniFECB" unicode="&#x639;" horiz-adv-x="468" arabic-form="initial" 
d="M-16 113l16 10q46 0 92 3q-35 44 -35 109q0 53 25 96t67 68.5t91 25.5q87 0 145 -75l-48 -60q-43 23 -89 23q-42 0 -72.5 -22t-30.5 -57q0 -31 27 -55t90 -35q39 7 79 14.5t81 17.5l-16 -112q-53 -20 -120.5 -34.5t-140.5 -22t-145 -7.5l-16 10v103z" />
    <glyph glyph-name="uniFECC" unicode="&#x639;" horiz-adv-x="510" arabic-form="medial" 
d="M-16 113l16 10q42 0 80 3t71 8q-32 30 -59 65t-49 71l17 92q36 26 88.5 41t110.5 15q102 0 155 -33t53 -86q0 -42 -31.5 -85.5t-73.5 -80.5q30 -6 66.5 -8t81.5 -2l16 -10v-103l-16 -10q-69 0 -128 12.5t-123 46.5q-58 -32 -119.5 -45.5t-139.5 -13.5l-16 10v103z
M346.5 299.5q-34.5 10.5 -87.5 10.5q-36 0 -68 -6.5t-54 -18.5q30 -43 60 -72.5t67 -47.5q30 15 57 37t43.5 42t16.5 30q0 15 -34.5 25.5z" />
    <glyph glyph-name="uniFECE" unicode="&#x63a;" horiz-adv-x="525" arabic-form="final" 
d="M123 -77q0 -48 45 -75.5t127 -27.5q47 0 97 9t83 25l34 -73q-43 -40 -102.5 -62t-132.5 -22q-76 0 -134 25t-90.5 70t-32.5 106q0 65 42 114t130 102q-40 32 -72.5 72.5t-58.5 83.5l17 92q35 26 87.5 41t111.5 15q102 0 155 -33t53 -86q0 -45 -31.5 -88t-74.5 -78
q57 -10 149 -10l16 -10v-103l-16 -10q-71 0 -131.5 13t-126.5 49q-73 -37 -108.5 -69t-35.5 -70zM361 299.5q-34 10.5 -87 10.5q-34 0 -67 -6t-55 -19q56 -84 126 -120q26 16 53 36.5t45.5 40t18.5 32.5q0 15 -34 25.5zM270 485l-72 73l72 73l72 -73z" />
    <glyph glyph-name="uniFECF" unicode="&#x63a;" horiz-adv-x="468" arabic-form="initial" 
d="M-16 113l16 10q46 0 92 3q-35 44 -35 109q0 53 25 96t67 68.5t91 25.5q87 0 145 -75l-48 -60q-43 23 -89 23q-42 0 -72.5 -22t-30.5 -57q0 -31 27 -55t90 -35q39 7 79 14.5t81 17.5l-16 -112q-53 -20 -120.5 -34.5t-140.5 -22t-145 -7.5l-16 10v103zM239 492l-72 73
l72 73l72 -73z" />
    <glyph glyph-name="uniFED0" unicode="&#x63a;" horiz-adv-x="510" arabic-form="medial" 
d="M-16 113l16 10q42 0 80 3t71 8q-32 30 -59 65t-49 71l17 92q36 26 88.5 41t110.5 15q102 0 155 -33t53 -86q0 -42 -31.5 -85.5t-73.5 -80.5q30 -6 66.5 -8t81.5 -2l16 -10v-103l-16 -10q-69 0 -128 12.5t-123 46.5q-58 -32 -119.5 -45.5t-139.5 -13.5l-16 10v103z
M346.5 299.5q-34.5 10.5 -87.5 10.5q-36 0 -68 -6.5t-54 -18.5q30 -43 60 -72.5t67 -47.5q30 15 57 37t43.5 42t16.5 30q0 15 -34.5 25.5zM257 485l-72 73l72 73l72 -73z" />
    <glyph glyph-name="uniFED2" unicode="&#x641;" horiz-adv-x="828" arabic-form="final" 
d="M39 188q0 45 17.5 98t45.5 100l71 -35q-32 -69 -32 -123q0 -59 56.5 -85.5t192.5 -26.5q25 0 48 1t44 3q-40 47 -40 112q0 54 23 97.5t61.5 69t83.5 25.5t83 -25.5t61 -69t23 -97.5q0 -33 -10 -59.5t-27 -47.5q22 -1 44 -1.5t44 -0.5l16 -10v-103l-16 -10q-50 0 -106 7.5
t-110 28.5q-50 -21 -108.5 -33t-115.5 -12q-181 0 -265 48.5t-84 148.5zM527 230q0 -28 20 -51t63 -37q82 29 82 88q0 36 -23.5 60t-58.5 24t-59 -24t-24 -60zM611 490l-72 73l72 73l72 -73z" />
    <glyph glyph-name="uniFED3" unicode="&#x641;" horiz-adv-x="425" arabic-form="initial" 
d="M36 341q0 58 22.5 103t59 71.5t79.5 26.5q86 0 128.5 -86.5t42.5 -247.5q0 -76 -17 -117.5t-64 -61.5q-40 -17 -98.5 -23t-160.5 -6h-28l-16 10v103l16 10h28q137 0 195.5 9.5t58.5 32.5v44v6q-44 -29 -97 -29q-70 0 -109.5 41.5t-39.5 113.5zM117 347q0 -66 76 -66
q50 0 85 22q-8 73 -29 101t-54 28q-34 0 -56 -24.5t-22 -60.5zM196 609l-72 73l72 73l72 -73z" />
    <glyph glyph-name="uniFED4" unicode="&#x641;" horiz-adv-x="436" arabic-form="medial" 
d="M-16 113l16 10q22 0 43.5 0.5t42.5 1.5q-17 22 -26.5 48t-9.5 59q0 54 23 97.5t61.5 69t83.5 25.5t83 -25.5t61 -69t23 -97.5q0 -34 -10 -60.5t-26 -46.5q25 -1 48.5 -1.5t38.5 -0.5l16 -10v-103l-16 -10q-53 0 -109 8.5t-109 29.5q-55 -22 -111.5 -30t-106.5 -8l-16 10
v103zM135 230q0 -57 82 -87q34 10 58.5 31t24.5 56q0 36 -23.5 60t-58.5 24t-59 -24t-24 -60zM218 490l-72 73l72 73l72 -73z" />
    <glyph glyph-name="uniFED6" unicode="&#x642;" horiz-adv-x="657" arabic-form="final" 
d="M40 34q0 57 21.5 117t59.5 109l69 -43q-49 -80 -49 -156q0 -67 51.5 -106.5t142.5 -39.5q56 0 100 9.5t70 26.5t26 38v22h-45q-100 0 -155 47t-55 135q0 58 22.5 103.5t59.5 72t81 26.5q152 0 174 -272h44l16 -10v-103l-16 -10h-41q-6 -96 -79.5 -149.5t-208.5 -53.5
q-90 0 -154.5 29.5t-99 83t-34.5 124.5zM356 197q0 -78 132 -78h40q-7 90 -31.5 129t-61.5 39q-35 0 -57 -26t-22 -64zM365 605l71 -72l-71 -71l-70 71zM509 605l70 -72l-70 -71l-71 71z" />
    <glyph glyph-name="uniFED7" unicode="&#x642;" horiz-adv-x="425" arabic-form="initial" 
d="M36 341q0 58 22.5 103t59 71.5t79.5 26.5q86 0 128.5 -86.5t42.5 -247.5q0 -76 -17 -117.5t-64 -61.5q-40 -17 -98.5 -23t-160.5 -6h-28l-16 10v103l16 10h28q137 0 195.5 9.5t58.5 32.5v44v6q-44 -29 -97 -29q-70 0 -109.5 41.5t-39.5 113.5zM117 347q0 -66 76 -66
q50 0 85 22q-8 73 -29 101t-54 28q-34 0 -56 -24.5t-22 -60.5zM124 752l71 -72l-71 -71l-70 71zM268 752l70 -72l-70 -71l-71 71z" />
    <glyph glyph-name="uniFED8" unicode="&#x642;" horiz-adv-x="436" arabic-form="medial" 
d="M-16 113l16 10q22 0 43.5 0.5t42.5 1.5q-17 22 -26.5 48t-9.5 59q0 54 23 97.5t61.5 69t83.5 25.5t83 -25.5t61 -69t23 -97.5q0 -34 -10 -60.5t-26 -46.5q25 -1 48.5 -1.5t38.5 -0.5l16 -10v-103l-16 -10q-53 0 -109 8.5t-109 29.5q-55 -22 -111.5 -30t-106.5 -8l-16 10
v103zM135 230q0 -57 82 -87q34 10 58.5 31t24.5 56q0 36 -23.5 60t-58.5 24t-59 -24t-24 -60zM146 633l71 -72l-71 -71l-70 71zM290 633l70 -72l-70 -71l-71 71z" />
    <glyph glyph-name="uniFEDA" unicode="&#x643;" horiz-adv-x="753" arabic-form="final" 
d="M39 188q0 45 17.5 98t45.5 100l74 -36q-32 -69 -32 -122q0 -58 49.5 -85t147.5 -27q58 0 105 7.5t75 21.5t28 31l-5 459l105 18l-5 -486q15 -25 40 -34.5t69 -9.5l16 -10v-103l-16 -10q-57 0 -94 15t-62 47q-38 -36 -104.5 -53.5t-151.5 -17.5q-149 0 -225.5 48.5
t-76.5 148.5zM335 490.5q37 23.5 95 26.5l-4 -57q-29 -2 -45.5 -8.5t-16.5 -13.5q0 -5 21 -16l15 -7q39 -18 39 -43q0 -33 -43 -56.5t-112 -28.5l-12 56q42 5 69.5 11.5t27.5 13.5q0 2 -4 4t-18 8l-12 6q-20 8 -28.5 19.5t-8.5 29.5q0 32 37 55.5z" />
    <glyph glyph-name="uniFEDB" unicode="&#x643;" horiz-adv-x="439" arabic-form="initial" 
d="M-16 113l16 10q41 0 81.5 4t74 10.5t53.5 15t20 17.5q0 26 -23.5 63t-67 79t-104.5 82l17 101q90 47 179.5 87.5t171.5 74.5l21 -107q-67 -25 -130 -51t-140 -62q82 -70 127 -141.5t45 -135.5q0 -75 -78.5 -117.5t-246.5 -42.5l-16 10v103z" />
    <glyph glyph-name="uniFEDC" unicode="&#x643;" horiz-adv-x="417" arabic-form="medial" 
d="M-16 113l16 10q51 0 92 6t74 20l-132 245l17 101q89 46 178.5 87t172.5 75l20 -107q-71 -26 -138 -54t-151 -67l120 -224q18 -33 37.5 -51t49.5 -24.5t77 -6.5l16 -10v-103l-16 -10q-66 0 -110 13.5t-76 44.5q-37 -28 -92 -43t-139 -15l-16 10v103z" />
    <glyph glyph-name="uniFEDE" unicode="&#x644;" horiz-adv-x="666" arabic-form="final" 
d="M40 34q0 56 21.5 116.5t59.5 109.5l69 -43q-49 -82 -49 -154q0 -66 41 -104t118 -38q48 0 84.5 13.5t58 36.5t20.5 51l-6 613l104 18l-5 -486q18 -27 44 -35.5t66 -8.5l16 -10v-103l-16 -10q-34 0 -61.5 5.5t-49.5 17.5q-5 -102 -73 -164t-183 -62q-121 0 -190 63
t-69 174z" />
    <glyph glyph-name="uniFEDF" unicode="&#x644;" horiz-adv-x="264" arabic-form="initial" 
d="M174 71.5q-29 -38.5 -75 -55t-99 -16.5l-16 10v103l16 10q27 0 52 4.5t40.5 15t15.5 27.5l-5 465l105 18l-5 -478q0 -65 -29 -103.5z" />
    <glyph glyph-name="uniFEE0" unicode="&#x644;" horiz-adv-x="312" arabic-form="medial" 
d="M328 10l-16 -10q-52 0 -89 13t-62 43q-26 -29 -68.5 -42.5t-92.5 -13.5l-16 10v103l16 10q47 0 77.5 11.5t30.5 34.5l-5 466l105 18l-5 -486q15 -25 40 -34.5t69 -9.5l16 -10v-103z" />
    <glyph glyph-name="uniFEE2" unicode="&#x645;" horiz-adv-x="570" arabic-form="final" 
d="M139 -55l-2 -316l-93 -9l-6 320q-1 44 5 85.5t26.5 92t60.5 119.5q22 37 51 73.5t65.5 60.5t79.5 24q46 0 84.5 -30.5t61.5 -81t23 -112.5q0 -14 -1 -26q25 -22 76 -22l16 -10v-103l-16 -10q-72 0 -120 36q-43 -44 -121 -44q-101 0 -171 80q-12 -33 -15.5 -61t-3.5 -66z
M383 250.5q-26 31.5 -62 31.5q-26 0 -48.5 -18t-39.5 -43.5t-29 -47.5q24 -30 58 -48.5t72 -18.5q35 0 55 18.5t20 51.5q0 43 -26 74.5z" />
    <glyph glyph-name="uniFEE3" unicode="&#x645;" horiz-adv-x="524" arabic-form="initial" 
d="M-16 113l16 10q40 0 62.5 13t44.5 50l56 96q32 57 67.5 85t83.5 28q46 0 84.5 -31t61.5 -81.5t23 -111.5q0 -87 -43.5 -133t-122.5 -46q-101 0 -170 80q-29 -41 -65 -56.5t-82 -15.5l-16 10v103zM386 228q-12 24 -32 39t-45 15q-50 0 -88 -75l-22 -42q22 -26 54.5 -42.5
t69.5 -16.5q34 0 54.5 18.5t20.5 51.5q0 28 -12 52z" />
    <glyph glyph-name="uniFEE4" unicode="&#x645;" horiz-adv-x="558" arabic-form="medial" 
d="M-16 113l16 10q40 0 62.5 13t44.5 50l56 96q32 57 67.5 85t83.5 28q46 0 84.5 -31t61.5 -81.5t23 -111.5q0 -13 -1 -26q23 -22 76 -22l16 -10v-103l-16 -10q-73 0 -120 37q-43 -45 -121 -45q-101 0 -170 80q-29 -41 -65 -56.5t-82 -15.5l-16 10v103zM386 228
q-12 24 -32 39t-45 15q-50 0 -88 -75l-22 -42q22 -26 54.5 -42.5t69.5 -16.5q34 0 54.5 18.5t20.5 51.5q0 28 -12 52z" />
    <glyph glyph-name="uniFEE6" unicode="&#x646;" horiz-adv-x="651" arabic-form="final" 
d="M40 34q0 56 21.5 116.5t59.5 109.5l69 -43q-49 -82 -49 -154q0 -65 44.5 -103.5t123.5 -38.5q49 0 87.5 14t61.5 37t23 50q0 37 -17.5 95.5t-51.5 131.5l97 54q15 -33 28.5 -72t22.5 -78q22 -30 91 -30l16 -10v-103l-16 -10q-41 0 -75 12q-6 -64 -41 -112.5t-93.5 -75.5
t-132.5 -27q-124 0 -196.5 64t-72.5 173zM301 324l-72 73l72 73l72 -73z" />
    <glyph glyph-name="uniFEE7" unicode="&#x646;" horiz-adv-x="284" arabic-form="initial" 
d="M-16 113l16 10q64 0 104.5 15.5t40.5 37.5t-8.5 54t-23 68.5t-33.5 68.5l99 54q18 -32 32 -74.5t21.5 -84t7.5 -72.5q0 -100 -59.5 -145t-180.5 -45l-16 10v103zM120 490l-72 73l72 73l72 -73z" />
    <glyph glyph-name="uniFEE8" unicode="&#x646;" horiz-adv-x="336" arabic-form="medial" 
d="M-16 113l16 10q62 0 90.5 13.5t34.5 44.5q5 22 11 59t10 65l92 -12q-5 -40 -9 -74.5t-4 -42.5q0 -27 26.5 -40t84.5 -13l16 -10v-103l-16 -10q-61 0 -99 16.5t-60 52.5q-50 -69 -177 -69l-16 10v103zM196 378l-72 73l72 73l72 -73z" />
    <glyph glyph-name="uniFEEA" unicode="&#x647;" horiz-adv-x="469" arabic-form="final" 
d="M31 230q0 80 67.5 138.5t192.5 87.5l-1 58l101 18l-4 -342q-1 -37 18.5 -52t63.5 -15l16 -10v-103l-16 -10q-70 0 -113.5 26.5t-55.5 80.5q-44 -27 -102 -27q-46 0 -84 17.5t-60.5 51.5t-22.5 81zM119 251q0 -29 28.5 -42t68.5 -13q41 0 79 13l-2 141q-48 -6 -87.5 -20
t-63 -34t-23.5 -45z" />
    <glyph glyph-name="uniFEEB" unicode="&#x647;" horiz-adv-x="572" arabic-form="initial" 
d="M-16 113l16 10q48 0 79 2q-17 23 -25 47.5t-8 49.5q0 50 20.5 90.5t55 64.5t75.5 24q42 0 76 -23.5t54.5 -64t20.5 -90.5q0 -31 -9 -56t-23 -45h21q53 0 82.5 14.5t29.5 36.5q0 56 -28.5 115t-85 108.5t-141.5 77.5l45 100q98 -34 163.5 -96t98.5 -139.5t33 -158.5
q0 -89 -51.5 -134.5t-140.5 -45.5q-38 0 -77 11t-73 27q-98 -38 -192 -38l-16 10v103zM271 226q0 32 -21 53t-53 21q-30 0 -52 -21t-22 -53q0 -51 73 -82q39 14 57 35t18 47z" />
    <glyph glyph-name="uniFEEC" unicode="&#x647;" horiz-adv-x="443" arabic-form="medial" 
d="M-16 113l16 10h9h40q9 61 29.5 115.5t49.5 96t61.5 65.5t64.5 24q35 0 66 -29t51 -74.5t20 -97.5q0 -30 -7.5 -54.5t-20.5 -45.5h80l16 -10v-103l-16 -10h-46q11 -17 14.5 -34.5t3.5 -34.5q0 -63 -45.5 -103t-118.5 -40q-78 0 -133.5 55.5t-68.5 157.5q-20 -1 -41 -1h-8
l-16 10v103zM308 220q0 34 -18.5 60.5t-41.5 26.5q-24 0 -47.5 -24.5t-41.5 -65.5t-26 -91q83 6 129 26.5t46 67.5zM329 -44q0 61 -82 81q-26 -10 -54 -17t-58 -11q10 -44 38 -76t82 -32q34 0 54 15.5t20 39.5z" />
    <glyph glyph-name="uniFEEE" unicode="&#x648;" horiz-adv-x="442" arabic-form="final" 
d="M52 188q0 60 22 107t60 73.5t86 26.5q52 0 91 -33.5t61 -94.5t23 -144h47l16 -10v-103l-16 -10h-65q-29 -85 -101.5 -136.5t-183.5 -69.5l-46 107q98 17 158.5 42t86.5 70h-35q-97 0 -150.5 47t-53.5 128zM135 192q0 -76 133 -76h43q-3 80 -27.5 124t-67.5 44
q-36 0 -58.5 -26t-22.5 -66z" />
    <glyph glyph-name="uniFEF0" unicode="&#x649;" horiz-adv-x="656" arabic-form="final" 
d="M595 -16q0 -45 -37.5 -88t-103.5 -71t-154 -28q-77 0 -136 28.5t-91.5 82t-32.5 126.5q0 56 21.5 116.5t59.5 109.5l69 -43q-49 -82 -49 -154q0 -65 46.5 -103.5t128.5 -38.5q58 0 101.5 13.5t67.5 34t24 42.5q0 9 -7.5 23t-27.5 39t-56 67l79 67q38 -49 74 -66.5
t85 -17.5l16 -10v-103l-16 -10q-15 0 -31 2.5t-33 8.5q3 -15 3 -27z" />
    <glyph glyph-name="uniFEF2" unicode="&#x64a;" horiz-adv-x="656" arabic-form="final" 
d="M595 -16q0 -45 -37.5 -88t-103.5 -71t-154 -28q-77 0 -136 28.5t-91.5 82t-32.5 126.5q0 56 21.5 116.5t59.5 109.5l69 -43q-49 -82 -49 -154q0 -65 46.5 -103.5t128.5 -38.5q58 0 101.5 13.5t67.5 34t24 42.5q0 9 -7.5 23t-27.5 39t-56 67l79 67q38 -49 74 -66.5
t85 -17.5l16 -10v-103l-16 -10q-15 0 -31 2.5t-33 8.5q3 -15 3 -27zM158 -346l70 71l71 -71l-71 -71zM372 -275l70 -71l-70 -71l-71 71z" />
    <glyph glyph-name="uniFEF3" unicode="&#x64a;" horiz-adv-x="284" arabic-form="initial" 
d="M-16 113l16 10q64 0 104.5 15.5t40.5 37.5t-8.5 54t-23 68.5t-33.5 68.5l99 54q18 -32 32 -74.5t21.5 -84t7.5 -72.5q0 -100 -59.5 -145t-180.5 -45l-16 10v103zM-26 -143l70 71l71 -71l-71 -71zM188 -72l70 -71l-70 -71l-71 71z" />
    <glyph glyph-name="uniFEF4" unicode="&#x64a;" horiz-adv-x="336" arabic-form="medial" 
d="M-16 113l16 10q62 0 90.5 13.5t34.5 44.5q5 22 11 59t10 65l92 -12q-5 -40 -9 -74.5t-4 -42.5q0 -27 26.5 -40t84.5 -13l16 -10v-103l-16 -10q-61 0 -99 16.5t-60 52.5q-50 -69 -177 -69l-16 10v103zM7 -143l70 71l71 -71l-71 -71zM221 -72l70 -71l-70 -71l-71 71z" />
    <glyph glyph-name=".notdef" horiz-adv-x="500" 
d="M50 750h400v-750h-400v750zM400 700h-300v-650h300v650z" />
    <glyph glyph-name="uni0000" 
 />
    <glyph glyph-name="uni0000" 
 />
    <glyph glyph-name="uni000D" unicode="&#xd;" horiz-adv-x="181" 
 />
    <glyph glyph-name="space" unicode=" " horiz-adv-x="176" 
 />
    <glyph glyph-name="exclam" unicode="!" horiz-adv-x="269" 
d="M66 667h137l-10 -462h-118zM66 134h136v-134h-136v134z" />
    <glyph glyph-name="quotedbl" unicode="&#x22;" horiz-adv-x="461" 
d="M75 667h120l-12 -241h-96zM267 667h120l-12 -241h-96z" />
    <glyph glyph-name="numbersign" unicode="#" horiz-adv-x="701" 
d="M42 249h119l35 129h-105v94h130l42 155h107l-42 -155h130l42 155h106l-42 -155h94v-94h-119l-35 -129h106v-95h-131l-42 -154h-106l42 154h-130l-42 -154h-107l42 154h-94v95zM433 378h-130l-35 -129h130z" />
    <glyph glyph-name="dollar" unicode="$" horiz-adv-x="545" 
d="M244 -8q-65 5 -121 30.5t-94 69.5l68 86q67 -67 147 -79v179q-185 47 -185 182q0 74 50 121t135 56v92h81v-93q105 -12 168 -80l-71 -80q-37 42 -97 54v-161q187 -49 187 -185q0 -76 -51 -126.5t-136 -62.5v-94h-81v91zM392 179q0 26 -15 44t-52 32v-155q67 16 67 79z
M244 531q-67 -12 -67 -67q0 -24 15.5 -41t51.5 -31v139z" />
    <glyph glyph-name="percent" unicode="%" horiz-adv-x="854" 
d="M22 460q0 83 42.5 131.5t115.5 48.5t115.5 -48.5t42.5 -131.5t-42.5 -132t-115.5 -49t-115.5 49t-42.5 132zM113 459q0 -49 18 -77t49 -28q32 0 49.5 28t17.5 78t-17.5 77.5t-49.5 27.5q-31 0 -49 -28t-18 -78zM282 0h-110l402 630h108zM516 171q0 83 42.5 131.5
t115.5 48.5t115.5 -48.5t42.5 -131.5t-42.5 -132t-115.5 -49t-115.5 49t-42.5 132zM607 170q0 -49 18 -77t49 -28q32 0 49.5 28t17.5 78t-17.5 77.5t-49.5 27.5q-31 0 -49 -28t-18 -78z" />
    <glyph glyph-name="ampersand" unicode="&#x26;" horiz-adv-x="661" 
d="M34 171q0 120 135 203q-60 70 -60 141q0 49 25.5 87t70.5 60t102 22q127 0 182 -111l-85 -60q-19 35 -41.5 51t-51.5 16q-36 0 -57.5 -19t-21.5 -51q0 -19 11 -38.5t37 -50.5l171 -189l91 106l82 -74l-100 -114l136 -150h-158l-59 66q-47 -43 -92.5 -62.5t-99.5 -19.5
q-65 0 -114 23.5t-76 65.5t-27 98zM157 188q0 -45 28 -71t76 -26q30 0 56.5 12.5t55.5 40.5l-142 159q-40 -28 -57 -55.5t-17 -59.5z" />
    <glyph glyph-name="quotesingle" unicode="'" horiz-adv-x="269" 
d="M75 667h120l-12 -241h-96z" />
    <glyph glyph-name="parenleft" unicode="(" horiz-adv-x="315" 
d="M60 307q0 107 26.5 210t75.5 189h120q-46 -88 -70 -191t-24 -208t24 -208t70 -191h-120q-49 86 -75.5 189t-26.5 210z" />
    <glyph glyph-name="parenright" unicode=")" horiz-adv-x="315" 
d="M127 307q0 105 -24 208t-69 191h119q50 -86 76 -189t26 -210t-26 -210t-76 -189h-119q45 88 69 191t24 208z" />
    <glyph glyph-name="asterisk" unicode="*" horiz-adv-x="472" 
d="M189 714h95l-17 -143l115 86l47 -81l-133 -58l133 -58l-47 -81l-115 86l17 -143h-95l16 143l-115 -86l-47 81l134 58l-134 58l47 81l115 -86z" />
    <glyph glyph-name="plus" unicode="+" horiz-adv-x="545" 
d="M222 271h-154v100h154v151h101v-151h154v-100h-154v-151h-101v151z" />
    <glyph glyph-name="comma" unicode="," horiz-adv-x="272" 
d="M77 137h124q0 -88 -31 -167t-87 -135l-73 51q67 101 67 251z" />
    <glyph glyph-name="hyphen" unicode="-" horiz-adv-x="444" 
d="M68 337h309v-114h-309v114z" />
    <glyph glyph-name="period" unicode="." horiz-adv-x="272" 
d="M64 137h143v-137h-143v137z" />
    <glyph glyph-name="slash" unicode="/" horiz-adv-x="432" 
d="M285 683h125l-263 -699h-125z" />
    <glyph glyph-name="zero" unicode="0" horiz-adv-x="545" 
d="M26 315q0 156 65.5 243.5t180.5 87.5q116 0 181.5 -88t65.5 -243t-65.5 -243t-181.5 -88q-115 0 -180.5 87.5t-65.5 243.5zM151 315q0 -105 31.5 -161.5t89.5 -56.5q59 0 90.5 56.5t31.5 161.5t-31.5 161.5t-90.5 56.5q-58 0 -89.5 -56.5t-31.5 -161.5z" />
    <glyph glyph-name="one" unicode="1" horiz-adv-x="545" 
d="M95 106h137v393l-116 -65l-50 95l185 101h101v-524h128v-106h-385v106z" />
    <glyph glyph-name="two" unicode="2" horiz-adv-x="545" 
d="M66 60q0 49 15.5 88.5t51.5 78t99 84.5l33 25q54 40 74.5 66.5t20.5 56.5q0 37 -26 58t-71 21q-76 0 -129 -72l-80 65q35 56 92 85.5t129 29.5q95 0 152 -49t57 -132q0 -56 -32.5 -102t-109.5 -103l-30 -22q-41 -31 -64.5 -52.5t-34.5 -40t-13 -39.5h289v-106h-423v60z
" />
    <glyph glyph-name="three" unicode="3" horiz-adv-x="545" 
d="M366 198q0 45 -29 72.5t-78 27.5q-32 0 -67 -12l-33 63l168 176h-242v105h385v-95l-152 -159q51 -1 90 -24.5t61 -64t22 -93.5q0 -63 -30.5 -110t-86 -73.5t-129.5 -26.5q-123 0 -209 78l67 88q66 -57 142 -57q56 0 88.5 28t32.5 77z" />
    <glyph glyph-name="four" unicode="4" horiz-adv-x="545" 
d="M33 216l287 414h122v-406h73v-102h-73v-122h-114v122h-295v94zM331 487l-185 -265h185v265z" />
    <glyph glyph-name="five" unicode="5" horiz-adv-x="545" 
d="M360 203q0 50 -33 78t-91 28q-49 0 -95 -25l-56 42l53 304h327v-104h-242l-27 -139q33 13 79 13q95 0 151.5 -54t56.5 -145q0 -65 -30 -114t-84 -76t-127 -27q-120 0 -206 78l65 87q34 -29 66.5 -42.5t67.5 -13.5q57 0 91 30t34 80z" />
    <glyph glyph-name="six" unicode="6" horiz-adv-x="545" 
d="M49 297q0 108 34 186.5t97.5 120.5t150.5 42q86 0 153 -42l-49 -95q-46 30 -104 30q-68 0 -110 -47t-50 -131q63 46 140 46q89 0 141 -54t52 -146q0 -66 -27.5 -116t-77 -78.5t-114.5 -28.5q-111 0 -173.5 83t-62.5 230zM361.5 284q-27.5 27 -77.5 27q-60 0 -114 -48
q3 -83 32.5 -126.5t84.5 -43.5q47 0 74.5 31t27.5 83q0 50 -27.5 77z" />
    <glyph glyph-name="seven" unicode="7" horiz-adv-x="545" 
d="M61 630h443v-103q-34 -56 -69.5 -124t-68 -140t-58.5 -139.5t-43 -123.5h-127q20 63 48.5 134t61.5 142t67.5 135t66.5 114h-321v105z" />
    <glyph glyph-name="eight" unicode="8" horiz-adv-x="545" 
d="M34 170q0 56 33 101t92 69q-94 49 -94 144q0 73 57.5 117.5t152.5 44.5q93 0 149 -43.5t56 -115.5q0 -47 -26 -85t-73 -60q63 -26 96.5 -69.5t33.5 -100.5q0 -55 -30.5 -97.5t-84.5 -66.5t-124 -24t-123.5 24t-84 65.5t-30.5 96.5zM155 178q0 -43 32.5 -69.5t84.5 -26.5
t83.5 27.5t31.5 71.5q0 37 -26 63t-89 51q-55 -15 -86 -45.5t-31 -71.5zM179 479q0 -66 91 -101q45 14 70.5 40.5t25.5 59.5q0 35 -26 56.5t-68 21.5q-41 0 -67 -21t-26 -56z" />
    <glyph glyph-name="nine" unicode="9" horiz-adv-x="545" 
d="M41 423q0 66 27.5 116.5t77 78.5t114.5 28q111 0 173.5 -83t62.5 -230q0 -108 -34 -186t-97 -120.5t-151 -42.5q-41 0 -80 10t-73 32l49 95q46 -30 104 -30q68 0 110 47t50 131q-63 -46 -140 -46q-88 0 -140.5 54.5t-52.5 145.5zM156 422q0 -49 27.5 -76t77.5 -27
q60 0 114 48q-3 83 -32.5 126.5t-84.5 43.5q-47 0 -74.5 -31t-27.5 -84z" />
    <glyph glyph-name="colon" unicode=":" horiz-adv-x="272" 
d="M67 137h138v-137h-138v137zM67 468h138v-137h-138v137z" />
    <glyph glyph-name="semicolon" unicode=";" horiz-adv-x="272" 
d="M77 137h124q0 -88 -31 -167t-87 -135l-73 51q67 101 67 251zM70 468h137v-137h-137v137z" />
    <glyph glyph-name="less" unicode="&#x3c;" horiz-adv-x="545" 
d="M58 363l373 190l42 -89l-289 -143l289 -143l-42 -89l-373 190v84z" />
    <glyph glyph-name="equal" unicode="=" horiz-adv-x="545" 
d="M68 277h409v-100h-409v100zM68 465h409v-100h-409v100z" />
    <glyph glyph-name="greater" unicode="&#x3e;" horiz-adv-x="545" 
d="M487 279l-373 -190l-42 89l289 143l-289 143l42 89l373 -190v-84z" />
    <glyph glyph-name="question" unicode="?" horiz-adv-x="522" 
d="M175 230q0 54 19 92.5t65 72.5l18 14q42 31 57.5 51t15.5 43q0 33 -26 52.5t-72 19.5q-82 0 -145 -66l-73 75q42 49 100 74t126 25q98 0 156.5 -48t58.5 -128q0 -46 -23 -83t-77 -78l-18 -14q-37 -28 -51.5 -50.5t-14.5 -54.5v-22h-116v25zM165 134h137v-134h-137v134z
" />
    <glyph glyph-name="at" unicode="@" horiz-adv-x="961" 
d="M43 277q0 124 56 216t157.5 142.5t236.5 50.5q132 0 227 -48.5t146.5 -139t51.5 -215.5q0 -90 -26.5 -157t-74 -104.5t-112.5 -37.5q-94 0 -118 74q-26 -35 -67.5 -54t-92.5 -19q-76 0 -120 41t-44 108q0 76 57 118.5t158 42.5q43 0 94 -8v14q0 85 -108 85
q-78 0 -132 -41l-48 76q79 61 192 61q101 0 157 -47t56 -132v-177q0 -53 39 -53q28 0 48.5 26t32.5 71t12 103q0 156 -87 243t-244 87q-106 0 -185 -40t-122 -114t-43 -177q0 -145 97 -243l-67 -55q-61 52 -94 131t-33 172zM401.5 89.5q21.5 -18.5 58.5 -18.5q47 0 79.5 27
t32.5 66v50q-43 7 -77 7q-115 0 -115 -79q0 -34 21.5 -52.5z" />
    <glyph glyph-name="A" unicode="A" horiz-adv-x="669" 
d="M460 167h-257l-58 -167h-134l253 667h142l252 -667h-140zM332 538l-95 -272h189z" />
    <glyph glyph-name="B" unicode="B" horiz-adv-x="609" 
d="M70 667h250q101 0 157 -42t56 -118q0 -56 -29.5 -98t-77.5 -55q67 -13 105 -57t38 -111q0 -89 -67.5 -137.5t-192.5 -48.5h-239v667zM439 196q0 49 -34 75.5t-99 26.5h-111v-197h110q134 0 134 95zM381 544.5q-26 21.5 -74 21.5h-112v-174h102q51 0 80.5 25t29.5 66
q0 40 -26 61.5z" />
    <glyph glyph-name="C" unicode="C" horiz-adv-x="679" 
d="M43 332q0 102 44 181.5t120.5 124.5t175.5 45q84 0 153.5 -34.5t112.5 -96.5l-87 -79q-63 94 -172 94q-62 0 -110 -29.5t-75 -82t-27 -122.5q0 -69 26.5 -121.5t74.5 -82t110 -29.5q104 0 179 95l84 -76q-45 -65 -114.5 -100t-155.5 -35q-99 0 -175.5 44.5t-120 123
t-43.5 180.5z" />
    <glyph glyph-name="D" unicode="D" horiz-adv-x="715" 
d="M70 667h239q114 0 195.5 -39t124.5 -113.5t43 -179.5t-43.5 -180t-124.5 -115t-196 -40h-238v667zM537 334q0 105 -60.5 162t-172.5 57h-105v-439h106q111 0 171.5 57.5t60.5 162.5z" />
    <glyph glyph-name="E" unicode="E" horiz-adv-x="573" 
d="M70 667h441v-112h-313v-159h236v-106h-236v-178h337v-112h-465v667z" />
    <glyph glyph-name="F" unicode="F" horiz-adv-x="539" 
d="M70 667h440v-114h-311v-173h237v-110h-237v-270h-129v667z" />
    <glyph glyph-name="G" unicode="G" horiz-adv-x="722" 
d="M408 356h252v-280q-47 -43 -116.5 -67.5t-147.5 -24.5q-105 0 -184.5 43.5t-124 122t-44.5 181.5t44 182.5t122 124.5t178 45q83 0 151 -31.5t114 -90.5l-81 -83q-64 90 -177 90q-64 0 -113 -29.5t-76.5 -82.5t-27.5 -124q0 -70 27.5 -122.5t78 -81.5t118.5 -29
q77 0 137 36v117h-130v104z" />
    <glyph glyph-name="H" unicode="H" horiz-adv-x="715" 
d="M516 288h-317v-288h-129v667h129v-266h317v266h129v-667h-129v288z" />
    <glyph glyph-name="I" unicode="I" horiz-adv-x="269" 
d="M70 667h129v-667h-129v667z" />
    <glyph glyph-name="J" unicode="J" horiz-adv-x="497" 
d="M309 219v448h129v-455q0 -107 -59 -167.5t-165 -60.5q-125 0 -203 89l78 86q48 -58 114 -58q50 0 78 31t28 87z" />
    <glyph glyph-name="K" unicode="K" horiz-adv-x="648" 
d="M70 667h129v-299l254 299h148l-237 -269l273 -398h-154l-206 312l-78 -90v-222h-129v667z" />
    <glyph glyph-name="L" unicode="L" horiz-adv-x="552" 
d="M70 667h129v-553h329v-114h-458v667z" />
    <glyph glyph-name="M" unicode="M" horiz-adv-x="800" 
d="M594 471l-165 -288h-65l-163 283l-19 -466h-123l31 667h124l186 -325l186 325h123l31 -667h-128z" />
    <glyph glyph-name="N" unicode="N" horiz-adv-x="712" 
d="M70 667h120l326 -464v464h126v-667h-120l-326 465v-465h-126v667z" />
    <glyph glyph-name="O" unicode="O" horiz-adv-x="780" 
d="M43 334q0 75 26 138.5t73.5 110.5t110.5 73.5t137 26.5t137 -26.5t110.5 -74t73.5 -111t26 -138.5q0 -74 -26 -137.5t-73 -111t-110 -74t-137 -26.5t-137.5 26.5t-110.5 74t-73.5 111t-26.5 138.5zM178 334q0 -68 27.5 -121t76 -83t109.5 -30t108.5 30t75 83t27.5 120
q0 68 -27.5 120.5t-75 83t-108.5 30.5t-109.5 -30t-76 -82.5t-27.5 -120.5z" />
    <glyph glyph-name="P" unicode="P" horiz-adv-x="586" 
d="M70 667h240q110 0 173 -55.5t63 -153.5t-62.5 -155t-169.5 -57h-117v-246h-127v667zM417 456q0 50 -30.5 78t-85.5 28h-104v-211h104q56 0 86 27.5t30 77.5z" />
    <glyph glyph-name="Q" unicode="Q" horiz-adv-x="780" 
d="M43 334q0 75 26 138.5t73.5 110.5t110.5 73.5t137 26.5t137 -26.5t110.5 -74t73.5 -111t26 -138.5q0 -78 -29 -144.5t-80 -113.5l77 -91l-70 -59l-82 97q-36 -18 -77 -28t-85 -10q-74 0 -137.5 26.5t-110.5 74t-73.5 111t-26.5 138.5zM178 331q0 -68 27.5 -122t76 -84.5
t109.5 -30.5q46 0 86 18l-88 104l70 60l90 -107q25 31 39 72t14 89q0 69 -27.5 122.5t-75 84t-108.5 30.5t-109.5 -30.5t-76 -83.5t-27.5 -122z" />
    <glyph glyph-name="R" unicode="R" horiz-adv-x="607" 
d="M70 667h242q110 0 172.5 -55t62.5 -151q0 -67 -31 -115t-86 -72l151 -274h-142l-129 253h-114v-253h-126v667zM420 459q0 50 -30.5 77t-85.5 27h-108v-206h108q55 0 85.5 26.5t30.5 75.5z" />
    <glyph glyph-name="S" unicode="S" horiz-adv-x="587" 
d="M412 184q0 38 -28 62t-94 41l-38 10q-90 23 -135.5 68.5t-45.5 118.5q0 60 29 104.5t81.5 69.5t122.5 25q68 0 126.5 -23.5t95.5 -66.5l-72 -84q-61 64 -150 64q-49 0 -77 -20.5t-28 -58.5q0 -32 26 -52.5t91 -37.5l37 -10q93 -25 141.5 -76t48.5 -127
q0 -62 -31.5 -108.5t-88 -72.5t-131.5 -26t-140.5 27.5t-114.5 79.5l72 87q83 -84 184 -84q56 0 87.5 24t31.5 66z" />
    <glyph glyph-name="T" unicode="T" horiz-adv-x="622" 
d="M246 553h-224v114h578v-114h-225v-553h-129v553z" />
    <glyph glyph-name="U" unicode="U" horiz-adv-x="673" 
d="M60 259v408h129v-407q0 -78 37.5 -118.5t109.5 -40.5q148 0 148 159v407h129v-408q0 -130 -73 -202.5t-204 -72.5q-130 0 -203 72.5t-73 202.5z" />
    <glyph glyph-name="V" unicode="V" horiz-adv-x="658" 
d="M513 667h134l-252 -667h-132l-252 667h141l181 -514z" />
    <glyph glyph-name="W" unicode="W" horiz-adv-x="903" 
d="M755 667h133l-174 -667h-137l-125 462l-126 -462h-137l-174 667h138l111 -499l130 481h121l130 -483z" />
    <glyph glyph-name="X" unicode="X" horiz-adv-x="635" 
d="M316 251l-159 -251h-146l230 347l-213 320h149l144 -225l143 225h143l-212 -319l229 -348h-149z" />
    <glyph glyph-name="Y" unicode="Y" horiz-adv-x="625" 
d="M248 283l-235 384h143l160 -278l159 278h136l-234 -382v-285h-129v283z" />
    <glyph glyph-name="Z" unicode="Z" horiz-adv-x="621" 
d="M44 105l365 448h-345v114h506v-105l-366 -448h373v-114h-533v105z" />
    <glyph glyph-name="bracketleft" unicode="[" horiz-adv-x="332" 
d="M75 706h234v-100h-114v-599h114v-100h-234v799z" />
    <glyph glyph-name="backslash" unicode="\" horiz-adv-x="432" 
d="M22 683h125l263 -699h-125z" />
    <glyph glyph-name="bracketright" unicode="]" horiz-adv-x="332" 
d="M24 7h113v599h-113v100h233v-799h-233v100z" />
    <glyph glyph-name="asciicircum" unicode="^" horiz-adv-x="545" 
d="M273 544l-110 -243h-119l177 366h103l177 -366h-119z" />
    <glyph glyph-name="underscore" unicode="_" horiz-adv-x="500" 
d="M0 -68h500v-112h-500v112z" />
    <glyph glyph-name="grave" unicode="`" horiz-adv-x="287" 
d="M253 540h-104l-116 159h138z" />
    <glyph glyph-name="a" unicode="a" horiz-adv-x="512" 
d="M32 133q0 77 55.5 120.5t161.5 43.5q20 0 43 -1.5t48 -5.5v13q0 83 -108 83q-76 0 -132 -41l-48 79q81 58 193 58q102 0 157.5 -47t55.5 -132v-303h-107l-5 55q-23 -33 -62 -51.5t-91 -18.5q-72 0 -116.5 40.5t-44.5 107.5zM148 145q0 -34 21.5 -51.5t59.5 -17.5
q47 0 79 26.5t32 64.5v48q-42 7 -77 7q-55 0 -85 -19t-30 -58z" />
    <glyph glyph-name="b" unicode="b" horiz-adv-x="562" 
d="M57 667h122v-250q48 65 141 65q62 0 109 -29.5t73 -82.5t26 -124q0 -81 -34 -139.5t-95 -90t-144 -31.5q-52 0 -106 10.5t-92 27.5v644zM405 239q0 62 -30.5 99.5t-82.5 37.5q-49 0 -81 -33t-32 -88v-155q37 -10 76 -10q71 0 110.5 39.5t39.5 109.5z" />
    <glyph glyph-name="c" unicode="c" horiz-adv-x="493" 
d="M34 232q0 73 33.5 129t91.5 88.5t131 32.5q108 0 180 -78l-68 -77q-43 49 -108 49q-59 0 -97.5 -40t-38.5 -103q0 -62 38.5 -102t98.5 -40q66 0 112 51l66 -79q-70 -78 -186 -78q-73 0 -130.5 31.5t-90 87.5t-32.5 128z" />
    <glyph glyph-name="d" unicode="d" horiz-adv-x="562" 
d="M34 220q0 77 31.5 136t86 92.5t123.5 33.5q57 0 108 -29v214h122v-667h-112l-5 58q-22 -35 -60 -54t-87 -19q-61 0 -108 29.5t-73 82.5t-26 123zM157 229q0 -64 31 -101t83 -37q50 0 81 33.5t31 87.5v137q-43 27 -92 27q-61 0 -97.5 -39.5t-36.5 -107.5z" />
    <glyph glyph-name="e" unicode="e" horiz-adv-x="542" 
d="M40 231q0 74 30.5 130.5t84.5 88.5t123 32t121.5 -32.5t82 -91t29.5 -136.5v-25h-351q7 -53 44.5 -83t98.5 -30q78 0 142 52l53 -76q-36 -36 -89.5 -55.5t-114.5 -19.5q-76 0 -133.5 30.5t-89 86t-31.5 129.5zM358 352q-30 28 -77 28q-49 0 -81 -28.5t-39 -76.5h233
q-6 49 -36 77z" />
    <glyph glyph-name="f" unicode="f" horiz-adv-x="345" 
d="M13 467h79v22q0 91 48.5 142t134.5 51q77 0 135 -47l-47 -80q-34 29 -72 29q-77 0 -77 -92v-25h121v-96h-121v-371h-122v371h-79v96z" />
    <glyph glyph-name="g" unicode="g" horiz-adv-x="561" 
d="M385 12v49q-47 -66 -144 -66q-62 0 -108.5 29t-72.5 80.5t-26 120.5q0 79 34.5 136.5t97.5 89t148 31.5q47 0 98 -9.5t93 -26.5v-426q0 -115 -64 -175t-186 -60q-119 0 -197 60l49 86q66 -46 143 -46q135 0 135 127zM383 216v150q-40 10 -72 10q-72 0 -113.5 -38.5
t-41.5 -108.5q0 -61 31.5 -97t83.5 -36q50 0 81 33t31 87z" />
    <glyph glyph-name="h" unicode="h" horiz-adv-x="556" 
d="M57 667h122v-262q23 37 63 57t90 20q80 0 125 -51t45 -142v-289h-122v268q0 106 -90 106q-51 0 -81 -35.5t-30 -97.5v-241h-122v667z" />
    <glyph glyph-name="i" unicode="i" horiz-adv-x="236" 
d="M57 467h122v-467h-122v467zM53 657h129v-115h-129v115z" />
    <glyph glyph-name="j" unicode="j" horiz-adv-x="236" 
d="M57 -21v489h122v-490q0 -192 -163 -192q-37 0 -65.5 9.5t-54.5 26.5l44 86q16 -11 29.5 -15.5t28.5 -4.5q31 0 45 21.5t14 69.5zM53 657h129v-115h-129v115z" />
    <glyph glyph-name="k" unicode="k" horiz-adv-x="520" 
d="M179 0h-122v667h122v-375l173 175h139l-177 -174l198 -293h-139l-141 219l-53 -53v-166z" />
    <glyph glyph-name="l" unicode="l" horiz-adv-x="236" 
d="M57 667h122v-667h-122v667z" />
    <glyph glyph-name="m" unicode="m" horiz-adv-x="858" 
d="M57 467h112l6 -65q21 37 60 58.5t90 21.5q105 0 142 -87q24 42 65.5 64.5t96.5 22.5q83 0 129 -51t46 -143v-288h-122v268q0 106 -85 106q-49 0 -77 -35.5t-28 -97.5v-241h-122v268q0 52 -22.5 79t-63.5 27q-48 0 -76.5 -35.5t-28.5 -97.5v-241h-122v467z" />
    <glyph glyph-name="n" unicode="n" horiz-adv-x="556" 
d="M57 467h112l6 -64q23 37 63.5 58t92.5 21q81 0 126 -51t45 -142v-289h-122v268q0 106 -90 106q-51 0 -81 -35.5t-30 -97.5v-241h-122v467z" />
    <glyph glyph-name="o" unicode="o" horiz-adv-x="572" 
d="M34 234q0 72 33 128t90 88t129 32t129 -32t90 -88t33 -128q0 -71 -33 -127.5t-90 -89t-129 -32.5t-129 32.5t-90 88.5t-33 128zM156 233q0 -63 36.5 -102.5t93.5 -39.5q56 0 92.5 39.5t36.5 103.5q0 63 -36 102.5t-93 39.5t-93.5 -39.5t-36.5 -103.5z" />
    <glyph glyph-name="p" unicode="p" horiz-adv-x="562" 
d="M57 467h112l6 -54q47 69 146 69q62 0 108.5 -29.5t72.5 -82.5t26 -123q0 -76 -30.5 -135.5t-84 -93t-123.5 -33.5q-58 0 -111 28v-213h-122v667zM405 238q0 63 -30.5 100t-83.5 37q-49 0 -80.5 -33t-31.5 -87v-140q44 -26 92 -26q62 0 98 40.5t36 108.5z" />
    <glyph glyph-name="q" unicode="q" horiz-adv-x="562" 
d="M383 51q-22 -31 -58.5 -48.5t-83.5 -17.5q-62 0 -109 29t-72.5 82t-25.5 124q0 81 34.5 140t97.5 90.5t149 31.5q49 0 101 -10t89 -26v-646h-122v251zM157 227q0 -62 31 -99t83 -37q50 0 81 33t31 87v156q-37 9 -72 9q-72 0 -113 -39t-41 -110z" />
    <glyph glyph-name="r" unicode="r" horiz-adv-x="380" 
d="M57 467h112l6 -73q24 38 61.5 59t82.5 21q14 0 27 -1.5t24 -5.5l-18 -109q-11 5 -23 6.5t-23 1.5q-55 0 -91 -36.5t-36 -95.5v-234h-122v467z" />
    <glyph glyph-name="s" unicode="s" horiz-adv-x="478" 
d="M322 127q0 24 -20.5 37.5t-73.5 23.5l-33 7q-73 15 -108 51t-35 87q0 68 54.5 108.5t146.5 40.5q102 0 174 -58l-48 -80q-28 21 -60.5 32.5t-69.5 11.5q-80 0 -80 -46q0 -22 18 -33.5t64 -20.5l36 -8q81 -16 117.5 -52t36.5 -89q0 -76 -58 -115t-152 -39
q-62 0 -115.5 18.5t-87.5 50.5l57 82q32 -26 69 -41.5t82 -15.5q86 0 86 48z" />
    <glyph glyph-name="t" unicode="t" horiz-adv-x="396" 
d="M16 467h79v153h122v-153h128v-96h-128v-209q0 -77 62 -77q35 0 66 27l46 -78q-55 -49 -134 -49t-120.5 44t-41.5 129v213h-79v96z" />
    <glyph glyph-name="u" unicode="u" horiz-adv-x="552" 
d="M54 178v289h122v-266q0 -52 22.5 -80t64.5 -28q50 0 80 38t30 102v234h122v-467h-111l-6 66q-23 -38 -63.5 -59.5t-90.5 -21.5q-80 0 -125 51t-45 142z" />
    <glyph glyph-name="v" unicode="v" horiz-adv-x="528" 
d="M267 135l125 332h129l-200 -467h-114l-201 467h136z" />
    <glyph glyph-name="w" unicode="w" horiz-adv-x="751" 
d="M620 467h121l-160 -467h-108l-97 300l-97 -300h-109l-159 467h126l95 -324l101 324h91l102 -323z" />
    <glyph glyph-name="x" unicode="x" horiz-adv-x="508" 
d="M251 162l-109 -162h-134l176 239l-163 228h141l96 -145l98 145h131l-162 -221l176 -246h-144z" />
    <glyph glyph-name="y" unicode="y" horiz-adv-x="528" 
d="M392 467h129l-215 -513q-39 -93 -79 -131t-100 -38q-63 0 -114 36l44 85q31 -21 59 -21q25 0 44.5 18.5t38.5 66.5l15 37l-208 460h136l130 -334z" />
    <glyph glyph-name="z" unicode="z" horiz-adv-x="490" 
d="M46 88l254 283h-245v96h391v-88l-254 -282h257v-97h-403v88z" />
    <glyph glyph-name="braceleft" unicode="{" horiz-adv-x="315" 
d="M29 341q70 5 76 79l13 165q4 47 15.5 75t34.5 46h122q-21 -21 -33 -49t-15 -66l-15 -178q-8 -87 -78 -106q70 -19 78 -106l14 -174q6 -76 49 -119h-122q-23 18 -34.5 46t-15.5 75l-13 165q-6 74 -76 79v68z" />
    <glyph glyph-name="bar" unicode="|" horiz-adv-x="249" 
d="M70 833h109v-997h-109v997z" />
    <glyph glyph-name="braceright" unicode="}" horiz-adv-x="315" 
d="M285 273q-69 -5 -75 -79l-13 -165q-4 -47 -15.5 -75t-34.5 -46h-123q43 43 49 119l15 174q7 86 78 106q-71 19 -78 106l-16 178q-6 74 -48 115h123q23 -18 34.5 -46t15.5 -75l13 -165q6 -74 75 -79v-68z" />
    <glyph glyph-name="asciitilde" unicode="~" horiz-adv-x="545" 
d="M41 325q62 74 139 74q20 0 42 -6t53 -21q23 -11 42 -17t37 -6q46 0 89 44l61 -73q-62 -74 -138 -74q-20 0 -41.5 6t-53.5 21q-23 11 -42.5 17t-37.5 6q-23 0 -44.5 -10.5t-44.5 -33.5z" />
    <glyph glyph-name="uni00A0" unicode="&#xa0;" horiz-adv-x="176" 
 />
    <glyph glyph-name="exclamdown" unicode="&#xa1;" horiz-adv-x="269" 
d="M75 263h118l10 -462h-137zM66 468h136v-134h-136v134z" />
    <glyph glyph-name="cent" unicode="&#xa2;" horiz-adv-x="545" 
d="M273 70q-62 9 -108.5 42t-72.5 84t-26 116t26.5 117.5t73 86.5t107.5 44v86h78v-85q88 -10 148 -79l-76 -77q-28 38 -72 49v-278q45 10 77 51l74 -80q-57 -67 -151 -78v-85h-78v86zM273 450q-38 -14 -61.5 -50t-23.5 -86q0 -49 23.5 -84.5t61.5 -49.5v270z" />
    <glyph glyph-name="sterling" unicode="&#xa3;" horiz-adv-x="545" 
d="M37 363h72v62q0 104 55.5 162.5t155.5 58.5q106 0 180 -73l-71 -84q-43 46 -99 46q-96 0 -96 -120v-52h186v-83h-186v-174h276v-106h-401v280h-72v83z" />
    <glyph glyph-name="currency" unicode="&#xa4;" horiz-adv-x="545" 
d="M74 329q0 56 28 104l-64 64l65 67l65 -65q48 30 105 30t105 -30l65 65l65 -67l-64 -64q28 -48 28 -104q0 -57 -29 -104l65 -65l-65 -66l-65 64q-48 -29 -105 -29t-105 29l-65 -64l-65 66l65 65q-29 47 -29 104zM170 329q0 -45 29.5 -75t73.5 -30t73.5 30t29.5 75
q0 44 -29.5 74t-73.5 30t-73.5 -30t-29.5 -74z" />
    <glyph glyph-name="yen" unicode="&#xa5;" horiz-adv-x="545" 
d="M66 193h143v67h-143v74h105l-164 296h137l131 -280l131 280h133l-164 -296h105v-74h-143v-67h143v-74h-143v-119h-128v119h-143v74z" />
    <glyph glyph-name="brokenbar" unicode="&#xa6;" horiz-adv-x="249" 
d="M70 215h109v-379h-109v379zM70 833h109v-379h-109v379z" />
    <glyph glyph-name="section" unicode="&#xa7;" horiz-adv-x="483" 
d="M303 -28q0 48 -59 88l-185 119l64 97l187 -120q115 -75 115 -185q0 -52 -25 -94.5t-69.5 -67t-102.5 -24.5q-87 0 -153 57l58 87q48 -37 87 -37q37 0 60 22t23 58zM186 497q0 -49 60 -89l184 -119l-64 -97l-187 121q-115 75 -115 184q0 53 25 95t69.5 66.5t102.5 24.5
q87 0 153 -57l-58 -87q-48 37 -87 37q-37 0 -60 -22t-23 -57z" />
    <glyph glyph-name="dieresis" unicode="&#xa8;" horiz-adv-x="365" 
d="M34 655h114v-105h-114v105zM218 655h114v-105h-114v105z" />
    <glyph glyph-name="copyright" unicode="&#xa9;" horiz-adv-x="809" 
d="M54 334q0 74 26.5 137.5t74.5 111t112 74t139 26.5q74 0 137.5 -26.5t111 -74t74 -111t26.5 -137.5q0 -75 -26.5 -138.5t-74 -111t-111 -74t-137.5 -26.5q-75 0 -139 26.5t-112 74t-74.5 111t-26.5 138.5zM132 334q0 -81 35.5 -143.5t97 -98.5t140.5 -36t140.5 36
t97 98.5t35.5 143.5q0 80 -35.5 142.5t-97 98.5t-140.5 36t-140.5 -36t-97 -98.5t-35.5 -142.5zM221 331q0 56 25 99.5t69 68.5t100 25q85 0 138 -62l-54 -55q-34 43 -85 43q-46 0 -76.5 -33t-30.5 -84t30 -83.5t78 -32.5q27 0 49.5 11.5t38.5 31.5l54 -55q-53 -62 -143 -62
q-57 0 -100.5 24t-68 66.5t-24.5 97.5z" />
    <glyph glyph-name="ordfeminine" unicode="&#xaa;" horiz-adv-x="383" 
d="M40 415q0 50 40.5 78.5t110.5 28.5q27 0 53 -5v9q0 50 -68 50q-48 0 -89 -29l-37 57q27 21 62 31.5t74 10.5q68 0 105.5 -31t37.5 -87v-198h-79l-4 34q-15 -20 -42 -31.5t-58 -11.5q-48 0 -77 26t-29 68zM125 423q0 -39 48 -39q30 0 50.5 15t20.5 38v27q-26 5 -45 5
q-74 0 -74 -46z" />
    <glyph glyph-name="guillemotleft" unicode="&#xab;" horiz-adv-x="551" 
d="M181 238l103 -196h-118l-109 196l109 196h118zM387 238l103 -196h-118l-109 196l109 196h118z" />
    <glyph glyph-name="logicalnot" unicode="&#xac;" horiz-adv-x="545" 
d="M372 271h-308v100h409v-233h-101v133z" />
    <glyph glyph-name="uni00AD" unicode="&#xad;" horiz-adv-x="444" 
d="M68 337h309v-114h-309v114z" />
    <glyph glyph-name="registered" unicode="&#xae;" horiz-adv-x="523" 
d="M33 457q0 67 29 118t80.5 79.5t118.5 28.5q68 0 119 -28.5t80 -79.5t29 -118t-29 -118t-80 -79.5t-119 -28.5q-67 0 -118.5 28.5t-80.5 79.5t-29 118zM90 457q0 -79 47 -127t124 -48q78 0 125 48t47 127q0 80 -47 127.5t-125 47.5q-77 0 -124 -47.5t-47 -127.5zM233 353
h-51v219h89q38 0 59 -19t21 -51q0 -46 -39 -64l52 -85h-58l-42 77h-31v-77zM264 531h-31v-62h31q36 0 36 31t-36 31z" />
    <glyph glyph-name="macron" unicode="&#xaf;" horiz-adv-x="347" 
d="M34 646h280v-87h-280v87z" />
    <glyph glyph-name="degree" unicode="&#xb0;" horiz-adv-x="345" 
d="M31 527q0 61 40 100.5t102 39.5t102 -39.5t40 -100.5q0 -60 -40 -100t-102 -40q-41 0 -73 18.5t-50.5 50t-18.5 71.5zM109 527q0 -30 18 -48t46 -18q29 0 46 18t17 48t-17 48t-46 18q-28 0 -46 -18t-18 -48z" />
    <glyph glyph-name="plusminus" unicode="&#xb1;" horiz-adv-x="545" 
d="M68 100h409v-100h-409v100zM222 299h-154v100h154v151h101v-151h154v-100h-154v-151h-101v151z" />
    <glyph glyph-name="uni00B2" unicode="&#xb2;" horiz-adv-x="360" 
d="M43 419q0 33 20.5 61t65.5 57l29 18q32 20 45 34.5t13 28.5q0 17 -13 26.5t-35 9.5q-44 0 -75 -40l-57 48q50 68 138 68q61 0 97.5 -27.5t36.5 -74.5q0 -31 -19 -58.5t-64 -56.5l-29 -18q-41 -28 -51 -44h165v-72h-267v40z" />
    <glyph glyph-name="uni00B3" unicode="&#xb3;" horiz-adv-x="360" 
d="M216 491q0 41 -60 41q-11 0 -23 -1.5t-23 -5.5l-19 41l102 84h-136v70h237v-63l-88 -71q47 -3 74.5 -29t27.5 -70q0 -55 -42 -86.5t-111 -31.5q-75 0 -130 40l42 65q40 -31 84 -31q29 0 47 13t18 35z" />
    <glyph glyph-name="acute" unicode="&#xb4;" horiz-adv-x="287" 
d="M115 699h138l-115 -159h-104z" />
    <glyph glyph-name="mu" unicode="&#xb5;" horiz-adv-x="555" 
d="M57 467h122v-267q0 -108 87 -108q50 0 80 37.5t30 100.5v237h122v-467h-112l-5 60q-20 -32 -55 -51t-76 -19q-44 0 -73 27v-217h-120v667z" />
    <glyph glyph-name="paragraph" unicode="&#xb6;" horiz-adv-x="552" 
d="M366 667h116v-789h-116v789zM37 484q0 90 61 136.5t179 46.5h23v-367h-23q-240 0 -240 184zM300 -122h-116v378q26 -6 50 -8t66 -2v-368z" />
    <glyph glyph-name="periodcentered" unicode="&#xb7;" horiz-adv-x="272" 
d="M64 299h143v-137h-143v137z" />
    <glyph glyph-name="cedilla" unicode="&#xb8;" horiz-adv-x="299" 
d="M179 -146q0 34 -55 34q-16 0 -34 -3t-35 -10l12 60q33 13 75 13q58 0 90.5 -24t32.5 -66q0 -46 -38.5 -74t-100.5 -28q-23 0 -46.5 4t-46.5 12l13 63q19 -8 38 -11.5t37 -3.5q58 0 58 34z" />
    <glyph glyph-name="uni00B9" unicode="&#xb9;" horiz-adv-x="360" 
d="M168 629l-81 -41l-34 66l124 66h83v-341h-92v250z" />
    <glyph glyph-name="ordmasculine" unicode="&#xba;" horiz-adv-x="414" 
d="M43 484q0 73 45.5 117.5t118.5 44.5q74 0 119.5 -44.5t45.5 -117.5t-45.5 -118t-119.5 -45q-73 0 -118.5 45t-45.5 118zM129 484q0 -39 21 -61.5t57 -22.5t57 22.5t21 61.5t-21 61t-57 22t-57 -22t-21 -61z" />
    <glyph glyph-name="guillemotright" unicode="&#xbb;" horiz-adv-x="551" 
d="M164 238l-103 196h118l109 -196l-109 -196h-118zM370 238l-103 196h118l109 -196l-109 -196h-118z" />
    <glyph glyph-name="onequarter" unicode="&#xbc;" horiz-adv-x="854" 
d="M168 539l-81 -41l-34 66l124 66h83v-341h-92v250zM282 0h-110l402 630h108zM520 130l168 211h97v-210h41v-68h-41v-63h-85v63h-180v67zM702 260l-107 -132h107v132z" />
    <glyph glyph-name="onehalf" unicode="&#xbd;" horiz-adv-x="854" 
d="M168 539l-81 -41l-34 66l124 66h83v-341h-92v250zM282 0h-110l402 630h108zM537 40q0 33 20.5 61t65.5 57l29 18q32 20 45 34.5t13 28.5q0 17 -13 26.5t-35 9.5q-44 0 -75 -40l-57 48q50 68 138 68q61 0 97.5 -27.5t36.5 -74.5q0 -31 -19 -58.5t-64 -56.5l-29 -18
q-41 -28 -51 -44h165v-72h-267v40z" />
    <glyph glyph-name="threequarters" unicode="&#xbe;" horiz-adv-x="854" 
d="M216 401q0 41 -60 41q-11 0 -23 -1.5t-23 -5.5l-19 41l102 84h-136v70h237v-63l-88 -71q47 -3 74.5 -29t27.5 -70q0 -55 -42 -86.5t-111 -31.5q-75 0 -130 40l42 65q40 -31 84 -31q29 0 47 13t18 35zM282 0h-110l402 630h108zM520 130l168 211h97v-210h41v-68h-41v-63
h-85v63h-180v67zM702 260l-107 -132h107v132z" />
    <glyph glyph-name="questiondown" unicode="&#xbf;" horiz-adv-x="522" 
d="M33 -40q0 47 23.5 84t77.5 78l18 14q37 28 51 50.5t14 54.5v22h117v-25q0 -54 -19 -92t-65 -73l-19 -14q-41 -31 -56.5 -51t-15.5 -43q0 -33 26 -52.5t72 -19.5q83 0 144 66l74 -75q-87 -99 -226 -99q-98 0 -157 48t-59 127zM206 468h137v-134h-137v134z" />
    <glyph glyph-name="Agrave" unicode="&#xc0;" horiz-adv-x="669" 
d="M460 167h-257l-58 -167h-134l253 667h142l252 -667h-140zM332 538l-95 -272h189zM396 725h-106l-131 147h147z" />
    <glyph glyph-name="Aacute" unicode="&#xc1;" horiz-adv-x="669" 
d="M460 167h-257l-58 -167h-134l253 667h142l252 -667h-140zM332 538l-95 -272h189zM363 872h147l-131 -147h-106z" />
    <glyph glyph-name="Acircumflex" unicode="&#xc2;" horiz-adv-x="669" 
d="M460 167h-257l-58 -167h-134l253 667h142l252 -667h-140zM332 538l-95 -272h189zM335 806l-60 -81h-109l119 147h102l117 -147h-109z" />
    <glyph glyph-name="Atilde" unicode="&#xc3;" horiz-adv-x="669" 
d="M460 167h-257l-58 -167h-134l253 667h142l252 -667h-140zM332 538l-95 -272h189zM133 796q58 68 130 68q19 0 37 -5t41 -19q43 -22 71 -22q20 0 37.5 8.5t36.5 29.5l51 -60q-59 -68 -131 -68q-34 0 -78 24q-21 11 -38 17t-32 6q-39 0 -75 -39z" />
    <glyph glyph-name="Adieresis" unicode="&#xc4;" horiz-adv-x="669" 
d="M460 167h-257l-58 -167h-134l253 667h142l252 -667h-140zM332 538l-95 -272h189zM377 852h120v-112h-120v112zM174 852h119v-112h-119v112z" />
    <glyph glyph-name="Aring" unicode="&#xc5;" horiz-adv-x="669" 
d="M206 752q0 55 36 90.5t93 35.5q56 0 92 -35.5t36 -90.5q0 -33 -13.5 -59.5t-37.5 -43.5l246 -649h-140l-58 167h-257l-58 -167h-134l246 649q-24 17 -37.5 43.5t-13.5 59.5zM332 538l-95 -272h189zM371.5 791.5q-13.5 14.5 -36.5 14.5q-24 0 -37.5 -14.5t-13.5 -39.5
t13.5 -39.5t37.5 -14.5q23 0 36.5 14.5t13.5 39.5t-13.5 39.5z" />
    <glyph glyph-name="AE" unicode="&#xc6;" horiz-adv-x="980" 
d="M918 555h-313v-159h236v-106h-236v-178h337v-112h-460v160h-239l-93 -160h-139l400 667h507v-112zM482 557h-9l-173 -298h182v298z" />
    <glyph glyph-name="Ccedilla" unicode="&#xc7;" horiz-adv-x="679" 
d="M43 332q0 102 44 181.5t120.5 124.5t175.5 45q84 0 153.5 -34.5t112.5 -96.5l-87 -79q-63 94 -172 94q-62 0 -110 -29.5t-75 -82t-27 -122.5q0 -69 26.5 -121.5t74.5 -82t110 -29.5q104 0 179 95l84 -76q-45 -65 -114.5 -100t-155.5 -35q-99 0 -175.5 44.5t-120 123
t-43.5 180.5zM410 -148q0 31 -52 31q-17 0 -35.5 -3.5t-35.5 -8.5l12 63q40 14 82 14q57 0 90.5 -25t33.5 -69q0 -47 -39.5 -76t-104.5 -29q-55 0 -95 17l14 68q39 -15 75 -15q55 0 55 33z" />
    <glyph glyph-name="Egrave" unicode="&#xc8;" horiz-adv-x="573" 
d="M70 667h441v-112h-313v-159h236v-106h-236v-178h337v-112h-465v667zM349 725h-106l-131 147h147z" />
    <glyph glyph-name="Eacute" unicode="&#xc9;" horiz-adv-x="573" 
d="M70 667h441v-112h-313v-159h236v-106h-236v-178h337v-112h-465v667zM316 872h147l-131 -147h-106z" />
    <glyph glyph-name="Ecircumflex" unicode="&#xca;" horiz-adv-x="573" 
d="M70 667h441v-112h-313v-159h236v-106h-236v-178h337v-112h-465v667zM288 806l-60 -81h-109l119 147h102l117 -147h-109z" />
    <glyph glyph-name="Edieresis" unicode="&#xcb;" horiz-adv-x="573" 
d="M70 667h441v-112h-313v-159h236v-106h-236v-178h337v-112h-465v667zM330 852h120v-112h-120v112zM127 852h119v-112h-119v112z" />
    <glyph glyph-name="Igrave" unicode="&#xcc;" horiz-adv-x="269" 
d="M70 667h129v-667h-129v667zM195 725h-106l-131 147h147z" />
    <glyph glyph-name="Iacute" unicode="&#xcd;" horiz-adv-x="269" 
d="M70 667h129v-667h-129v667zM162 872h147l-131 -147h-106z" />
    <glyph glyph-name="Icircumflex" unicode="&#xce;" horiz-adv-x="269" 
d="M70 667h129v-667h-129v667zM134 806l-60 -81h-109l119 147h102l117 -147h-109z" />
    <glyph glyph-name="Idieresis" unicode="&#xcf;" horiz-adv-x="269" 
d="M70 667h129v-667h-129v667zM176 852h120v-112h-120v112zM-27 852h119v-112h-119v112z" />
    <glyph glyph-name="Eth" unicode="&#xd0;" horiz-adv-x="721" 
d="M9 382h68v285h238q114 0 195.5 -39t124.5 -113.5t43 -179.5t-43.5 -180t-125 -115t-195.5 -40h-237v297h-68v85zM542 334q0 105 -60.5 162t-172.5 57h-103v-171h144v-85h-144v-183h105q111 0 171 57.5t60 162.5z" />
    <glyph glyph-name="Ntilde" unicode="&#xd1;" horiz-adv-x="712" 
d="M70 667h120l326 -464v464h126v-667h-120l-326 465v-465h-126v667zM154 796q58 68 130 68q19 0 37 -5t41 -19q43 -22 71 -22q20 0 37.5 8.5t36.5 29.5l51 -60q-59 -68 -131 -68q-34 0 -78 24q-21 11 -38 17t-32 6q-39 0 -75 -39z" />
    <glyph glyph-name="Ograve" unicode="&#xd2;" horiz-adv-x="780" 
d="M43 334q0 75 26 138.5t73.5 110.5t110.5 73.5t137 26.5t137 -26.5t110.5 -74t73.5 -111t26 -138.5q0 -74 -26 -137.5t-73 -111t-110 -74t-137 -26.5t-137.5 26.5t-110.5 74t-73.5 111t-26.5 138.5zM178 334q0 -68 27.5 -121t76 -83t109.5 -30t108.5 30t75 83t27.5 120
q0 68 -27.5 120.5t-75 83t-108.5 30.5t-109.5 -30t-76 -82.5t-27.5 -120.5zM452 725h-106l-131 147h147z" />
    <glyph glyph-name="Oacute" unicode="&#xd3;" horiz-adv-x="780" 
d="M43 334q0 75 26 138.5t73.5 110.5t110.5 73.5t137 26.5t137 -26.5t110.5 -74t73.5 -111t26 -138.5q0 -74 -26 -137.5t-73 -111t-110 -74t-137 -26.5t-137.5 26.5t-110.5 74t-73.5 111t-26.5 138.5zM178 334q0 -68 27.5 -121t76 -83t109.5 -30t108.5 30t75 83t27.5 120
q0 68 -27.5 120.5t-75 83t-108.5 30.5t-109.5 -30t-76 -82.5t-27.5 -120.5zM419 872h147l-131 -147h-106z" />
    <glyph glyph-name="Ocircumflex" unicode="&#xd4;" horiz-adv-x="780" 
d="M43 334q0 75 26 138.5t73.5 110.5t110.5 73.5t137 26.5t137 -26.5t110.5 -74t73.5 -111t26 -138.5q0 -74 -26 -137.5t-73 -111t-110 -74t-137 -26.5t-137.5 26.5t-110.5 74t-73.5 111t-26.5 138.5zM178 334q0 -68 27.5 -121t76 -83t109.5 -30t108.5 30t75 83t27.5 120
q0 68 -27.5 120.5t-75 83t-108.5 30.5t-109.5 -30t-76 -82.5t-27.5 -120.5zM391 806l-60 -81h-109l119 147h102l117 -147h-109z" />
    <glyph glyph-name="Otilde" unicode="&#xd5;" horiz-adv-x="780" 
d="M43 334q0 75 26 138.5t73.5 110.5t110.5 73.5t137 26.5t137 -26.5t110.5 -74t73.5 -111t26 -138.5q0 -74 -26 -137.5t-73 -111t-110 -74t-137 -26.5t-137.5 26.5t-110.5 74t-73.5 111t-26.5 138.5zM178 334q0 -68 27.5 -121t76 -83t109.5 -30t108.5 30t75 83t27.5 120
q0 68 -27.5 120.5t-75 83t-108.5 30.5t-109.5 -30t-76 -82.5t-27.5 -120.5zM189 796q58 68 130 68q19 0 37 -5t41 -19q43 -22 71 -22q20 0 37.5 8.5t36.5 29.5l51 -60q-59 -68 -131 -68q-34 0 -78 24q-21 11 -38 17t-32 6q-39 0 -75 -39z" />
    <glyph glyph-name="Odieresis" unicode="&#xd6;" horiz-adv-x="780" 
d="M43 334q0 75 26 138.5t73.5 110.5t110.5 73.5t137 26.5t137 -26.5t110.5 -74t73.5 -111t26 -138.5q0 -74 -26 -137.5t-73 -111t-110 -74t-137 -26.5t-137.5 26.5t-110.5 74t-73.5 111t-26.5 138.5zM178 334q0 -68 27.5 -121t76 -83t109.5 -30t108.5 30t75 83t27.5 120
q0 68 -27.5 120.5t-75 83t-108.5 30.5t-109.5 -30t-76 -82.5t-27.5 -120.5zM433 852h120v-112h-120v112zM230 852h119v-112h-119v112z" />
    <glyph glyph-name="multiply" unicode="&#xd7;" horiz-adv-x="545" 
d="M273 249l-123 -122l-70 69l123 122l-123 122l70 70l123 -122l122 122l70 -70l-123 -122l123 -122l-70 -69z" />
    <glyph glyph-name="Oslash" unicode="&#xd8;" horiz-adv-x="780" 
d="M43 334q0 75 26 138.5t73.5 110.5t110.5 73.5t137 26.5q45 0 86.5 -10t78.5 -30l64 93l68 -47l-64 -93q53 -47 83.5 -115t30.5 -148q0 -74 -26 -137.5t-73 -111t-110 -74t-137 -26.5q-45 0 -87 10t-78 29l-64 -92l-69 47l64 93q-53 47 -83.5 115t-30.5 148zM178 334
q0 -47 13.5 -87.5t38.5 -70.5l256 368q-44 23 -95 23q-61 0 -109.5 -30t-76 -82.5t-27.5 -120.5zM295 123q44 -23 96 -23q61 0 108.5 30t75 83t27.5 120q0 47 -13.5 87.5t-38.5 70.5z" />
    <glyph glyph-name="Ugrave" unicode="&#xd9;" horiz-adv-x="673" 
d="M60 259v408h129v-407q0 -78 37.5 -118.5t109.5 -40.5q148 0 148 159v407h129v-408q0 -130 -73 -202.5t-204 -72.5q-130 0 -203 72.5t-73 202.5zM395 725h-106l-131 147h147z" />
    <glyph glyph-name="Uacute" unicode="&#xda;" horiz-adv-x="673" 
d="M60 259v408h129v-407q0 -78 37.5 -118.5t109.5 -40.5q148 0 148 159v407h129v-408q0 -130 -73 -202.5t-204 -72.5q-130 0 -203 72.5t-73 202.5zM362 872h147l-131 -147h-106z" />
    <glyph glyph-name="Ucircumflex" unicode="&#xdb;" horiz-adv-x="673" 
d="M60 259v408h129v-407q0 -78 37.5 -118.5t109.5 -40.5q148 0 148 159v407h129v-408q0 -130 -73 -202.5t-204 -72.5q-130 0 -203 72.5t-73 202.5zM334 806l-60 -81h-109l119 147h102l117 -147h-109z" />
    <glyph glyph-name="Udieresis" unicode="&#xdc;" horiz-adv-x="673" 
d="M60 259v408h129v-407q0 -78 37.5 -118.5t109.5 -40.5q148 0 148 159v407h129v-408q0 -130 -73 -202.5t-204 -72.5q-130 0 -203 72.5t-73 202.5zM376 852h120v-112h-120v112zM173 852h119v-112h-119v112z" />
    <glyph glyph-name="Yacute" unicode="&#xdd;" horiz-adv-x="625" 
d="M248 283l-235 384h143l160 -278l159 278h136l-234 -382v-285h-129v283zM340 872h147l-131 -147h-106z" />
    <glyph glyph-name="Thorn" unicode="&#xde;" horiz-adv-x="586" 
d="M70 667h127v-115h113q110 0 173 -56t63 -154t-62.5 -154.5t-169.5 -56.5h-117v-131h-127v667zM417 341q0 50 -30.5 78t-85.5 28h-104v-211h104q56 0 86 27.5t30 77.5z" />
    <glyph glyph-name="germandbls" unicode="&#xdf;" horiz-adv-x="595" 
d="M55 467q0 104 57 159.5t162 55.5q93 0 149 -42t56 -112q0 -31 -15.5 -61t-48.5 -66q-20 -20 -28 -33.5t-8 -27.5q0 -19 13.5 -32t44.5 -24l17 -6q62 -22 90 -54.5t28 -85.5q0 -73 -49 -113t-135 -40q-93 0 -157 50l51 80q46 -37 99 -37q73 0 73 55q0 23 -16.5 39
t-60.5 32l-20 8q-51 20 -74 47t-23 67q0 28 12.5 53t43.5 59q27 29 36 47.5t9 34.5q0 32 -23 49t-62 17q-101 0 -101 -122v-464h-120v467z" />
    <glyph glyph-name="agrave" unicode="&#xe0;" horiz-adv-x="511" 
d="M32 133q0 77 55.5 120.5t161.5 43.5q20 0 43 -1.5t48 -5.5v13q0 83 -108 83q-76 0 -132 -41l-48 79q81 58 193 58q102 0 157.5 -47t55.5 -132v-303h-107l-5 55q-23 -33 -62 -51.5t-91 -18.5q-72 0 -116.5 40.5t-44.5 107.5zM148 145q0 -34 21.5 -51.5t59.5 -17.5
q47 0 79 26.5t32 64.5v48q-42 7 -77 7q-55 0 -85 -19t-30 -58zM306 540h-104l-116 159h138z" />
    <glyph glyph-name="aacute" unicode="&#xe1;" horiz-adv-x="511" 
d="M32 133q0 77 55.5 120.5t161.5 43.5q20 0 43 -1.5t48 -5.5v13q0 83 -108 83q-76 0 -132 -41l-48 79q81 58 193 58q102 0 157.5 -47t55.5 -132v-303h-107l-5 55q-23 -33 -62 -51.5t-91 -18.5q-72 0 -116.5 40.5t-44.5 107.5zM148 145q0 -34 21.5 -51.5t59.5 -17.5
q47 0 79 26.5t32 64.5v48q-42 7 -77 7q-55 0 -85 -19t-30 -58zM276 699h138l-115 -159h-104z" />
    <glyph glyph-name="acircumflex" unicode="&#xe2;" horiz-adv-x="511" 
d="M32 133q0 77 55.5 120.5t161.5 43.5q20 0 43 -1.5t48 -5.5v13q0 83 -108 83q-76 0 -132 -41l-48 79q81 58 193 58q102 0 157.5 -47t55.5 -132v-303h-107l-5 55q-23 -33 -62 -51.5t-91 -18.5q-72 0 -116.5 40.5t-44.5 107.5zM148 145q0 -34 21.5 -51.5t59.5 -17.5
q47 0 79 26.5t32 64.5v48q-42 7 -77 7q-55 0 -85 -19t-30 -58zM251 635l-53 -95h-101l102 159h104l102 -159h-101z" />
    <glyph glyph-name="atilde" unicode="&#xe3;" horiz-adv-x="511" 
d="M32 133q0 77 55.5 120.5t161.5 43.5q20 0 43 -1.5t48 -5.5v13q0 83 -108 83q-76 0 -132 -41l-48 79q81 58 193 58q102 0 157.5 -47t55.5 -132v-303h-107l-5 55q-23 -33 -62 -51.5t-91 -18.5q-72 0 -116.5 40.5t-44.5 107.5zM148 145q0 -34 21.5 -51.5t59.5 -17.5
q47 0 79 26.5t32 64.5v48q-42 7 -77 7q-55 0 -85 -19t-30 -58zM383 567q-32 -16 -65 -16t-73 23q-41 24 -68 24q-37 0 -69 -38l-47 55q27 34 58 49.5t65 15.5q17 0 34 -5t38 -18q22 -12 37.5 -17.5t31.5 -5.5q35 0 69 38l46 -55q-25 -34 -57 -50z" />
    <glyph glyph-name="adieresis" unicode="&#xe4;" horiz-adv-x="511" 
d="M32 133q0 77 55.5 120.5t161.5 43.5q20 0 43 -1.5t48 -5.5v13q0 83 -108 83q-76 0 -132 -41l-48 79q81 58 193 58q102 0 157.5 -47t55.5 -132v-303h-107l-5 55q-23 -33 -62 -51.5t-91 -18.5q-72 0 -116.5 40.5t-44.5 107.5zM148 145q0 -34 21.5 -51.5t59.5 -17.5
q47 0 79 26.5t32 64.5v48q-42 7 -77 7q-55 0 -85 -19t-30 -58zM102 655h114v-105h-114v105zM286 655h114v-105h-114v105z" />
    <glyph glyph-name="aring" unicode="&#xe5;" horiz-adv-x="511" 
d="M32 133q0 77 55.5 120.5t161.5 43.5q20 0 43 -1.5t48 -5.5v13q0 83 -108 83q-76 0 -132 -41l-48 79q81 58 193 58q102 0 157.5 -47t55.5 -132v-303h-107l-5 55q-23 -33 -62 -51.5t-91 -18.5q-72 0 -116.5 40.5t-44.5 107.5zM148 145q0 -34 21.5 -51.5t59.5 -17.5
q47 0 79 26.5t32 64.5v48q-42 7 -77 7q-55 0 -85 -19t-30 -58zM137 641q0 49 32.5 80.5t81.5 31.5q50 0 82 -31.5t32 -80.5q0 -48 -32 -79.5t-82 -31.5q-49 0 -81.5 31.5t-32.5 79.5zM205 641q0 -22 13 -35t33 -13t33 13t13 35t-13 35.5t-33 13.5t-33 -13.5t-13 -35.5z" />
    <glyph glyph-name="ae" unicode="&#xe6;" horiz-adv-x="840" 
d="M32 132q0 74 54 117.5t163 43.5q21 0 43.5 -2t47.5 -5v17q0 83 -108 83q-76 0 -132 -41l-48 79q82 58 190 58q123 0 168 -79q28 38 72 58.5t97 20.5q68 0 120 -32.5t81 -91t29 -136.5v-25h-351q7 -53 44.5 -83t98.5 -30q79 0 142 52l53 -76q-35 -34 -89.5 -54.5
t-113.5 -20.5q-64 0 -115 24.5t-82 69.5q-64 -94 -185 -94q-83 0 -131 39t-48 108zM148 141q0 -31 21 -48t59 -17q49 0 80.5 26.5t31.5 66.5v42q-42 6 -76 6q-116 0 -116 -76zM656 352q-30 28 -77 28q-48 0 -80.5 -28.5t-39.5 -76.5h233q-6 49 -36 77z" />
    <glyph glyph-name="ccedilla" unicode="&#xe7;" horiz-adv-x="493" 
d="M34 232q0 73 33.5 129t91.5 88.5t131 32.5q108 0 180 -78l-68 -77q-43 49 -108 49q-59 0 -97.5 -40t-38.5 -103q0 -62 38.5 -102t98.5 -40q66 0 112 51l66 -79q-70 -78 -186 -78q-73 0 -130.5 31.5t-90 87.5t-32.5 128zM306 -146q0 34 -55 34q-16 0 -34 -3t-35 -10l12 60
q33 13 75 13q58 0 90.5 -24t32.5 -66q0 -46 -38.5 -74t-100.5 -28q-23 0 -46.5 4t-46.5 12l13 63q19 -8 38 -11.5t37 -3.5q58 0 58 34z" />
    <glyph glyph-name="egrave" unicode="&#xe8;" horiz-adv-x="539" 
d="M40 231q0 74 30.5 130.5t84.5 88.5t123 32t121.5 -32.5t82 -91t29.5 -136.5v-25h-351q7 -53 44.5 -83t98.5 -30q78 0 142 52l53 -76q-36 -36 -89.5 -55.5t-114.5 -19.5q-76 0 -133.5 30.5t-89 86t-31.5 129.5zM358 352q-30 28 -77 28q-49 0 -81 -28.5t-39 -76.5h233
q-6 49 -36 77zM323 540h-104l-116 159h138z" />
    <glyph glyph-name="eacute" unicode="&#xe9;" horiz-adv-x="539" 
d="M40 231q0 74 30.5 130.5t84.5 88.5t123 32t121.5 -32.5t82 -91t29.5 -136.5v-25h-351q7 -53 44.5 -83t98.5 -30q78 0 142 52l53 -76q-36 -36 -89.5 -55.5t-114.5 -19.5q-76 0 -133.5 30.5t-89 86t-31.5 129.5zM358 352q-30 28 -77 28q-49 0 -81 -28.5t-39 -76.5h233
q-6 49 -36 77zM293 699h138l-115 -159h-104z" />
    <glyph glyph-name="ecircumflex" unicode="&#xea;" horiz-adv-x="539" 
d="M40 231q0 74 30.5 130.5t84.5 88.5t123 32t121.5 -32.5t82 -91t29.5 -136.5v-25h-351q7 -53 44.5 -83t98.5 -30q78 0 142 52l53 -76q-36 -36 -89.5 -55.5t-114.5 -19.5q-76 0 -133.5 30.5t-89 86t-31.5 129.5zM358 352q-30 28 -77 28q-49 0 -81 -28.5t-39 -76.5h233
q-6 49 -36 77zM268 635l-53 -95h-101l102 159h104l102 -159h-101z" />
    <glyph glyph-name="edieresis" unicode="&#xeb;" horiz-adv-x="539" 
d="M40 231q0 74 30.5 130.5t84.5 88.5t123 32t121.5 -32.5t82 -91t29.5 -136.5v-25h-351q7 -53 44.5 -83t98.5 -30q78 0 142 52l53 -76q-36 -36 -89.5 -55.5t-114.5 -19.5q-76 0 -133.5 30.5t-89 86t-31.5 129.5zM358 352q-30 28 -77 28q-49 0 -81 -28.5t-39 -76.5h233
q-6 49 -36 77zM119 655h114v-105h-114v105zM303 655h114v-105h-114v105z" />
    <glyph glyph-name="igrave" unicode="&#xec;" horiz-adv-x="236" 
d="M57 467h122v-467h-122v467zM173 540h-104l-116 159h138z" />
    <glyph glyph-name="iacute" unicode="&#xed;" horiz-adv-x="236" 
d="M57 467h122v-467h-122v467zM143 699h138l-115 -159h-104z" />
    <glyph glyph-name="icircumflex" unicode="&#xee;" horiz-adv-x="236" 
d="M57 467h122v-467h-122v467zM118 635l-53 -95h-101l102 159h104l102 -159h-101z" />
    <glyph glyph-name="idieresis" unicode="&#xef;" horiz-adv-x="236" 
d="M57 467h122v-467h-122v467zM-31 655h114v-105h-114v105zM153 655h114v-105h-114v105z" />
    <glyph glyph-name="eth" unicode="&#xf0;" horiz-adv-x="556" 
d="M522 272q0 -141 -67 -214t-184 -73q-70 0 -123.5 28.5t-83.5 79t-30 115.5q0 67 30 118.5t82.5 81t121.5 29.5q61 0 112 -26q-29 83 -99 129l-108 -80l-41 54l80 59q-47 16 -105 21l16 88q98 -8 176 -44l75 56l41 -54l-52 -39q77 -53 118 -137.5t41 -191.5zM401 267
q0 22 -3 48q-55 32 -107 32q-61 0 -98.5 -37t-37.5 -98q0 -58 33.5 -94.5t85.5 -36.5q61 0 94 47.5t33 138.5z" />
    <glyph glyph-name="ntilde" unicode="&#xf1;" horiz-adv-x="556" 
d="M57 467h112l6 -64q23 37 63.5 58t92.5 21q81 0 126 -51t45 -142v-289h-122v268q0 106 -90 106q-51 0 -81 -35.5t-30 -97.5v-241h-122v467zM415 567q-32 -16 -65 -16t-73 23q-41 24 -68 24q-37 0 -69 -38l-47 55q27 34 58 49.5t65 15.5q17 0 34 -5t38 -18
q22 -12 37.5 -17.5t31.5 -5.5q35 0 69 38l46 -55q-25 -34 -57 -50z" />
    <glyph glyph-name="ograve" unicode="&#xf2;" horiz-adv-x="572" 
d="M34 234q0 72 33 128t90 88t129 32t129 -32t90 -88t33 -128q0 -71 -33 -127.5t-90 -89t-129 -32.5t-129 32.5t-90 88.5t-33 128zM156 233q0 -63 36.5 -102.5t93.5 -39.5q56 0 92.5 39.5t36.5 103.5q0 63 -36 102.5t-93 39.5t-93.5 -39.5t-36.5 -103.5zM341 540h-104
l-116 159h138z" />
    <glyph glyph-name="oacute" unicode="&#xf3;" horiz-adv-x="572" 
d="M34 234q0 72 33 128t90 88t129 32t129 -32t90 -88t33 -128q0 -71 -33 -127.5t-90 -89t-129 -32.5t-129 32.5t-90 88.5t-33 128zM156 233q0 -63 36.5 -102.5t93.5 -39.5q56 0 92.5 39.5t36.5 103.5q0 63 -36 102.5t-93 39.5t-93.5 -39.5t-36.5 -103.5zM311 699h138
l-115 -159h-104z" />
    <glyph glyph-name="ocircumflex" unicode="&#xf4;" horiz-adv-x="572" 
d="M34 234q0 72 33 128t90 88t129 32t129 -32t90 -88t33 -128q0 -71 -33 -127.5t-90 -89t-129 -32.5t-129 32.5t-90 88.5t-33 128zM156 233q0 -63 36.5 -102.5t93.5 -39.5q56 0 92.5 39.5t36.5 103.5q0 63 -36 102.5t-93 39.5t-93.5 -39.5t-36.5 -103.5zM286 635l-53 -95
h-101l102 159h104l102 -159h-101z" />
    <glyph glyph-name="otilde" unicode="&#xf5;" horiz-adv-x="572" 
d="M34 234q0 72 33 128t90 88t129 32t129 -32t90 -88t33 -128q0 -71 -33 -127.5t-90 -89t-129 -32.5t-129 32.5t-90 88.5t-33 128zM156 233q0 -63 36.5 -102.5t93.5 -39.5q56 0 92.5 39.5t36.5 103.5q0 63 -36 102.5t-93 39.5t-93.5 -39.5t-36.5 -103.5zM418 567
q-32 -16 -65 -16t-73 23q-41 24 -68 24q-37 0 -69 -38l-47 55q27 34 58 49.5t65 15.5q17 0 34 -5t38 -18q22 -12 37.5 -17.5t31.5 -5.5q35 0 69 38l46 -55q-25 -34 -57 -50z" />
    <glyph glyph-name="odieresis" unicode="&#xf6;" horiz-adv-x="572" 
d="M34 234q0 72 33 128t90 88t129 32t129 -32t90 -88t33 -128q0 -71 -33 -127.5t-90 -89t-129 -32.5t-129 32.5t-90 88.5t-33 128zM156 233q0 -63 36.5 -102.5t93.5 -39.5q56 0 92.5 39.5t36.5 103.5q0 63 -36 102.5t-93 39.5t-93.5 -39.5t-36.5 -103.5zM137 655h114v-105
h-114v105zM321 655h114v-105h-114v105z" />
    <glyph glyph-name="divide" unicode="&#xf7;" horiz-adv-x="545" 
d="M68 371h409v-100h-409v100zM215 205h115v-106h-115v106zM215 543h115v-106h-115v106z" />
    <glyph glyph-name="oslash" unicode="&#xf8;" horiz-adv-x="568" 
d="M34 234q0 72 32.5 128t89 88t128.5 32q62 0 115 -25l49 70l57 -38l-49 -70q37 -33 58 -80.5t21 -104.5q0 -71 -32.5 -127.5t-89.5 -89t-129 -32.5q-62 0 -115 25l-49 -70l-56 39l48 69q-36 34 -57 81.5t-21 104.5zM396 334l-171 -244q27 -12 59 -12q63 0 102 43t39 113
q0 59 -29 100zM343 377q-27 12 -58 12q-63 0 -102.5 -43t-39.5 -113q0 -59 29 -100z" />
    <glyph glyph-name="ugrave" unicode="&#xf9;" horiz-adv-x="552" 
d="M54 178v289h122v-266q0 -52 22.5 -80t64.5 -28q50 0 80 38t30 102v234h122v-467h-111l-6 66q-23 -38 -63.5 -59.5t-90.5 -21.5q-80 0 -125 51t-45 142zM329 540h-104l-116 159h138z" />
    <glyph glyph-name="uacute" unicode="&#xfa;" horiz-adv-x="552" 
d="M54 178v289h122v-266q0 -52 22.5 -80t64.5 -28q50 0 80 38t30 102v234h122v-467h-111l-6 66q-23 -38 -63.5 -59.5t-90.5 -21.5q-80 0 -125 51t-45 142zM299 699h138l-115 -159h-104z" />
    <glyph glyph-name="ucircumflex" unicode="&#xfb;" horiz-adv-x="552" 
d="M54 178v289h122v-266q0 -52 22.5 -80t64.5 -28q50 0 80 38t30 102v234h122v-467h-111l-6 66q-23 -38 -63.5 -59.5t-90.5 -21.5q-80 0 -125 51t-45 142zM274 635l-53 -95h-101l102 159h104l102 -159h-101z" />
    <glyph glyph-name="udieresis" unicode="&#xfc;" horiz-adv-x="552" 
d="M54 178v289h122v-266q0 -52 22.5 -80t64.5 -28q50 0 80 38t30 102v234h122v-467h-111l-6 66q-23 -38 -63.5 -59.5t-90.5 -21.5q-80 0 -125 51t-45 142zM125 655h114v-105h-114v105zM309 655h114v-105h-114v105z" />
    <glyph glyph-name="yacute" unicode="&#xfd;" horiz-adv-x="528" 
d="M392 467h129l-215 -513q-39 -93 -79 -131t-100 -38q-63 0 -114 36l44 85q31 -21 59 -21q25 0 44.5 18.5t38.5 66.5l15 37l-208 460h136l130 -334zM289 699h138l-115 -159h-104z" />
    <glyph glyph-name="thorn" unicode="&#xfe;" horiz-adv-x="562" 
d="M57 667h122v-250q23 31 59 48t81 17q63 0 110.5 -29.5t73.5 -82.5t26 -123q0 -76 -31 -135.5t-84.5 -93t-122.5 -33.5q-31 0 -58.5 7t-53.5 21v-213h-122v867zM405 238q0 63 -30.5 100t-82.5 37q-50 0 -81.5 -33t-31.5 -87v-140q44 -26 92 -26q62 0 98 40.5t36 108.5z
" />
    <glyph glyph-name="ydieresis" unicode="&#xff;" horiz-adv-x="528" 
d="M392 467h129l-215 -513q-39 -93 -79 -131t-100 -38q-63 0 -114 36l44 85q31 -21 59 -21q25 0 44.5 18.5t38.5 66.5l15 37l-208 460h136l130 -334zM115 655h114v-105h-114v105zM299 655h114v-105h-114v105z" />
    <glyph glyph-name="Amacron" unicode="&#x100;" horiz-adv-x="669" 
d="M460 167h-257l-58 -167h-134l253 667h142l252 -667h-140zM332 538l-95 -272h189zM163 841h345v-90h-345v90z" />
    <glyph glyph-name="amacron" unicode="&#x101;" horiz-adv-x="511" 
d="M32 133q0 77 55.5 120.5t161.5 43.5q20 0 43 -1.5t48 -5.5v13q0 83 -108 83q-76 0 -132 -41l-48 79q81 58 193 58q102 0 157.5 -47t55.5 -132v-303h-107l-5 55q-23 -33 -62 -51.5t-91 -18.5q-72 0 -116.5 40.5t-44.5 107.5zM148 145q0 -34 21.5 -51.5t59.5 -17.5
q47 0 79 26.5t32 64.5v48q-42 7 -77 7q-55 0 -85 -19t-30 -58zM111 646h280v-87h-280v87z" />
    <glyph glyph-name="Abreve" unicode="&#x102;" horiz-adv-x="669" 
d="M460 167h-257l-58 -167h-134l253 667h142l252 -667h-140zM332 538l-95 -272h189zM447 756q-43 -41 -112 -41t-112 41t-45 109h92q2 -31 19.5 -50t45.5 -19t46 19t19 50h92q-2 -68 -45 -109z" />
    <glyph glyph-name="abreve" unicode="&#x103;" horiz-adv-x="511" 
d="M32 133q0 77 55.5 120.5t161.5 43.5q20 0 43 -1.5t48 -5.5v13q0 83 -108 83q-76 0 -132 -41l-48 79q81 58 193 58q102 0 157.5 -47t55.5 -132v-303h-107l-5 55q-23 -33 -62 -51.5t-91 -18.5q-72 0 -116.5 40.5t-44.5 107.5zM148 145q0 -34 21.5 -51.5t59.5 -17.5
q47 0 79 26.5t32 64.5v48q-42 7 -77 7q-55 0 -85 -19t-30 -58zM207 623.5q16 -18.5 44 -18.5t44 18.5t16 49.5h89q0 -64 -41 -103.5t-108 -39.5t-108 39.5t-41 103.5h89q0 -31 16 -49.5z" />
    <glyph glyph-name="Aogonek" unicode="&#x104;" horiz-adv-x="669" 
d="M460 167h-257l-58 -167h-134l253 667h142l252 -667h-140zM332 538l-95 -272h189zM439 -110q0 42 30 78t88 52l94 -20q-62 -12 -84.5 -36.5t-22.5 -45.5q0 -36 34 -36q23 0 45 15l31 -65q-42 -36 -109 -36q-50 0 -78 26.5t-28 67.5z" />
    </font>
</defs>
</svg>
